<svg t="1711886688467" class="icon" viewBox="0 0 1024 1024" version="1.1" xmlns="http://www.w3.org/2000/svg" p-id="3099" width="200" height="200"><path d="M979.23072 877.73184a478.76096 478.76096 0 0 0-946.60608 0v21.99552a21.93408 21.93408 0 0 0 21.95456 21.99552h104.73472a25.57952 25.57952 0 0 0 24.69888-21.99552l2.72384-21.79072a327.41376 327.41376 0 0 1 638.27968 0h0.12288l2.72384 21.79072a25.53856 25.53856 0 0 0 24.576 21.99552h104.77568a21.93408 21.93408 0 0 0 21.95456-21.99552v-21.99552zM30.59712 202.58816a100.90496 100.90496 0 0 0 201.78944 0 100.90496 100.90496 0 0 0-201.78944 0z m760.75008 0a100.90496 100.90496 0 0 0 201.80992 0 100.90496 100.90496 0 0 0-201.80992 0z" fill="#ffffff" p-id="3100"></path></svg>