<svg width="21" height="18" viewBox="0 0 21 18" fill="none" xmlns="http://www.w3.org/2000/svg">
<g id="Group">
<path id="Vector" d="M0.592662 14.2457H16.1046C16.2438 14.2457 16.3782 14.197 16.4849 14.1083C16.6339 13.9835 20.0325 11.0598 20.2398 4.74854H3.58022C3.37378 10.4774 0.243761 13.1702 0.211234 13.1971C0.0205392 13.3582 -0.0496209 13.6214 0.0361699 13.8556C0.121367 14.0892 0.343402 14.2457 0.592662 14.2457Z" fill="#163642"/>
<path id="Vector_2" d="M19.6656 1.18714H16.6977V0.593571C16.6977 0.261171 16.4366 0 16.1042 0C15.7718 0 15.5106 0.261171 15.5106 0.593571V1.18714H12.5032V0.593571C12.5032 0.261171 12.242 0 11.9096 0C11.5772 0 11.316 0.261171 11.316 0.593571V1.18714H8.34818V0.593571C8.34818 0.261171 8.087 0 7.7546 0C7.42221 0 7.16103 0.261171 7.16103 0.593571V1.18714H4.19318C3.86078 1.18714 3.59961 1.44831 3.59961 1.78071V3.56142H20.2592V1.78071C20.2592 1.44831 19.998 1.18714 19.6656 1.18714Z" fill="#163642"/>
<path id="Vector_3" d="M17.2467 15.0184C16.9244 15.2868 16.5198 15.4329 16.1042 15.4329H3.59961V17.2136C3.59961 17.5417 3.86509 17.8072 4.19318 17.8072H19.6656C19.9937 17.8072 20.2592 17.5417 20.2592 17.2136V10.5598C19.1148 13.3674 17.5178 14.7915 17.2467 15.0184Z" fill="#163642"/>
</g>
</svg>
