<svg width="17" height="25" viewBox="0 0 17 25" fill="none" xmlns="http://www.w3.org/2000/svg">
<g id="Hourglass">
<g id="Group">
<path id="Vector" d="M16.1207 22.8613H15.3021V17.8133C15.3021 15.6371 14.247 13.5761 12.4796 12.3205C14.247 11.0429 15.3021 8.98185 15.3021 6.80651V1.75856H16.1207C16.607 1.75856 17 1.36464 17 0.87928C17 0.393917 16.607 0 16.1207 0H0.87928C0.393038 0 0 0.393917 0 0.87928C0 1.36464 0.393038 1.75856 0.87928 1.75856H1.68998V6.80651C1.68998 8.98185 2.74511 11.0429 4.51247 12.3002C2.74511 13.5778 1.68998 15.6389 1.68998 17.8142V22.8613H0.87928C0.393038 22.8613 0 23.2552 0 23.7406C0 24.2259 0.393038 24.6198 0.87928 24.6198H16.1207C16.607 24.6198 17 24.2259 17 23.7406C17 23.2552 16.607 22.8613 16.1207 22.8613ZM3.44854 17.8133C3.44854 16.2007 4.23197 14.6725 5.54298 13.7247C6.00724 13.3897 6.27366 12.8735 6.27366 12.3099C6.27366 11.7463 6.00724 11.2302 5.54298 10.8952C4.23197 9.9473 3.44854 8.41911 3.44854 6.80651V1.75856H13.5436V6.80651C13.5436 8.41911 12.7601 9.94817 11.45 10.8952C10.9857 11.2302 10.7184 11.7463 10.7184 12.3099C10.7184 12.8735 10.9857 13.3897 11.4491 13.7247C12.7601 14.6725 13.5436 16.2007 13.5436 17.8133V22.8613H12.6133L11.4904 21.3797C10.7738 20.423 9.67999 19.8752 8.49209 19.8752C8.48945 19.8752 8.48681 19.8752 8.48417 19.8752C7.29714 19.8779 6.20948 20.4274 5.50166 21.3788L4.38585 22.8613H3.44766V17.8133H3.44854Z" fill="#163642"/>
<path id="Vector_2" d="M8.50056 16.4866C7.94838 16.4866 7.51489 16.9209 7.51489 17.4722C7.51489 18.0139 7.94838 18.4579 8.50056 18.4579C9.0422 18.4579 9.48624 18.0139 9.48624 17.4722C9.48624 16.9209 9.0422 16.4866 8.50056 16.4866Z" fill="#163642"/>
<path id="Vector_3" d="M7.61742 13.8249C7.61742 14.3103 8.01046 14.7042 8.4967 14.7042C8.98294 14.7042 9.37598 14.3103 9.37598 13.8249V10.5303C11.0668 10.1302 12.3321 8.61695 12.3321 6.80563V3.84949C12.3321 3.36413 11.9391 2.97021 11.4528 2.97021H5.53968C5.05344 2.97021 4.6604 3.36413 4.6604 3.84949V6.80563C4.6604 8.61695 5.92568 10.1302 7.61654 10.5303V13.8249H7.61742Z" fill="#163642"/>
</g>
</g>
</svg>
