<svg t="1710404648022" class="icon" viewBox="0 0 1024 1024" version="1.1" xmlns="http://www.w3.org/2000/svg" p-id="4404" width="200" height="200"><path d="M597.333333 395.861333V192a21.333333 21.333333 0 0 0-42.666666 0v256a21.333333 21.333333 0 0 0 21.333333 21.333333h256a21.333333 21.333333 0 0 0 0-42.666666h-205.12L890.24 163.306667a21.333333 21.333333 0 0 0-30.165333-30.165334L597.333333 395.861333z m-170.666666 232.277334V832a21.333333 21.333333 0 0 0 42.666666 0V576a21.333333 21.333333 0 0 0-21.333333-21.333333H192a21.333333 21.333333 0 0 0 0 42.666666h205.12L133.76 860.693333a21.333333 21.333333 0 0 0 30.165333 30.165334L426.666667 628.138667z" fill="#3D3D3D" p-id="4405"></path></svg>