<svg t="1710340072583" class="icon" viewBox="0 0 1024 1024" version="1.1" xmlns="http://www.w3.org/2000/svg"
          p-id="6415" width="18" height="18">
          <path
            d="M512 0C231.111 0 3.556 227.556 3.556 508.444S231.11 1016.89 512 1016.89s508.444-227.556 508.444-508.445C1016.89 227.556 789.334 0 512 0z m209.778 661.333c14.222 14.223 14.222 39.111 0 56.89-14.222 14.221-39.111 14.221-56.89 0L508.445 561.777 352 718.222c-14.222 14.222-39.111 14.222-56.889 0-14.222-14.222-14.222-39.11 0-56.889L451.556 504.89 295.11 348.444c-14.222-14.222-14.222-39.11 0-56.888 14.222-14.223 39.111-14.223 56.889 0L508.444 448 664.89 291.556c14.222-14.223 39.111-14.223 56.889 0 14.222 14.222 14.222 39.11 0 56.888L565.333 504.89l156.445 156.444z"
            p-id="6416" data-spm-anchor-id="a313x.search_index.0.i9.79613a81vUSmay" class="selected" fill="#C33473">
          </path>
        </svg>