<svg width="23" height="23" viewBox="0 0 23 23" fill="none" xmlns="http://www.w3.org/2000/svg">
<path fill-rule="evenodd" clip-rule="evenodd" d="M11.6525 10.7303C11.6507 10.7284 11.6495 10.7262 11.6484 10.724C11.6472 10.7217 11.646 10.7195 11.644 10.7176L7.90528 6.97874V4.6295C7.90528 4.45546 7.83618 4.28914 7.71337 4.16628L3.78261 0.19189C3.59581 0.00513469 3.31367 -0.0518177 3.06861 0.0499017C2.82359 0.150966 2.66426 0.390262 2.66426 0.655108V2.62049H0.655207C0.390404 2.62045 0.151108 2.77973 0.0500441 3.02479C-0.0516753 3.26981 0.00462192 3.55134 0.192076 3.73879L4.16651 7.71318C4.28937 7.83604 4.45569 7.90514 4.62969 7.90514H6.97893L10.7177 11.6439C10.7196 11.6458 10.7219 11.647 10.7241 11.6482C10.7263 11.6494 10.7285 11.6506 10.7304 11.6524C10.9855 11.8958 11.3729 11.8991 11.6314 11.6524C11.9036 11.3926 11.8974 10.9869 11.6525 10.7303ZM11.1807 3.3975e-05C9.50445 3.3975e-05 7.91952 0.426522 6.49231 1.0927L8.50198 3.10237C9.34543 2.82188 10.2444 2.66422 11.1808 2.66422C15.8767 2.66417 19.6974 6.48487 19.6974 11.1808C19.6974 15.8767 15.8767 19.6974 11.1807 19.6974C6.4848 19.6974 2.66414 15.8767 2.66414 11.1808C2.66414 10.2444 2.82185 9.34542 3.10229 8.50197L1.09262 6.4923C0.426531 7.91956 0 9.50449 0 11.1808C0 17.3219 5.03963 22.3616 11.1807 22.3616C17.3219 22.3616 22.3615 17.3219 22.3615 11.1808C22.3615 5.03966 17.3219 3.3975e-05 11.1807 3.3975e-05ZM9.215 5.64695C9.83279 5.4267 10.4879 5.28475 11.1804 5.28475C14.4317 5.28475 17.0765 7.92954 17.0765 11.1809C17.0765 14.4322 14.4316 17.077 11.1804 17.077C7.92912 17.077 5.28428 14.4322 5.28428 11.1809C5.28428 10.4884 5.42623 9.83325 5.64648 9.21547H6.43587L7.95034 10.73C7.94745 10.7507 7.94449 10.7714 7.94152 10.792C7.92314 10.92 7.90475 11.0479 7.90475 11.1809C7.90475 12.987 9.37429 14.4565 11.1804 14.4565C12.9865 14.4565 14.456 12.987 14.456 11.1809C14.456 9.3748 12.9865 7.90526 11.1804 7.90526C11.0475 7.90526 10.9195 7.92364 10.7916 7.94202C10.7709 7.94499 10.7502 7.94796 10.7295 7.95086L9.215 6.43633V5.64695Z" fill="#163642"/>
</svg>
