<svg width="21" height="22" viewBox="0 0 21 22" fill="none" xmlns="http://www.w3.org/2000/svg">
<path d="M5.21053 3.10547H3.10526C2.54691 3.10547 2.01143 3.32727 1.61662 3.72209C1.2218 4.1169 1 4.65238 1 5.21073V17.8423C1 18.4007 1.2218 18.9361 1.61662 19.331C2.01143 19.7258 2.54691 19.9476 3.10526 19.9476H9.10211M15.7368 12.5792V16.7897H19.9474M15.7368 9.42126V5.21073C15.7368 4.65238 15.515 4.1169 15.1202 3.72209C14.7254 3.32727 14.1899 3.10547 13.6316 3.10547H11.5263" stroke="white" stroke-width="2" stroke-linecap="round" stroke-linejoin="round"/>
<path d="M5.21045 9.42105H9.42098M5.21045 13.6316H8.36834M5.21045 3.10526C5.21045 2.54691 5.43225 2.01143 5.82707 1.61662C6.22188 1.2218 6.75736 1 7.31571 1H9.42098C9.97933 1 10.5148 1.2218 10.9096 1.61662C11.3044 2.01143 11.5262 2.54691 11.5262 3.10526C11.5262 3.66361 11.3044 4.1991 10.9096 4.59391C10.5148 4.98872 9.97933 5.21053 9.42098 5.21053H7.31571C6.75736 5.21053 6.22188 4.98872 5.82707 4.59391C5.43225 4.1991 5.21045 3.66361 5.21045 3.10526ZM11.5262 16.7895C11.5262 17.9062 11.9698 18.9771 12.7595 19.7668C13.5491 20.5564 14.6201 21 15.7368 21C16.8535 21 17.9244 20.5564 18.7141 19.7668C19.5037 18.9771 19.9473 17.9062 19.9473 16.7895C19.9473 15.6728 19.5037 14.6018 18.7141 13.8122C17.9244 13.0226 16.8535 12.5789 15.7368 12.5789C14.6201 12.5789 13.5491 13.0226 12.7595 13.8122C11.9698 14.6018 11.5262 15.6728 11.5262 16.7895Z" stroke="white" stroke-width="2" stroke-linecap="round" stroke-linejoin="round"/>
</svg>
