<svg width="287" height="232" viewBox="0 0 287 232" fill="none" xmlns="http://www.w3.org/2000/svg">
<path fill-rule="evenodd" clip-rule="evenodd" d="M4.76479 22.4801C1.22787 22.0173 -9.92108 17.8445 -12.6515 14.9338C-13.4152 14.1392 -14.016 13.1988 -14.4188 12.1671C-14.8216 11.1354 -15.0186 10.0329 -14.9983 8.92343C-14.9781 7.81398 -14.741 6.71963 -14.3008 5.70376C-13.8606 4.68789 -13.2261 3.77069 -12.4339 3.0053C-11.6417 2.2399 -10.7077 1.64154 -9.6859 1.24483C-8.66411 0.848118 -7.57487 0.660954 -6.48126 0.694194C-5.38765 0.727435 -4.31143 0.980407 -3.3149 1.43847C-2.31836 1.89652 -1.42126 2.55057 -0.67572 3.36271C2.01186 6.22473 5.52269 17.4156 5.89958 21.1995C9.41908 25.3395 13.1842 30.2638 17.1789 35.9422C15.7118 31.2598 14.4018 25.4106 14.8286 22.7933C15.0096 21.6815 15.4049 20.6168 15.9916 19.6599C16.5784 18.7029 17.3452 17.8726 18.2483 17.2163C19.1515 16.5599 20.1733 16.0904 21.2554 15.8345C22.3375 15.5787 23.4586 15.5415 24.5548 15.7251C25.6511 15.9087 26.701 16.3095 27.6445 16.9046C28.588 17.4997 29.4067 18.2774 30.0538 19.1934C30.701 20.1093 31.1639 21.1457 31.4162 22.2431C31.6685 23.3405 31.7052 24.4776 31.5242 25.5894C30.8829 29.5396 24.1587 39.1705 21.2922 41.9348C25.0567 47.547 29.0058 53.7721 33.1273 60.5878C31.4166 55.6395 29.6296 48.3755 30.1214 45.3535H30.1283C30.3121 44.2237 30.7135 43.1418 31.3096 42.1693C31.9057 41.1969 32.6847 40.3531 33.6023 39.686C35.4555 38.3389 37.7605 37.7935 40.0102 38.1699C41.1242 38.3563 42.191 38.7634 43.1498 39.3679C44.1086 39.9725 44.9406 40.7626 45.5983 41.6933C46.256 42.6239 46.7266 43.6768 46.9831 44.7919C47.2396 45.907 47.277 47.0624 47.0933 48.1921C46.3747 52.5844 38.3226 63.8364 36.0083 65.4006C40.4981 72.9757 45.1818 81.2194 50.0447 90.1043C47.9869 83.0363 45.7727 70.6442 46.9297 65.9654V65.9618C47.7184 62.7754 49.723 60.0372 52.5023 58.3496C55.2816 56.6621 58.6081 56.1634 61.7499 56.9633C64.8918 57.7632 67.5917 59.7962 69.2556 62.615C70.9195 65.4338 71.4112 68.8075 70.6225 71.994C69.0828 78.2202 55.9234 93.6349 52.7716 95.1192C57.3307 103.557 62.0407 112.539 66.8901 122.043C64.8276 113.624 62.9211 100.337 64.3252 95.2107C64.8101 93.371 65.6499 91.647 66.796 90.1385C67.9421 88.6301 69.3717 87.367 71.0021 86.4224C72.6326 85.4778 74.4315 84.8705 76.2948 84.6355C78.1582 84.4005 80.049 84.5425 81.8579 85.0534C83.6668 85.5642 85.3578 86.4337 86.8333 87.6115C88.3087 88.7894 89.5392 90.2523 90.4537 91.9155C91.3682 93.5788 91.9484 95.4094 92.1608 97.3016C92.3733 99.1937 92.2138 101.11 91.6915 102.939C89.7557 109.983 74.6114 126.938 70.4981 129.16C74.987 138.071 79.5895 147.412 84.2967 157.167C83.7735 146.854 84.9632 128.056 88.2685 121.823V121.834C90.4524 117.716 94.1595 114.647 98.5746 113.301C102.99 111.956 107.751 112.444 111.811 114.659C115.871 116.874 118.897 120.634 120.224 125.111C121.55 129.589 121.069 134.418 118.885 138.536C114.891 146.058 94.0975 161.086 87.4562 163.744C92.1037 173.462 96.8494 183.572 101.685 194.06C101.119 183.825 102.297 164.671 105.64 158.371V158.382C106.711 156.325 108.173 154.503 109.942 153.022C111.71 151.54 113.751 150.429 115.945 149.751C118.139 149.073 120.444 148.842 122.726 149.072C125.009 149.302 127.224 149.988 129.244 151.09C131.264 152.192 133.049 153.688 134.496 155.493C135.943 157.298 137.023 159.376 137.674 161.606C138.326 163.837 138.536 166.176 138.292 168.489C138.048 170.802 137.355 173.043 136.253 175.083C132.211 182.693 110.962 197.995 104.591 200.382C110.399 213.065 116.332 226.28 122.377 240C122.468 240.207 122.474 240.442 122.394 240.653C122.314 240.865 122.154 241.036 121.95 241.128C121.898 241.15 121.844 241.167 121.789 241.181C121.6 241.223 121.402 241.198 121.229 241.109C121.056 241.021 120.917 240.875 120.838 240.695C114.775 226.936 108.826 213.686 103.004 200.972C97.5545 206.072 75.699 218.621 67.3651 219.118V219.1C62.7632 219.374 58.2425 217.783 54.7975 214.676C51.3526 211.569 49.2655 207.202 48.9955 202.535C48.7255 197.868 50.2947 193.283 53.3578 189.789C56.4209 186.295 60.727 184.178 65.3289 183.904C72.9521 183.45 92.9742 191.661 100.925 196.444C95.7877 185.281 90.7518 174.543 85.8272 164.247C80.7239 169.221 58.4312 182.077 49.9949 182.577V182.567C47.7163 182.702 45.4337 182.381 43.2775 181.621C41.1212 180.862 39.1335 179.68 37.4279 178.141C35.7223 176.603 34.3321 174.739 33.3368 172.655C32.3415 170.572 31.7605 168.31 31.6271 166C31.4936 163.689 31.8103 161.374 32.559 159.187C33.3076 157 34.4737 154.984 35.9905 153.254C37.5074 151.524 39.3454 150.114 41.3995 149.105C43.4536 148.095 45.6836 147.506 47.9622 147.371C55.6751 146.923 76.064 155.315 83.8223 160.067C78.6554 149.326 73.614 139.081 68.7098 129.354C64.2518 132.927 44.9389 141.546 38.0116 141.233C34.2481 141.063 30.7052 139.384 28.1624 136.564C25.6196 133.745 24.2852 130.017 24.4527 126.2C24.6202 122.383 26.2758 118.79 29.0555 116.211C31.8352 113.632 35.5111 112.279 39.2747 112.449C45.3437 112.723 60.2797 120.68 66.664 125.311C61.3619 114.87 56.2246 105.048 51.2673 95.8733C47.0793 99.6011 32.2673 108.144 26.5333 108.513C24.9326 108.616 23.3275 108.399 21.8096 107.873C20.2918 107.347 18.8911 106.523 17.6872 105.448C16.4834 104.373 15.5001 103.068 14.7935 101.608C14.0869 100.148 13.6708 98.5603 13.5691 96.9368C13.4673 95.3134 13.6818 93.6855 14.2004 92.1462C14.7189 90.6068 15.5313 89.1861 16.5912 87.9652C17.6512 86.7442 18.9378 85.747 20.3777 85.0304C21.8177 84.3137 23.3826 83.8918 24.9834 83.7886C30.0731 83.4586 43.0618 88.5998 49.1473 91.9692C44.1532 82.8183 39.3479 74.3424 34.7472 66.5714C31.2241 69.3783 21.7084 74.7575 17.8934 75.003L17.8899 74.9853C15.6712 75.0367 13.519 74.2159 11.8834 72.6946C10.2479 71.1734 9.25577 69.0695 9.11476 66.8233C8.97374 64.5772 9.6947 62.3627 11.1268 60.6433C12.5589 58.924 14.5912 57.8329 16.7983 57.5985C20.024 57.3861 27.7476 60.2965 32.3835 62.611C27.957 55.2553 23.7285 48.5775 19.7129 42.6055C17.5763 44.9027 6.35532 51.4972 2.15707 51.7687C-0.069458 51.8893 -2.25288 51.1139 -3.9189 49.611C-5.58492 48.108 -6.59886 45.9991 -6.74036 43.7423C-6.88185 41.4854 -6.13947 39.2632 -4.67458 37.5583C-3.20969 35.8535 -1.14059 34.8038 1.08305 34.6374C4.76857 34.3991 14.432 38.3024 18.365 40.6157C13.4997 33.4874 8.95717 27.4251 4.76479 22.4801Z" fill="#62C1C6"/>
<path fill-rule="evenodd" clip-rule="evenodd" d="M271.718 162.626C274.455 162.311 283.073 159.477 285.184 157.501C285.774 156.961 286.239 156.322 286.55 155.621C286.862 154.92 287.014 154.171 286.998 153.418C286.983 152.664 286.799 151.921 286.459 151.231C286.119 150.541 285.628 149.918 285.015 149.398C284.403 148.878 283.68 148.471 282.89 148.202C282.1 147.932 281.258 147.805 280.412 147.828C279.567 147.85 278.735 148.022 277.964 148.333C277.193 148.644 276.5 149.089 275.923 149.64C273.845 151.585 271.129 159.19 270.839 161.759C268.118 164.57 265.207 167.915 262.119 171.771C263.253 168.591 264.266 164.617 263.936 162.839C263.796 162.084 263.49 161.361 263.037 160.711C262.583 160.061 261.99 159.497 261.292 159.051C260.593 158.605 259.803 158.286 258.966 158.112C258.13 157.939 257.263 157.913 256.415 158.038C255.567 158.163 254.756 158.435 254.026 158.839C253.296 159.243 252.663 159.772 252.163 160.394C251.663 161.016 251.305 161.72 251.11 162.466C250.914 163.211 250.886 163.983 251.026 164.739C251.522 167.422 256.722 173.964 258.938 175.842C256.027 179.654 252.974 183.883 249.787 188.512C251.109 185.151 252.491 180.217 252.111 178.164H252.105C251.963 177.397 251.653 176.662 251.192 176.001C250.731 175.341 250.129 174.768 249.419 174.315C247.986 173.399 246.204 173.029 244.464 173.285C243.603 173.411 242.778 173.688 242.037 174.098C241.295 174.509 240.652 175.046 240.143 175.678C239.635 176.31 239.271 177.025 239.072 177.783C238.874 178.54 238.845 179.325 238.987 180.093C239.543 183.076 245.769 190.719 247.559 191.782C244.087 196.928 240.465 202.528 236.705 208.563C238.296 203.762 240.008 195.344 239.114 192.166V192.163C238.504 189.999 236.954 188.139 234.805 186.992C232.655 185.846 230.083 185.507 227.654 186.051C225.224 186.594 223.137 187.975 221.85 189.89C220.563 191.804 220.183 194.096 220.793 196.261C221.984 200.49 232.159 210.961 234.596 211.969C231.071 217.701 227.429 223.802 223.679 230.259C225.274 224.54 226.748 215.514 225.662 212.032C225.287 210.782 224.638 209.611 223.752 208.586C222.866 207.562 221.76 206.704 220.499 206.062C219.239 205.42 217.848 205.008 216.407 204.848C214.966 204.688 213.504 204.785 212.105 205.132C210.706 205.479 209.399 206.07 208.258 206.87C207.117 207.67 206.166 208.663 205.458 209.793C204.751 210.923 204.303 212.167 204.138 213.452C203.974 214.737 204.097 216.039 204.501 217.281C205.998 222.067 217.709 233.583 220.889 235.093C217.418 241.146 213.859 247.491 210.22 254.117C210.624 247.111 209.704 234.343 207.148 230.109V230.116C205.46 227.319 202.593 225.234 199.179 224.32C195.765 223.406 192.084 223.738 188.944 225.243C185.805 226.747 183.465 229.301 182.439 232.343C181.413 235.385 181.785 238.665 183.474 241.462C186.562 246.572 202.641 256.78 207.776 258.586C204.182 265.187 200.513 272.055 196.773 279.179C197.212 272.227 196.3 259.215 193.715 254.935V254.943C192.887 253.545 191.756 252.308 190.389 251.302C189.021 250.296 187.444 249.541 185.747 249.08C184.05 248.62 182.268 248.463 180.503 248.619C178.738 248.775 177.026 249.241 175.464 249.989C173.902 250.738 172.521 251.755 171.403 252.981C170.284 254.207 169.448 255.618 168.944 257.133C168.441 258.648 168.278 260.237 168.467 261.809C168.655 263.38 169.191 264.902 170.043 266.288C173.169 271.457 189.601 281.852 194.527 283.474C190.036 292.089 185.448 301.065 180.774 310.385C180.703 310.526 180.699 310.685 180.761 310.829C180.822 310.973 180.946 311.089 181.104 311.151C181.144 311.166 181.186 311.178 181.228 311.188C181.375 311.216 181.528 311.199 181.662 311.139C181.795 311.078 181.902 310.979 181.964 310.857C186.652 301.511 191.252 292.51 195.754 283.874C199.968 287.339 216.867 295.863 223.312 296.2V296.188C226.87 296.374 230.366 295.293 233.029 293.183C235.693 291.073 237.307 288.106 237.516 284.936C237.725 281.765 236.511 278.651 234.143 276.277C231.774 273.904 228.444 272.466 224.886 272.28C218.992 271.971 203.51 277.549 197.362 280.798C201.334 273.215 205.228 265.921 209.035 258.928C212.984 262.308 230.219 271.039 236.742 271.379V271.371C238.504 271.463 240.269 271.245 241.936 270.729C243.604 270.214 245.141 269.41 246.46 268.365C247.778 267.32 248.853 266.054 249.623 264.639C250.393 263.224 250.842 261.687 250.945 260.118C251.048 258.548 250.803 256.975 250.225 255.49C249.646 254.004 248.744 252.635 247.571 251.46C246.398 250.285 244.977 249.327 243.389 248.641C241.8 247.956 240.076 247.555 238.314 247.463C232.351 247.159 216.588 252.859 210.587 256.087C214.582 248.791 218.48 241.832 222.272 235.225C225.719 237.652 240.653 243.507 246.009 243.294C248.92 243.178 251.659 242.038 253.625 240.123C255.592 238.208 256.623 235.675 256.494 233.083C256.364 230.49 255.084 228.049 252.935 226.297C250.785 224.545 247.943 223.626 245.033 223.741C240.34 223.928 228.791 229.333 223.854 232.478C227.954 225.386 231.926 218.714 235.76 212.481C238.998 215.013 250.452 220.817 254.886 221.068C256.124 221.138 257.365 220.99 258.539 220.633C259.712 220.276 260.795 219.716 261.726 218.986C262.657 218.256 263.417 217.369 263.964 216.377C264.51 215.385 264.832 214.307 264.911 213.204C264.989 212.101 264.823 210.996 264.423 209.95C264.022 208.904 263.393 207.939 262.574 207.11C261.754 206.28 260.759 205.603 259.646 205.116C258.532 204.629 257.322 204.343 256.085 204.273C252.149 204.049 242.104 207.541 237.399 209.83C241.26 203.614 244.976 197.856 248.534 192.577C251.258 194.484 258.617 198.138 261.567 198.305L261.569 198.293C263.285 198.328 264.949 197.77 266.214 196.737C267.479 195.703 268.246 194.274 268.355 192.748C268.464 191.223 267.906 189.718 266.799 188.55C265.691 187.382 264.12 186.641 262.413 186.482C259.919 186.338 253.946 188.315 250.361 189.887C253.784 184.89 257.054 180.354 260.16 176.297C261.811 177.857 270.489 182.338 273.735 182.522C275.457 182.604 277.145 182.077 278.433 181.056C279.722 180.035 280.506 178.603 280.615 177.07C280.725 175.537 280.151 174.027 279.018 172.869C277.885 171.711 276.285 170.998 274.566 170.885C271.715 170.723 264.241 173.375 261.201 174.947C264.963 170.104 268.476 165.986 271.718 162.626Z" fill="#D0F0E6"/>
<g clip-path="url(#clip0_5053_5205)">
<path d="M105.586 243.518C101.844 244.09 98.568 240.972 98.9527 237.205L105.586 172.479L117.408 170.671L110.468 238.386C110.201 241.009 108.192 243.12 105.586 243.518Z" fill="#0A3F64"/>
<path d="M72.3289 261.988C67.8752 262.31 65.7908 256.528 66.8493 254.734C67.3688 252.865 93.3602 159.426 93.3602 159.426H105.189L77.8171 257.817C77.1324 260.282 74.8871 261.988 72.3289 261.988Z" fill="#0A3F64"/>
<path d="M175.971 261.988C179.74 261.988 182.47 258.395 181.459 254.763L154.94 159.426H143.111L170.481 257.819C171.168 260.282 173.413 261.988 175.971 261.988Z" fill="#0A3F64"/>
<path d="M213.516 128C202.727 25.8895 28.9072 11.81 37.3841 129.008C48.1758 231.114 221.995 245.194 213.516 128Z" fill="#F7A705"/>
<path d="M140.248 204.549C32.6157 206.82 -3.23933 44.0905 119.538 37.5323C227.167 35.2629 263.022 197.993 140.248 204.549Z" fill="#F9CE68"/>
<path d="M137.973 186.191C53.9996 187.963 26.0259 61.0045 121.815 55.8875C205.784 54.118 233.757 181.077 137.973 186.191Z" fill="white"/>
<path d="M135.694 167.836C75.3803 169.11 55.2901 77.9205 124.09 74.2446C184.402 72.973 204.494 164.162 135.694 167.836Z" fill="#F9CE68"/>
<path d="M133.418 149.481C96.7631 150.255 84.5521 94.8374 126.365 92.6028C163.018 91.8289 175.229 147.247 133.418 149.481Z" fill="white"/>
<path d="M140.524 120.98C141.558 135.134 120.547 133.432 119.258 121.102C118.223 106.949 139.235 108.649 140.524 120.98Z" fill="#F9CE68"/>
<path d="M159.329 92.1851L175.496 76.8296L172.003 63.2197L155.58 78.8208L159.329 92.1851Z" fill="#0A3F64"/>
<path d="M160.344 93.2522L176.511 77.8945L189.919 82.0834L173.498 97.6844L160.344 93.2522Z" fill="#0A3F64"/>
<path d="M177.166 78.592L174.84 76.1426L128.449 120.209L130.775 122.658L177.166 78.592Z" fill="#152E60"/>
</g>
<defs>
<clipPath id="clip0_5053_5205">
<rect width="180.492" height="224.493" fill="white" transform="translate(37.084 37.5078)"/>
</clipPath>
</defs>
</svg>
