<svg width="19" height="18" viewBox="0 0 19 18" fill="none" xmlns="http://www.w3.org/2000/svg">
<path d="M9.205 14.4C9.52 14.4 9.7864 14.2911 10.0042 14.0733C10.222 13.8555 10.3306 13.5894 10.33 13.275C10.33 12.96 10.2214 12.6936 10.0042 12.4758C9.787 12.258 9.5206 12.1494 9.205 12.15C8.89 12.15 8.6239 12.2589 8.4067 12.4767C8.1895 12.6945 8.0806 12.9606 8.08 13.275C8.08 13.59 8.1889 13.8564 8.4067 14.0742C8.6245 14.292 8.8906 14.4006 9.205 14.4ZM8.395 10.935H10.06C10.06 10.44 10.1164 10.05 10.2292 9.765C10.342 9.48 10.6606 9.09 11.185 8.595C11.575 8.205 11.8825 7.8336 12.1075 7.4808C12.3325 7.128 12.445 6.7044 12.445 6.21C12.445 5.37 12.1375 4.725 11.5225 4.275C10.9075 3.825 10.18 3.6 9.34 3.6C8.485 3.6 7.7914 3.825 7.2592 4.275C6.727 4.725 6.3556 5.265 6.145 5.895L7.63 6.48C7.705 6.21 7.8739 5.9175 8.1367 5.6025C8.3995 5.2875 8.8006 5.13 9.34 5.13C9.82 5.13 10.18 5.2614 10.42 5.5242C10.66 5.787 10.78 6.0756 10.78 6.39C10.78 6.69 10.69 6.9714 10.51 7.2342C10.33 7.497 10.105 7.7406 9.835 7.965C9.175 8.55 8.77 8.9925 8.62 9.2925C8.47 9.5925 8.395 10.14 8.395 10.935ZM9.25 18C8.005 18 6.835 17.7639 5.74 17.2917C4.645 16.8195 3.6925 16.1781 2.8825 15.3675C2.0725 14.5575 1.4314 13.605 0.9592 12.51C0.487 11.415 0.2506 10.245 0.25 9C0.25 7.755 0.4864 6.585 0.9592 5.49C1.432 4.395 2.0731 3.4425 2.8825 2.6325C3.6925 1.8225 4.645 1.1814 5.74 0.7092C6.835 0.237 8.005 0.0006 9.25 0C10.495 0 11.665 0.2364 12.76 0.7092C13.855 1.182 14.8075 1.8231 15.6175 2.6325C16.4275 3.4425 17.0689 4.395 17.5417 5.49C18.0145 6.585 18.2506 7.755 18.25 9C18.25 10.245 18.0136 11.415 17.5408 12.51C17.068 13.605 16.4269 14.5575 15.6175 15.3675C14.8075 16.1775 13.855 16.8189 12.76 17.2917C11.665 17.7645 10.495 18.0006 9.25 18Z" fill="white"/>
</svg>
