<svg width="70" height="70" viewBox="0 0 70 70" fill="none" xmlns="http://www.w3.org/2000/svg">
<path fill-rule="evenodd" clip-rule="evenodd" d="M66.6564 14.9428L63.7459 13.2081C51.1033 33.4749 33.6408 50.2971 12.9161 62.1742L2.73438 67.9962C2.56795 68.0923 2.37914 68.1429 2.18696 68.1428C1.99478 68.1427 1.80603 68.0919 1.63969 67.9957C1.47336 67.8994 1.33532 67.7611 1.23948 67.5945C1.14363 67.4279 1.09337 67.239 1.09375 67.0469V62.1458C1.09356 61.9536 1.14401 61.7648 1.24002 61.5983C1.33603 61.4318 1.4742 61.2936 1.64063 61.1975L9.14813 56.875C15.5396 53.1919 21.6333 49.0145 27.3733 44.3811L26.3058 44.1328C26.0605 44.0757 25.8424 43.9357 25.6883 43.7364C25.5343 43.5372 25.4538 43.2908 25.4603 43.039L25.6288 37.0715L23.66 31.7362C23.1049 31.5742 22.603 31.267 22.2061 30.8463C21.8093 30.4257 21.5319 29.9068 21.4025 29.3431L20.3941 22.89L17.8883 27.125C17.7448 27.3676 17.5132 27.5455 17.2418 27.6215C16.9703 27.6975 16.68 27.6658 16.4314 27.533L13.3798 25.9033C13.253 25.8356 13.1408 25.7436 13.0496 25.6325C12.9583 25.5215 12.8899 25.3935 12.8481 25.256C12.8064 25.1184 12.7921 24.974 12.8062 24.831C12.8204 24.6879 12.8625 24.5491 12.9303 24.4223L16.9663 16.8755C17.6355 15.6232 18.6934 14.6221 19.9806 14.023L20.09 13.9726C19.1145 13.885 18.1963 13.4742 17.4808 12.8053C16.7654 12.1365 16.2937 11.2479 16.1407 10.2805C15.9876 9.31314 16.1619 8.32236 16.636 7.46532C17.11 6.60828 17.8566 5.93404 18.7574 5.54954C19.6581 5.16504 20.6615 5.09229 21.6083 5.34284C22.5551 5.59338 23.3912 6.15287 23.9839 6.93258C24.5766 7.71228 24.892 8.66755 24.8801 9.64687C24.8682 10.6262 24.5296 11.5735 23.9181 12.3386C24.4922 12.2322 25.0818 12.2413 25.6523 12.3655C26.2229 12.4896 26.7629 12.7262 27.2409 13.0615L29.3748 14.5731L32.7502 10.1128C32.8461 9.98615 32.9685 9.88192 33.1088 9.80736C33.2491 9.7328 33.4039 9.6897 33.5626 9.68106C33.7212 9.67242 33.8798 9.69845 34.0274 9.75733C34.1749 9.81621 34.3079 9.90653 34.417 10.022L36.6702 12.4075C36.8277 12.5744 36.9287 12.7866 36.9589 13.0141C36.9892 13.2416 36.9471 13.4729 36.8386 13.6751L34.2136 18.574C33.6684 19.5975 32.7392 20.3627 31.6302 20.7014L29.0052 21.4911L28.9363 23.9433L31.9889 23.2772C32.7258 23.1102 33.4935 23.1391 34.2158 23.3609C34.938 23.5828 35.5896 23.9898 36.1058 24.5415L42.012 30.7694C48.0435 24.3322 53.4627 17.3477 58.1995 9.90608L55.3798 8.22608C55.2099 8.12471 55.0707 7.97913 54.9769 7.80487C54.8832 7.6306 54.8385 7.43418 54.8476 7.23651C54.8567 7.03885 54.9192 6.84735 55.0286 6.68243C55.1379 6.51751 55.2899 6.38533 55.4684 6.29998L66.1445 1.20311C66.307 1.12566 66.4861 1.08951 66.6659 1.09786C66.8457 1.10621 67.0207 1.15881 67.1753 1.25098C67.3299 1.34316 67.4593 1.47207 67.5522 1.62628C67.645 1.78048 67.6984 1.95522 67.7075 2.13498L68.3091 13.9475C68.3192 14.1453 68.2754 14.3421 68.1824 14.517C68.0894 14.6919 67.9507 14.8383 67.781 14.9404C67.6114 15.0426 67.4171 15.0968 67.219 15.0972C67.021 15.0976 66.8265 15.0443 66.6564 14.9428ZM18.3436 10.0236C18.4185 10.4443 18.615 10.8339 18.9088 11.1442H18.9142C19.1616 11.4053 19.4696 11.6013 19.8108 11.7149C20.152 11.8285 20.516 11.8563 20.8705 11.7957C21.2251 11.7351 21.5592 11.588 21.8433 11.3675C22.1274 11.1469 22.3527 10.8598 22.4994 10.5313C22.646 10.2029 22.7094 9.84344 22.684 9.48469C22.6585 9.12593 22.545 8.77898 22.3535 8.47456C22.162 8.17014 21.8983 7.91764 21.5859 7.73942C21.2735 7.5612 20.922 7.46275 20.5625 7.4528H20.4947C20.0674 7.4533 19.6495 7.57896 19.2928 7.81426C18.9361 8.04955 18.6561 8.38417 18.4874 8.7768C18.3187 9.16943 18.2687 9.60287 18.3436 10.0236ZM24.5175 29.6811C24.6505 29.6939 24.7847 29.6802 24.9123 29.6406L32.0458 27.4969C32.2304 27.4407 32.4266 27.4344 32.6145 27.4786C32.8024 27.5227 32.9752 27.6158 33.1155 27.7484L39.3083 33.6011C39.5824 33.324 39.8524 33.0424 40.1226 32.7607L40.1229 32.7604L40.1232 32.76L40.1246 32.7586L40.1251 32.7581C40.2519 32.6259 40.3787 32.4937 40.5059 32.3619L34.5133 26.0487C34.2576 25.7741 33.9344 25.5714 33.5759 25.4608C33.2173 25.3503 32.8361 25.3358 32.4702 25.4187L28.0361 26.3856C27.8738 26.4211 27.7055 26.4191 27.5441 26.3798C27.3827 26.3405 27.2323 26.265 27.1044 26.1589C26.9766 26.0529 26.8745 25.9191 26.8061 25.7677C26.7376 25.6163 26.7046 25.4514 26.7094 25.2853L26.8417 20.6489C26.8482 20.4195 26.9267 20.1979 27.066 20.0155C27.2054 19.8332 27.3986 19.6993 27.6183 19.6328L30.998 18.6156C31.2714 18.5317 31.5257 18.3947 31.7462 18.2125C31.9667 18.0302 32.1492 17.8063 32.2831 17.5536L34.5384 13.3437L33.7148 12.4687L30.4784 16.742C30.3071 16.9685 30.0543 17.1195 29.7736 17.1629C29.493 17.2064 29.2064 17.139 28.9745 16.975L25.9777 14.852C25.662 14.631 25.2939 14.4966 24.91 14.4622C24.5262 14.4279 24.1401 14.4948 23.7902 14.6562L20.8906 16.0081C20.0362 16.4067 19.3342 17.0718 18.8902 17.9036L15.3716 24.4836L16.5342 25.1048L20.0583 19.1483C20.1729 18.9542 20.3446 18.8004 20.55 18.7076C20.7554 18.6149 20.9844 18.5879 21.2057 18.6303C21.427 18.6726 21.6298 18.7823 21.7864 18.9444C21.9431 19.1064 22.0458 19.3128 22.0806 19.5355L23.5463 28.9319C23.6072 29.1439 23.7343 29.3309 23.909 29.4657C24.0837 29.6005 24.2969 29.6759 24.5175 29.6811ZM30.625 30.205L32.4275 35.0864V35.0908C32.489 35.2509 32.5114 35.4234 32.4931 35.5939L31.908 40.554C33.9103 38.7989 35.8593 36.9899 37.7552 35.1269L32.0797 29.7675L30.625 30.205ZM28.5217 30.835L25.9427 31.6137L27.7473 36.5105C27.7956 36.6413 27.8183 36.7801 27.8141 36.9195L27.6642 42.2045L29.4569 42.619L30.2838 35.5983L28.5217 30.835ZM3.28125 65.1612L11.8256 60.27V60.2744C32.5507 48.4009 49.9587 31.5084 62.4498 11.1497C62.6001 10.9044 62.8409 10.7282 63.1201 10.6592C63.3994 10.5902 63.6945 10.634 63.9417 10.7811L66.0199 12.0203L65.6064 3.88498L58.2553 7.39592L60.282 8.59905C60.4072 8.67349 60.5162 8.77217 60.6027 8.8893C60.6892 9.00643 60.7514 9.13966 60.7858 9.28116C60.8201 9.42266 60.8258 9.56959 60.8026 9.71334C60.7794 9.85709 60.7277 9.99475 60.6506 10.1183C48.0837 30.2201 30.7733 46.9288 10.2397 58.777L3.28125 62.7812V65.1612ZM66.3984 29.8516C66.6035 30.0567 66.7188 30.3349 66.7188 30.625V66.7188H68.9062V68.9062H22.9688V66.7188H25.1562V59.0625C25.1562 58.7724 25.2715 58.4942 25.4766 58.2891C25.6817 58.084 25.9599 57.9688 26.25 57.9688H35C35.2901 57.9688 35.5683 58.084 35.7734 58.2891C35.9785 58.4942 36.0938 58.7724 36.0938 59.0625V66.7188H40.4688V47.0312C40.4688 46.7412 40.584 46.463 40.7891 46.2579C40.9942 46.0527 41.2724 45.9375 41.5625 45.9375H50.3125C50.6026 45.9375 50.8808 46.0527 51.0859 46.2579C51.291 46.463 51.4062 46.7412 51.4062 47.0312V66.7188H55.7812V30.625C55.7812 30.3349 55.8965 30.0567 56.1016 29.8516C56.3067 29.6465 56.5849 29.5312 56.875 29.5312H65.625C65.9151 29.5312 66.1933 29.6465 66.3984 29.8516ZM27.3438 66.7188H33.9062V60.1562H27.3438V66.7188ZM42.6562 66.7188H49.2188V48.125H42.6562V66.7188ZM57.9688 66.7188H64.5312V31.7188H57.9688V66.7188ZM5.05469 36.2856L11.4072 30.2744L12.9107 31.8633L6.55825 37.8746L5.05469 36.2856ZM18.3006 32.7851L12.7422 38.0449L14.2458 39.6338L19.8042 34.374L18.3006 32.7851Z" fill="#ffffff"/>
</svg>
