<svg width="30" height="74" viewBox="0 0 30 74" fill="none" xmlns="http://www.w3.org/2000/svg">
<path d="M5.998 65.294C5.858 65.798 5.718 66.274 5.578 66.722H13.026C12.97 70.25 12.746 72.238 12.354 72.686C11.962 73.134 11.122 73.372 9.848 73.372H8.672L8.252 72.014C8.84 72.042 9.4 72.056 9.904 72.056C10.548 72.056 10.968 71.93 11.192 71.692C11.388 71.44 11.514 70.222 11.556 68.066H3.744C4.36 66.022 4.822 64.23 5.116 62.676L6.558 62.816C6.474 63.208 6.404 63.572 6.32 63.922H11.822V65.294H5.998ZM1.952 69.284H10.408V70.684H1.952V69.284ZM13.782 60.968V64.258H12.34V62.34H3.66V64.244H2.218V60.968H13.782ZM21.692 63.754C21.048 65.098 20.334 66.246 19.55 67.198L18.5 65.938C19.62 64.622 20.6 62.774 21.44 60.366L22.924 60.702C22.728 61.262 22.532 61.794 22.336 62.312H27.978V63.754H23.582V65.616H27.446V67.044H23.582V68.962H27.446V70.376H23.582V73.498H22.098V63.754H21.692ZM16.792 66.176C16.414 66.624 16.022 67.058 15.602 67.478L15.112 65.91C16.526 64.356 17.576 62.522 18.262 60.422L19.648 61.066C19.298 62.116 18.836 63.124 18.276 64.076V73.498H16.792V66.176Z" fill="#3A9DBC"/>
<path d="M7.2 18.399L9.8 20.999L15.65 15.149M9.8 9.29902V5.65902C9.8 4.20289 9.8 3.47482 10.0834 2.91865C10.3327 2.42943 10.7304 2.03168 11.2196 1.78241C11.7758 1.49902 12.5039 1.49902 13.96 1.49902H23.84C25.2961 1.49902 26.0242 1.49902 26.5804 1.78241C27.0696 2.03168 27.4673 2.42943 27.7166 2.91865C28 3.47482 28 4.20289 28 5.65902V15.539C28 16.9952 28 17.7232 27.7166 18.2794C27.4673 18.7686 27.0696 19.1664 26.5804 19.4156C26.0242 19.699 25.2961 19.699 23.84 19.699H20.2M6.16 27.499H16.04C17.4961 27.499 18.2242 27.499 18.7804 27.2156C19.2696 26.9664 19.6673 26.5686 19.9166 26.0794C20.2 25.5232 20.2 24.7952 20.2 23.339V13.459C20.2 12.0029 20.2 11.2748 19.9166 10.7186C19.6673 10.2294 19.2696 9.83168 18.7804 9.58241C18.2242 9.29902 17.4961 9.29902 16.04 9.29902H6.16C4.70386 9.29902 3.9758 9.29902 3.41962 9.58241C2.9304 9.83168 2.53265 10.2294 2.28338 10.7186C2 11.2748 2 12.0029 2 13.459V23.339C2 24.7952 2 25.5232 2.28338 26.0794C2.53265 26.5686 2.9304 26.9664 3.41962 27.2156C3.9758 27.499 4.70386 27.499 6.16 27.499Z" stroke="#3A9DBC" stroke-width="2.2" stroke-linecap="round" stroke-linejoin="round"/>
</svg>
