<svg width="30" height="80" viewBox="0 0 30 80" fill="none" xmlns="http://www.w3.org/2000/svg">
<path d="M13.362 66.576L14.09 67.878C12.55 68.382 10.856 68.69 8.98 68.802V70.888H14.398V72.274H12.424V79.498H10.982V72.274H8.98V72.624C8.882 75.466 8.084 77.734 6.6 79.428L5.55 78.336C6.796 76.964 7.468 75.06 7.566 72.624V67.556C9.736 67.5 11.668 67.178 13.362 66.576ZM6.264 67.57V76.46H3.506V77.356H2.05V67.57H6.264ZM3.506 75.088H4.836V68.942H3.506V75.088ZM20.334 66.534H21.818V68.06C21.804 68.452 21.79 68.844 21.762 69.208H27.082C27.026 71.7 26.942 73.702 26.802 75.228C26.662 76.74 26.41 77.804 26.074 78.42C25.738 78.994 25.206 79.302 24.464 79.358H22.476L22.084 77.944C22.672 77.972 23.218 78 23.75 78C24.464 78 24.926 77.538 25.15 76.642C25.374 75.704 25.528 73.702 25.598 70.636H21.636C21.412 72.568 20.992 74.192 20.39 75.494C19.55 77.216 18.192 78.546 16.316 79.47L15.532 78.224C17.38 77.216 18.626 75.956 19.27 74.43C19.69 73.366 19.984 72.092 20.152 70.636H16.288V69.208H20.278C20.306 68.83 20.32 68.452 20.334 68.06V66.534Z" fill="#2CAB9A"/>
<path d="M28 23.6667V15C28 7.8203 22.1797 2 15 2C7.8203 2 2 7.8203 2 15V23.6667M5.61111 28C3.61675 28 2 26.3832 2 24.3889V21.5C2 19.5056 3.61675 17.8889 5.61111 17.8889C7.60547 17.8889 9.22222 19.5056 9.22222 21.5V24.3889C9.22222 26.3832 7.60547 28 5.61111 28ZM24.3889 28C22.3945 28 20.7778 26.3832 20.7778 24.3889V21.5C20.7778 19.5056 22.3945 17.8889 24.3889 17.8889C26.3832 17.8889 28 19.5056 28 21.5V24.3889C28 26.3832 26.3832 28 24.3889 28Z" stroke="#2CAB9A" stroke-width="2.2" stroke-linecap="round" stroke-linejoin="round"/>
</svg>
