<svg width="33" height="80" viewBox="0 0 33 80" fill="none" xmlns="http://www.w3.org/2000/svg">
<path d="M16.5 28L16.3549 27.7832C15.3477 26.2782 14.8441 25.5256 14.1787 24.9808C13.5896 24.4986 12.9109 24.1367 12.1813 23.916C11.3572 23.6667 10.4493 23.6667 8.63349 23.6667H6.64C5.01585 23.6667 4.20377 23.6667 3.58343 23.3518C3.03776 23.0748 2.59411 22.6329 2.31608 22.0893C2 21.4713 2 20.6624 2 19.0444V6.62222C2 5.00429 2 4.19533 2.31608 3.57736C2.59411 3.03378 3.03776 2.59184 3.58343 2.31487C4.20377 2 5.01585 2 6.64 2H7.22C10.4683 2 12.0925 2 13.3331 2.62974C14.4245 3.18368 15.3118 4.06756 15.8678 5.15472C16.5 6.39066 16.5 8.00859 16.5 11.2444M16.5 28V11.2444M16.5 28L16.6451 27.7832C17.6523 26.2782 18.1559 25.5256 18.8213 24.9808C19.4104 24.4986 20.0891 24.1367 20.8187 23.916C21.6428 23.6667 22.5507 23.6667 24.3665 23.6667H26.36C27.9842 23.6667 28.7962 23.6667 29.4166 23.3518C29.9622 23.0748 30.4059 22.6329 30.6839 22.0893C31 21.4713 31 20.6624 31 19.0444V6.62222C31 5.00429 31 4.19533 30.6839 3.57736C30.4059 3.03378 29.9622 2.59184 29.4166 2.31487C28.7962 2 27.9842 2 26.36 2H25.78C22.5317 2 20.9075 2 19.6669 2.62974C18.5755 3.18368 17.6882 4.06756 17.1322 5.15472C16.5 6.39066 16.5 8.00859 16.5 11.2444" stroke="#F7A705" stroke-width="2.2" stroke-linecap="round" stroke-linejoin="round"/>
<path d="M11.354 79.372H10.514L10.248 78.322C10.024 78.462 9.702 78.546 9.296 78.546H8.4C7.644 78.546 7.266 78.098 7.266 77.23V75.312H6.51C6.314 76.936 5.362 78.112 3.654 78.854L2.898 77.65C4.284 77.174 5.068 76.404 5.264 75.312H3.99V71.266H5.516C5.194 70.664 4.844 70.132 4.48 69.656L5.698 69.068C6.062 69.572 6.398 70.146 6.734 70.762L5.726 71.266H7.294C7.658 70.524 7.98 69.74 8.26 68.914L9.632 69.404C9.352 70.09 9.03 70.706 8.694 71.266H9.926V75.312H8.54V76.95C8.54 77.16 8.624 77.272 8.806 77.272H9.058C9.212 77.272 9.324 77.202 9.408 77.09C9.506 76.978 9.576 76.628 9.618 76.04L10.85 76.432C10.78 77.202 10.668 77.734 10.514 78.042L11.06 78.07C11.298 78.07 11.424 77.874 11.424 77.482V68.354H6.216V67.01H12.852V77.902C12.852 78.882 12.348 79.372 11.354 79.372ZM8.596 74.136V72.442H5.306V74.136H8.596ZM1.106 68.83H2.534V79.47H1.106V68.83ZM3.64 66.366C4.2 67.038 4.69 67.766 5.11 68.578L3.808 69.25C3.36 68.382 2.856 67.626 2.31 66.954L3.64 66.366ZM19.208 67.262H22.246V66.366H23.674V67.262H26.698V68.578H23.674V69.432H26.964V70.342C26.726 71.238 26.418 72.12 26.04 73.002L24.612 72.596C24.92 72.064 25.172 71.462 25.396 70.776H18.634V69.432H22.246V68.578H19.208V67.262ZM18.662 74.472H20.524C19.936 73.968 19.334 73.576 18.718 73.268L19.404 72.26C20.16 72.61 20.86 73.044 21.49 73.562L20.888 74.472H22.526L22.61 73.744V71.084H24.024V73.744C24.01 73.996 23.982 74.234 23.954 74.472H27.174V75.816H23.674C23.646 75.914 23.604 76.012 23.576 76.096C24.92 76.712 26.166 77.454 27.314 78.294L26.488 79.568C25.354 78.602 24.192 77.818 23.016 77.202L22.792 77.51C22.064 78.392 20.874 79.078 19.25 79.554L18.466 78.322C20.062 77.86 21.126 77.286 21.686 76.6C21.854 76.348 22.008 76.096 22.148 75.816H18.662V74.472ZM20.594 70.846C21.294 71.182 21.938 71.574 22.526 72.05L21.84 73.1C21.224 72.54 20.58 72.106 19.936 71.798L20.594 70.846ZM16.212 66.604C17.094 67.276 17.85 67.962 18.466 68.634L17.472 69.642C16.94 68.998 16.17 68.326 15.19 67.598L16.212 66.604ZM14.224 70.636H17.486V76.236C17.738 75.97 17.99 75.69 18.27 75.396L18.676 76.922C17.906 77.734 17.094 78.448 16.254 79.078L15.694 77.762C15.932 77.552 16.058 77.3 16.058 77.006V72.036H14.224V70.636Z" fill="#F7A705"/>
</svg>
