<svg width="30" height="75" viewBox="0 0 30 75" fill="none" xmlns="http://www.w3.org/2000/svg">
<path d="M7.29482 13.9974C7.21444 13.4767 7.17274 12.9432 7.17274 12.4C7.17274 6.65624 11.8351 2 17.5864 2C23.3377 2 28 6.65624 28 12.4C28 13.6975 27.7621 14.9395 27.3274 16.0849C27.2372 16.3227 27.192 16.4417 27.1715 16.5345C27.1512 16.6265 27.1434 16.6913 27.1412 16.7855C27.139 16.8806 27.1518 16.9853 27.1775 17.1948L27.6981 21.4461C27.7544 21.9063 27.7826 22.1364 27.7065 22.3037C27.6397 22.4503 27.5212 22.5667 27.3739 22.6304C27.2058 22.703 26.9776 22.6694 26.5212 22.6022L22.402 21.9952C22.187 21.9635 22.0794 21.9476 21.9815 21.9482C21.8846 21.9488 21.8176 21.956 21.7227 21.976C21.6269 21.9962 21.5044 22.0423 21.2595 22.1346C20.1173 22.5647 18.8793 22.8 17.5864 22.8C17.0456 22.8 16.5144 22.7588 15.9958 22.6795M9.28274 28C13.1169 28 16.2252 24.7988 16.2252 20.85C16.2252 16.9012 13.1169 13.7 9.28274 13.7C5.44854 13.7 2.34031 16.9012 2.34031 20.85C2.34031 21.6438 2.46591 22.4073 2.69774 23.1207C2.79574 23.4223 2.84474 23.5731 2.86082 23.6761C2.87761 23.7837 2.88056 23.8441 2.8743 23.9527C2.86831 24.0568 2.84241 24.1745 2.79059 24.4098L2 28L5.87287 27.4683C6.08426 27.4393 6.18995 27.4248 6.28225 27.4254C6.37943 27.4261 6.43102 27.4313 6.52633 27.4505C6.61684 27.4686 6.75141 27.5163 7.02054 27.6118C7.72962 27.8634 8.49069 28 9.28274 28Z" stroke="#2354C8" stroke-width="2.2" stroke-linecap="round" stroke-linejoin="round"/>
<path d="M13.292 63.032V74.232H11.808V73.476H4.192V74.232H2.722V63.032H13.292ZM4.192 72.048H11.808V64.46H4.192V72.048ZM20.026 61.968H27.796V63.312H24.002L23.764 64.418H27.026V67.092H28.258V68.45H19.69V67.092H21.734L22.028 65.734H20.362V64.418H22.308L22.546 63.312H20.026V61.968ZM23.19 67.092H25.57V65.734H23.484L23.19 67.092ZM27.39 69.43V74.498H25.948V73.938H22.084V74.498H20.642V69.43H27.39ZM22.084 72.566H25.948V70.76H22.084V72.566ZM17.212 61.604C18.094 62.276 18.85 62.962 19.466 63.634L18.472 64.642C17.94 63.998 17.17 63.326 16.19 62.598L17.212 61.604ZM15.224 65.636H18.556V71.39C18.906 71.068 19.284 70.704 19.676 70.312L20.082 71.852C19.214 72.678 18.304 73.42 17.338 74.078L16.778 72.762C17.016 72.552 17.142 72.3 17.142 72.006V67.036H15.224V65.636Z" fill="#2354C8"/>
</svg>
