<svg xmlns="http://www.w3.org/2000/svg" width="17" height="17" viewBox="0 0 17 17" fill="none">
  <path
    d="M11.7279 3.50652L13.4921 5.27069M12.8621 1.95236L8.08957 6.72486C7.84298 6.9711 7.6748 7.28484 7.60624 7.62652L7.16541 9.83319L9.37207 9.39152C9.71374 9.32319 10.0271 9.15569 10.2737 8.90902L15.0462 4.13652C15.1897 3.99311 15.3034 3.82285 15.381 3.63547C15.4586 3.44809 15.4986 3.24726 15.4986 3.04444C15.4986 2.84162 15.4586 2.64079 15.381 2.45341C15.3034 2.26603 15.1897 2.09577 15.0462 1.95236C14.9028 1.80894 14.7326 1.69518 14.5452 1.61756C14.3578 1.53995 14.157 1.5 13.9542 1.5C13.7513 1.5 13.5505 1.53995 13.3631 1.61756C13.1757 1.69518 13.0055 1.80894 12.8621 1.95236Z"
    stroke="#475467" stroke-width="2" stroke-linecap="round" stroke-linejoin="round" />
  <path
    d="M13.832 11.4998V13.9998C13.832 14.4419 13.6564 14.8658 13.3439 15.1783C13.0313 15.4909 12.6074 15.6665 12.1654 15.6665H2.9987C2.55667 15.6665 2.13275 15.4909 1.82019 15.1783C1.50763 14.8658 1.33203 14.4419 1.33203 13.9998V4.83317C1.33203 4.39114 1.50763 3.96722 1.82019 3.65466C2.13275 3.3421 2.55667 3.1665 2.9987 3.1665H5.4987"
    stroke="#475467" stroke-width="2" stroke-linecap="round" stroke-linejoin="round" />
</svg>