<svg width="14" height="18" viewBox="0 0 14 18" fill="none" xmlns="http://www.w3.org/2000/svg">
<path fill-rule="evenodd" clip-rule="evenodd" d="M7 3.9375C7.29837 3.9375 7.58452 3.81897 7.7955 3.608C8.00647 3.39702 8.125 3.11087 8.125 2.8125C8.125 2.51413 8.00647 2.22798 7.7955 2.017C7.58452 1.80603 7.29837 1.6875 7 1.6875C6.70163 1.6875 6.41548 1.80603 6.2045 2.017C5.99353 2.22798 5.875 2.51413 5.875 2.8125C5.875 3.11087 5.99353 3.39702 6.2045 3.608C6.41548 3.81897 6.70163 3.9375 7 3.9375ZM7 5.86284e-08C7.64837 -0.000132272 8.27687 0.223753 8.77913 0.633765C9.2814 1.04378 9.62658 1.61473 9.75625 2.25H12.625C12.9234 2.25 13.2095 2.36853 13.4205 2.5795C13.6315 2.79048 13.75 3.07663 13.75 3.375V16.875C13.75 17.1734 13.6315 17.4595 13.4205 17.6705C13.2095 17.8815 12.9234 18 12.625 18H1.375C1.07663 18 0.790483 17.8815 0.579505 17.6705C0.368526 17.4595 0.25 17.1734 0.25 16.875V3.375C0.25 3.07663 0.368526 2.79048 0.579505 2.5795C0.790483 2.36853 1.07663 2.25 1.375 2.25H4.24375C4.37342 1.61473 4.7186 1.04378 5.22087 0.633765C5.72313 0.223753 6.35163 -0.000132272 7 5.86284e-08ZM5.875 5.625H9.8125V3.9375H12.0625V16.3125H1.9375V3.9375H4.1875V5.625H5.875ZM9.84625 9.315C9.92915 9.23775 9.99564 9.1446 10.0418 9.04111C10.0879 8.93761 10.1127 8.82588 10.1147 8.71259C10.1167 8.5993 10.0958 8.48676 10.0534 8.3817C10.011 8.27664 9.94779 8.1812 9.86767 8.10108C9.78755 8.02096 9.69211 7.9578 9.58705 7.91536C9.48199 7.87293 9.36945 7.85209 9.25616 7.85408C9.14287 7.85608 9.03114 7.88088 8.92764 7.927C8.82415 7.97311 8.731 8.0396 8.65375 8.1225L6.4375 10.3387L5.90875 9.81C5.7488 9.66096 5.53725 9.57982 5.31866 9.58368C5.10007 9.58753 4.89151 9.67609 4.73693 9.83068C4.58234 9.98527 4.49378 10.1938 4.48993 10.4124C4.48607 10.631 4.56721 10.8426 4.71625 11.0025L5.84125 12.1275C5.99945 12.2855 6.21391 12.3743 6.4375 12.3743C6.66109 12.3743 6.87555 12.2855 7.03375 12.1275L9.84625 9.315Z" fill="white"/>
</svg>
