<svg width="44" height="54" viewBox="0 0 44 54" fill="none" xmlns="http://www.w3.org/2000/svg">
<path d="M41.8333 47.8457H41.5547L43.6432 33.3041C43.7794 32.356 43.5176 31.4725 42.8862 30.7493C42.2548 30.0259 41.4117 29.6435 40.448 29.6435H38.986C37.3984 26.7651 35.0952 24.3277 32.2904 22.5666C30.7647 21.6084 29.1232 20.8746 27.4131 20.3764C30.728 18.4989 32.9698 14.9563 32.9698 10.901C32.9698 4.8901 28.0487 0 21.9999 0C15.9512 0 11.0302 4.89024 11.0302 10.901C11.0302 14.9563 13.2718 18.4989 16.5868 20.3764C14.8765 20.8745 13.2351 21.6084 11.7093 22.5665C8.90447 24.3277 6.60136 26.7651 5.01371 29.6435H3.55184C2.58827 29.6435 1.74537 30.0257 1.11354 30.7493C0.482406 31.4727 0.220607 32.3559 0.356483 33.3041L2.4452 47.8457H2.16654C0.972 47.8457 0 48.8114 0 49.9987V51.8469C0 53.0342 0.972 54 2.16668 54H41.8333C43.028 54 44 53.0342 44 51.8469V49.9987C43.9999 48.8114 43.0279 47.8457 41.8333 47.8457ZM13.2418 10.901C13.2418 6.10201 17.1708 2.19774 21.9999 2.19774C26.8292 2.19774 30.7582 6.10201 30.7582 10.901C30.7582 15.7001 26.8292 19.6042 21.9999 19.6042C17.1708 19.6043 13.2418 15.7001 13.2418 10.901ZM21.9999 21.8021C27.8941 21.8021 33.2665 24.7649 36.4168 29.6436H7.5829C10.7332 24.7649 16.1057 21.8021 21.9999 21.8021ZM2.54611 32.9936C2.50146 32.6822 2.57721 32.4268 2.78441 32.1894C2.99175 31.9519 3.23571 31.8413 3.55197 31.8413H40.4482C40.7644 31.8413 41.0083 31.9519 41.2156 32.1894C41.4229 32.4269 41.4987 32.6824 41.4539 32.9935L39.3207 47.8457H4.67948L2.54611 32.9936ZM41.7883 51.8023H2.2116V50.0434H41.7883V51.8023ZM21.9999 35.7225C19.771 35.7225 17.9577 37.5245 17.9577 39.7394C17.9577 41.9543 19.771 43.7564 21.9999 43.7564C24.2288 43.7564 26.0422 41.9543 26.0422 39.7394C26.0422 37.5245 24.2288 35.7225 21.9999 35.7225ZM21.9999 41.5588C20.9905 41.5588 20.1693 40.7427 20.1693 39.7396C20.1693 38.7365 20.9905 37.9204 21.9999 37.9204C23.0094 37.9204 23.8306 38.7365 23.8306 39.7396C23.8306 40.7427 23.0094 41.5588 21.9999 41.5588Z" fill="#1B8B8C"/>
</svg>
