<svg width="1" height="1" viewBox="0 0 44 54" fill="none" xmlns="http://www.w3.org/2000/svg">
  <path d="M41.2 47.2H41L43 33C43.1 32 42.9 31.1 42.3 30.4C41.7 29.7 40.9 29.3 40 29.3H38.7C37.1 26.5 34.9 24.3 32.2 22.6C30.7 21.6 29.1 20.9 27.4 20.4C30.7 18.5 32.9 15 32.9 10.9C32.9 4.9 28 0 22 0C16 0 11.1 4.9 11.1 10.9C11.1 15 13.3 18.5 16.6 20.4C14.9 20.9 13.2 21.6 11.7 22.6C8.9 24.3 6.7 26.5 5.1 29.3H3.6C2.6 29.3 1.7 29.7 1.1 30.4C0.5 31.1 0.2 32 0.4 33L2.4 47.2H2.2C1 47.2 0 48.2 0 50V51.8C0 53 1 54 2.2 54H41.8C43 54 44 53 44 51.8V50C44 48.8 43 47.8 41.8 47.8ZM13.2 10.9C13.2 6.1 17.1 2.2 22 2.2C26.8 2.2 30.8 6.1 30.8 10.9C30.8 15.7 26.8 19.6 22 19.6C17.1 19.6 13.2 15.7 13.2 10.9ZM22 21.8C28 21.8 33.3 24.8 36.4 29.6H7.6C10.7 24.8 16.1 21.8 22 21.8ZM2.5 33C2.5 32.7 2.6 32.4 2.8 32.2C3 31.9 3.2 31.8 3.6 31.8H40.4C40.8 31.8 41 31.9 41.2 32.2C41.4 32.4 41.5 32.7 41.5 33L39.3 47.2H4.7L2.5 33ZM41.8 51.8H2.2V50H41.8V51.8ZM22 35.7C19.8 35.7 17.9 37.5 17.9 39.7C17.9 42 19.8 43.8 22 43.8C24.2 43.8 26.1 42 26.1 39.7C26.1 37.5 24.2 35.7 22 35.7ZM22 41.6C21 41.6 20.2 40.7 20.2 39.7C20.2 38.7 21 37.9 22 37.9C23 37.9 23.8 38.7 23.8 39.7C23.8 40.7 23 41.6 22 41.6Z" fill="#1B8B8C"/>
</svg>
