<svg width="70" height="70" viewBox="0 0 70 70" fill="none" xmlns="http://www.w3.org/2000/svg">
<g clip-path="url(#clip0_3280_49944)">
<mask id="mask0_3280_49944" style="mask-type:luminance" maskUnits="userSpaceOnUse" x="0" y="0" width="70" height="70">
<path d="M0 7.62939e-06H70V70H0V7.62939e-06Z" fill="white"/>
</mask>
<g mask="url(#mask0_3280_49944)">
<path d="M15.9003 35.27C15.6754 33.9673 16.1355 32.6405 17.1186 31.7566L39.252 11.8572C40.5799 10.6018 41.3059 8.83734 41.246 7.01092L41.1667 4.59059C41.1286 3.42971 40.1964 2.49742 39.0355 2.45941L36.6152 2.38012C34.7886 2.32024 33.0243 3.04621 31.7688 4.37402L11.8695 26.5074C10.9856 27.4906 9.65877 27.9506 8.35598 27.7259L5.01061 27.1485L1.36719 30.7919L9.64592 33.9801L12.8341 42.2588L16.4776 38.6155L15.9003 35.27Z" stroke="white" stroke-width="2.5" stroke-miterlimit="10" stroke-linecap="round" stroke-linejoin="round"/>
<path d="M20.5197 16.8887L5.90039 6.72186L9.22443 3.39809L26.9027 9.7901L20.5197 16.8887Z" stroke="#ffffff" stroke-width="2.5" stroke-miterlimit="10" stroke-linecap="round" stroke-linejoin="round"/>
<path d="M39.7112 33.8861L36.3873 37.21L26.7773 23.0711L33.8354 16.7288L39.7112 33.8861Z" stroke="#ffffff" stroke-width="2.5" stroke-miterlimit="10" stroke-linecap="round" stroke-linejoin="round"/>
<path d="M67.962 33.56C65.1773 21.0522 54.0162 11.7016 40.6703 11.7016C40.2383 11.7016 39.8075 11.7111 39.3795 11.7316C39.3373 11.774 39.2948 11.8164 39.251 11.8574L17.118 31.7559C16.1352 32.6398 15.675 33.9665 15.8996 35.269L16.4768 38.6156L12.833 42.2582L12.8262 42.2404C14.1262 56.4742 26.096 67.625 40.6703 67.625C54.102 67.625 65.3206 58.1529 68.0146 45.5247" stroke="white" stroke-width="2.5" stroke-miterlimit="10" stroke-linecap="round" stroke-linejoin="round"/>
<path d="M67.9642 33.5594C66.7709 28.1993 64.0417 23.4188 60.259 19.707H52.7366C51.0182 19.707 49.6249 21.1003 49.6249 22.8201V24.4689C49.6249 26.1876 51.0182 27.5808 52.7366 27.5808C53.8223 27.5808 54.8066 28.0209 55.5176 28.7332C56.2297 29.4441 56.6701 30.4271 56.6701 31.5142V36.7437C56.6701 38.6125 55.9277 40.4049 54.607 41.7256L46.896 49.4365C46.1837 50.1488 45.7832 51.1141 45.7832 52.1218V56.2355C45.7832 57.2432 46.1837 58.2085 46.896 58.9207L52.8254 64.8516C60.4847 61.1502 66.1975 54.058 68.0179 45.524" stroke="white" stroke-width="2.5" stroke-miterlimit="10" stroke-linecap="round" stroke-linejoin="round"/>
<path d="M37.1764 51.1967L32.5211 55.8506C32.1232 56.2484 31.9004 56.7871 31.9004 57.349V66.2207C24.6845 63.8418 18.7686 58.6014 15.4941 51.8447L19.5124 47.8279C19.9088 47.4301 20.4476 47.2072 21.0094 47.2072H28.4209C28.9828 47.2072 29.5215 46.9844 29.9193 46.5865L31.2429 45.2631C32.0699 44.4359 33.4111 44.4359 34.2383 45.2631L37.1764 48.2012C38.0037 49.0283 38.0037 50.3695 37.1764 51.1967Z" stroke="white" stroke-width="2.5" stroke-miterlimit="10" stroke-linecap="round" stroke-linejoin="round"/>
</g>
</g>
<defs>
<clipPath id="clip0_3280_49944">
<rect width="70" height="70" fill="white"/>
</clipPath>
</defs>
</svg>
