<svg xmlns="http://www.w3.org/2000/svg" width="16" height="19" viewBox="0 0 16 19" fill="none">
  <path
    d="M13.8322 4.83333L12.713 5.9525M12.713 5.9525C11.4628 4.70223 9.76702 3.99983 7.99887 3.99983C6.23071 3.99983 4.53498 4.70223 3.2847 5.9525C2.03443 7.20277 1.33203 8.89851 1.33203 10.6667C1.33203 12.4348 2.03443 14.1306 3.2847 15.3808C4.53498 16.6311 6.23071 17.3335 7.99887 17.3335C9.76702 17.3335 11.4628 16.6311 12.713 15.3808C13.9633 14.1306 14.6657 12.4348 14.6657 10.6667C14.6657 8.89851 13.9633 7.20277 12.713 5.9525ZM7.99887 7.33333V10.6667M5.49887 1.5H10.4989"
    stroke="#475467" stroke-width="2" stroke-linecap="round" stroke-linejoin="round" />
</svg>