<svg width="69" height="69" viewBox="0 0 69 69" fill="none" xmlns="http://www.w3.org/2000/svg">
<path fill-rule="evenodd" clip-rule="evenodd" d="M67.2606 60.7369V34.1997C67.2574 34.0234 67.2125 33.8503 67.1295 33.6947H67.1409L64.3501 28.1143C63.7755 26.951 62.589 26.216 61.2915 26.2196H53.5804V25.0796C53.5804 24.7773 53.4602 24.4874 53.2464 24.2736L47.0744 18.1016C46.6642 17.6956 46.1567 17.4016 45.6004 17.2478V9.5584L47.8804 8.94622V11.7073V11.7153C47.8791 12.886 48.4642 13.9795 49.4388 14.628C49.7777 14.8541 50.2114 14.8822 50.5766 14.7017C50.9417 14.5213 51.1829 14.1597 51.2093 13.7532C51.2356 13.3467 51.0431 12.9571 50.7042 12.731C50.3641 12.5051 50.1599 12.1236 50.1604 11.7153V11.7073V8.23371C50.9584 7.7728 51.4005 6.87684 51.2807 5.96312C51.161 5.0494 50.503 4.2976 49.6132 4.05785L34.7863 0.0769409C34.4023 -0.025647 33.9982 -0.025647 33.6143 0.0769409L18.7874 4.05785C17.7902 4.33008 17.0986 5.23587 17.0986 6.26947C17.0986 7.30308 17.7902 8.20887 18.7874 8.48109L22.8002 9.5584V17.0996H22.7284C21.7148 17.1 20.754 17.5512 20.1063 18.3308L15.0903 24.35C14.9175 24.554 14.8218 24.8123 14.8201 25.0796V26.2196H7.1091C5.8126 26.2151 4.62633 26.9482 4.05045 28.1098L1.25971 33.6901H1.27111C1.18738 33.8471 1.14243 34.0218 1.14001 34.1997V60.7369C0.436907 61.1409 0.00244532 61.889 0 62.7V64.98C0 66.2392 1.0208 67.26 2.28002 67.26H17.4171C17.8211 67.9631 18.5692 68.3976 19.3802 68.4H49.0204C49.8313 68.3976 50.5795 67.9631 50.9835 67.26H66.1206C67.3798 67.26 68.4006 66.2392 68.4006 64.98V62.7C68.3981 61.889 67.9637 61.1409 67.2606 60.7369ZM50.1604 60.4199H49.0204V35.3397H64.9805V60.4199H50.1604ZM30.7803 60.4199V47.8798H37.6203V60.4199H30.7803ZM38.7603 45.5998H29.6402C29.0106 45.5998 28.5002 46.1102 28.5002 46.7398V60.4199H21.6602V35.3397H46.7404V60.4199H39.9003V46.7398C39.9003 46.1102 39.3899 45.5998 38.7603 45.5998ZM51.3004 26.2196V28.4997H17.1001V26.2196H51.3004ZM49.0204 30.7797V33.0597H19.3802V30.7797H49.0204ZM61.2915 28.4997C61.7236 28.4983 62.1189 28.7428 62.3106 29.1301L64.276 33.0597H51.3004V30.7797C52.5596 30.7797 53.5804 29.7589 53.5804 28.4997H61.2915ZM34.2003 2.27944L49.0364 6.26947H49.0215L34.206 10.2595L19.3802 6.26035L34.2003 2.27944ZM25.0802 10.1706L33.6143 12.462C33.9981 12.5653 34.4024 12.5653 34.7863 12.462L43.3204 10.1706V17.0996H25.0802V10.1706ZM21.8528 19.79C22.0693 19.5301 22.3901 19.3797 22.7284 19.3796H44.6553C44.958 19.3793 45.2484 19.4995 45.4624 19.7136L49.6885 23.9396H18.3941L21.8528 19.79ZM6.08993 29.1301C6.28165 28.7428 6.67696 28.4983 7.1091 28.4997H14.8201C14.8201 29.7589 15.8409 30.7797 17.1001 30.7797V33.0597H4.12455L6.08993 29.1301ZM2.28002 62.7H17.1001V64.98H2.28002V62.7ZM18.2402 60.4199H3.42003V35.3397H19.3802V60.4199H18.2402ZM19.3802 66.12V62.7H49.0204V66.12H19.3802ZM66.1206 64.98H51.3004V62.7H66.1206V64.98ZM30.7811 37.62C30.1515 37.62 29.6411 38.1304 29.6411 38.76V41.0401C29.6411 41.6697 30.1515 42.1801 30.7811 42.1801C31.4107 42.1801 31.9211 41.6697 31.9211 41.0401V38.76C31.9211 38.1304 31.4107 37.62 30.7811 37.62ZM13.6804 39.9001C13.6804 39.2705 14.1908 38.7601 14.8204 38.7601C15.45 38.7601 15.9604 39.2705 15.9604 39.9001V42.1801C15.9604 42.8097 15.45 43.3201 14.8204 43.3201C14.1908 43.3201 13.6804 42.8097 13.6804 42.1801V39.9001ZM7.97927 38.7601C7.34966 38.7601 6.83926 39.2705 6.83926 39.9001V42.1801C6.83926 42.8097 7.34966 43.3201 7.97927 43.3201C8.60888 43.3201 9.11928 42.8097 9.11928 42.1801V39.9001C9.11928 39.2705 8.60888 38.7601 7.97927 38.7601ZM13.6804 46.7402C13.6804 46.1106 14.1908 45.6002 14.8204 45.6002C15.45 45.6002 15.9604 46.1106 15.9604 46.7402V49.0202C15.9604 49.6498 15.45 50.1602 14.8204 50.1602C14.1908 50.1602 13.6804 49.6498 13.6804 49.0202V46.7402ZM7.97927 45.6002C7.34966 45.6002 6.83926 46.1106 6.83926 46.7402V49.0202C6.83926 49.6498 7.34966 50.1602 7.97927 50.1602C8.60888 50.1602 9.11928 49.6498 9.11928 49.0202V46.7402C9.11928 46.1106 8.60888 45.6002 7.97927 45.6002ZM13.6804 53.5804C13.6804 52.9508 14.1908 52.4404 14.8204 52.4404C15.45 52.4404 15.9604 52.9508 15.9604 53.5804V55.8604C15.9604 56.49 15.45 57.0004 14.8204 57.0004C14.1908 57.0004 13.6804 56.49 13.6804 55.8604V53.5804ZM7.97927 52.4404C7.34966 52.4404 6.83926 52.9508 6.83926 53.5804V55.8604C6.83926 56.49 7.34966 57.0004 7.97927 57.0004C8.60888 57.0004 9.11928 56.49 9.11928 55.8604V53.5804C9.11928 52.9508 8.60888 52.4404 7.97927 52.4404ZM59.2804 39.9001C59.2804 39.2705 59.7908 38.7601 60.4204 38.7601C61.05 38.7601 61.5604 39.2705 61.5604 39.9001V42.1801C61.5604 42.8097 61.05 43.3201 60.4204 43.3201C59.7908 43.3201 59.2804 42.8097 59.2804 42.1801V39.9001ZM53.5811 38.7601C52.9515 38.7601 52.4411 39.2705 52.4411 39.9001V42.1801C52.4411 42.8097 52.9515 43.3201 53.5811 43.3201C54.2107 43.3201 54.7211 42.8097 54.7211 42.1801V39.9001C54.7211 39.2705 54.2107 38.7601 53.5811 38.7601ZM59.2804 46.7402C59.2804 46.1106 59.7908 45.6002 60.4204 45.6002C61.05 45.6002 61.5604 46.1106 61.5604 46.7402V49.0202C61.5604 49.6498 61.05 50.1602 60.4204 50.1602C59.7908 50.1602 59.2804 49.6498 59.2804 49.0202V46.7402ZM53.5811 45.6002C52.9515 45.6002 52.4411 46.1106 52.4411 46.7402V49.0202C52.4411 49.6498 52.9515 50.1602 53.5811 50.1602C54.2107 50.1602 54.7211 49.6498 54.7211 49.0202V46.7402C54.7211 46.1106 54.2107 45.6002 53.5811 45.6002ZM59.2804 53.5804C59.2804 52.9508 59.7908 52.4404 60.4204 52.4404C61.05 52.4404 61.5604 52.9508 61.5604 53.5804V55.8604C61.5604 56.49 61.05 57.0004 60.4204 57.0004C59.7908 57.0004 59.2804 56.49 59.2804 55.8604V53.5804ZM53.5811 52.4404C52.9515 52.4404 52.4411 52.9508 52.4411 53.5804V55.8604C52.4411 56.49 52.9515 57.0004 53.5811 57.0004C54.2107 57.0004 54.7211 56.49 54.7211 55.8604V53.5804C54.7211 52.9508 54.2107 52.4404 53.5811 52.4404ZM36.4804 38.76C36.4804 38.1304 36.9908 37.62 37.6204 37.62C38.25 37.62 38.7604 38.1304 38.7604 38.76V41.0401C38.7604 41.6697 38.25 42.1801 37.6204 42.1801C36.9908 42.1801 36.4804 41.6697 36.4804 41.0401V38.76Z" fill="#1B8B8C"/>
</svg>
