<svg width="25" height="24" viewBox="0 0 25 24" fill="none" xmlns="http://www.w3.org/2000/svg">
<rect x="0.802734" width="23.76" height="23.76" rx="11.88" fill="#D0D5DD"/>
<path d="M7.76953 18.517V9.53366H9.69453V8.25033C9.69453 7.36269 10.0075 6.60616 10.6333 5.98075C11.2591 5.35534 12.0157 5.04242 12.9029 5.04199C13.7905 5.04199 14.5472 5.35491 15.1731 5.98075C15.7989 6.60659 16.1116 7.36311 16.1112 8.25033V9.53366H18.0362V18.517H7.76953ZM12.9029 15.3087C13.2558 15.3087 13.558 15.1831 13.8095 14.932C14.0611 14.6809 14.1866 14.3787 14.1862 14.0253C14.1862 13.6724 14.0606 13.3704 13.8095 13.1193C13.5584 12.8682 13.2562 12.7424 12.9029 12.742C12.5499 12.742 12.2479 12.8678 11.9968 13.1193C11.7457 13.3708 11.62 13.6728 11.6195 14.0253C11.6195 14.3782 11.7453 14.6805 11.9968 14.932C12.2484 15.1835 12.5504 15.3091 12.9029 15.3087ZM10.9779 9.53366H14.8279V8.25033C14.8279 7.7156 14.6407 7.26109 14.2664 6.88678C13.8921 6.51248 13.4376 6.32533 12.9029 6.32533C12.3681 6.32533 11.9136 6.51248 11.5393 6.88678C11.165 7.26109 10.9779 7.7156 10.9779 8.25033V9.53366Z" fill="white"/>
</svg>
