<svg width="22" height="22" viewBox="0 0 22 22" fill="none" xmlns="http://www.w3.org/2000/svg">
<rect x="0.6" y="0.6" width="20.4" height="20.4" rx="10.2" fill="#163642"/>
<rect x="0.6" y="0.6" width="20.4" height="20.4" rx="10.2" stroke="#163642" stroke-width="1.2"/>
<rect width="21.6" height="21.6" rx="10.8" fill="#D0D5DD"/>
<path d="M5.33398 16.834V8.66732H7.08398V7.50065C7.08398 6.69371 7.36846 6.00596 7.9374 5.4374C8.50635 4.86885 9.1941 4.58437 10.0007 4.58398C10.8076 4.58398 11.4955 4.86846 12.0645 5.4374C12.6334 6.00635 12.9177 6.6941 12.9173 7.50065V8.66732H14.6673V16.834H5.33398ZM10.0007 13.9173C10.3215 13.9173 10.5962 13.8032 10.8249 13.5749C11.0536 13.3466 11.1677 13.0719 11.1673 12.7507C11.1673 12.4298 11.0532 12.1553 10.8249 11.927C10.5966 11.6987 10.3219 11.5844 10.0007 11.584C9.67982 11.584 9.40526 11.6983 9.17698 11.927C8.94871 12.1557 8.83437 12.4302 8.83398 12.7507C8.83398 13.0715 8.94832 13.3462 9.17698 13.5749C9.40565 13.8036 9.68021 13.9177 10.0007 13.9173ZM8.25065 8.66732H11.7507V7.50065C11.7507 7.01454 11.5805 6.60135 11.2402 6.26107C10.9 5.92079 10.4868 5.75065 10.0007 5.75065C9.51454 5.75065 9.10135 5.92079 8.76107 6.26107C8.42079 6.60135 8.25065 7.01454 8.25065 7.50065V8.66732Z" fill="white"/>
</svg>
