<svg xmlns="http://www.w3.org/2000/svg" width="15" height="15" viewBox="0 0 15 15" fill="none">
  <path d="M7.75 2.5C7.75 2.10218 7.59196 1.72064 7.31066 1.43934C7.02936 1.15804 6.64782 1 6.25 1H1.75C1.55109 1 1.36032 1.07902 1.21967 1.21967C1.07902 1.36032 1 1.55109 1 1.75V12.25C1 12.4489 1.07902 12.6397 1.21967 12.7803C1.36032 12.921 1.55109 13 1.75 13H6.25C6.64782 13 7.02936 13.158 7.31066 13.4393C7.59196 13.7206 7.75 14.1022 7.75 14.5M7.75 2.5C7.75 2.10218 7.90804 1.72064 8.18934 1.43934C8.47064 1.15804 8.85218 1 9.25 1H13.75C13.9489 1 14.1397 1.07902 14.2803 1.21967C14.421 1.36032 14.5 1.55109 14.5 1.75V12.25C14.5 12.4489 14.421 12.6397 14.2803 12.7803C14.1397 12.921 13.9489 13 13.75 13H9.25C8.85218 13 8.47064 13.158 8.18934 13.4393C7.90804 13.7206 7.75 14.1022 7.75 14.5M7.75 2.5V14.5M4 4H4.75M4 7H4.75M10.75 4H11.5M10.75 7H11.5M10.75 10H11.5" stroke="#1B8B8C" stroke-linecap="round" stroke-linejoin="round"/>
</svg>