<svg width="135" height="94" viewBox="0 0 135 94" fill="none" xmlns="http://www.w3.org/2000/svg">
<path d="M18.3164 52.5195H76.1586C78.4037 52.5195 80.5567 53.4616 82.1442 55.1385C83.7317 56.8154 84.6235 59.0898 84.6235 61.4613V66.5144C84.6235 67.7153 84.3996 68.9045 83.9645 70.014C83.5295 71.1235 82.8918 72.1317 82.0879 72.9809C81.284 73.8301 80.3296 74.5037 79.2793 74.9633C78.2289 75.4228 77.1032 75.6594 75.9663 75.6594H18.3164V52.5195Z" fill="#FCECDB"/>
<path d="M134.077 62.0402V65.5205C134.082 67.301 133.664 69.0545 132.861 70.6199C131.307 73.6328 128.418 75.6571 125.111 75.6571H16.5397C15.8212 75.6571 15.2441 74.9992 15.2441 74.1886V73.6622C15.2441 72.8506 15.8261 72.1884 16.5397 72.1884H82.7232C83.0807 71.6952 83.3918 71.1664 83.6521 70.6093C84.2942 69.2344 84.6264 67.7211 84.6227 66.1879V61.7665C84.6237 60.973 84.5337 60.1822 84.3546 59.4116C84.067 58.1688 83.545 57.0002 82.8199 55.9755H16.5397C15.8212 55.9755 15.2441 55.3175 15.2441 54.5017V53.9816C15.2441 53.17 15.8261 52.5078 16.5397 52.5078H125.658C129.502 52.5078 132.745 55.4217 133.752 59.4042C133.97 60.2639 134.079 61.1502 134.077 62.0402Z" fill="#1B8B8C"/>
<path d="M133.752 59.4174H84.3546C84.067 58.1747 83.545 57.006 82.8199 55.9813H16.5397C15.8212 55.9813 15.2441 55.3234 15.2441 54.5075V53.9875C15.2441 53.1758 15.8261 52.5137 16.5397 52.5137H125.658C129.502 52.521 132.745 55.435 133.752 59.4174Z" fill="#177077"/>
<path d="M18.3164 64.0879L26.3548 64.4774L18.3164 64.7111V64.0879Z" fill="#F4D2B8"/>
<path d="M18.3164 67.7207L37.4417 68.1092L18.3164 68.3439V67.7207Z" fill="#F4D2B8"/>
<path d="M66.4863 93.6085L9.89383 93.6085C7.7265 93.6085 5.64793 92.699 4.1154 91.0801C2.58287 89.4612 1.72192 87.2656 1.72192 84.9762V83.7255C1.72192 81.5757 2.53038 79.5139 3.96946 77.9938C5.40855 76.4736 7.36037 75.6196 9.39554 75.6196H66.4863V93.6211V93.6085Z" fill="#F8C24A"/>
<path d="M128.258 93.6058L63.7585 93.6058C61.6414 93.6058 59.611 92.7174 58.1139 91.136C56.6169 89.5546 55.7759 87.4098 55.7759 85.1735V83.8597C55.7759 81.6727 56.5984 79.5753 58.0623 78.0289C59.5262 76.4825 61.5118 75.6137 63.5821 75.6137H128.258V93.6152V93.6058Z" fill="#FCECDB"/>
<path d="M51.5154 93.6074L130.435 93.6074C131.09 93.6074 131.621 93.0466 131.621 92.3547V92.1684C131.621 91.4765 131.09 90.9156 130.435 90.9156L51.5154 90.9156C50.8604 90.9156 50.3295 91.4765 50.3295 92.1684V92.3547C50.3295 93.0466 50.8604 93.6074 51.5154 93.6074Z" fill="#F8C24A"/>
<path d="M51.5154 78.3008L130.435 78.3008C131.09 78.3008 131.621 77.7399 131.621 77.0481V76.8617C131.621 76.1699 131.09 75.609 130.435 75.609L51.5154 75.609C50.8604 75.609 50.3295 76.1699 50.3295 76.8617V77.0481C50.3295 77.7399 50.8604 78.3008 51.5154 78.3008Z" fill="#F8C24A"/>
<path d="M128.259 84.6094L119.471 84.9115L128.259 85.0936V84.6094Z" fill="#F4D2B8"/>
<path d="M128.256 80.4668L107.35 80.77L128.256 80.9521V80.4668Z" fill="#F4D2B8"/>
<path d="M107.566 80.709C108.146 81.2522 108.562 81.963 108.762 82.7534C108.817 82.9865 108.848 83.225 108.855 83.465C108.905 85.1494 108.855 88.976 108.855 88.976L111.5 87.0643L114.138 88.976V83.7956C114.138 82.8155 113.912 81.8628 113.491 81.2396C113.292 80.9364 113.041 80.7132 112.761 80.7132L107.566 80.709Z" fill="#F99746"/>
<path d="M107.566 80.709C108.146 81.2522 108.562 81.963 108.762 82.7534L114.063 82.8292C114.063 82.8292 113.855 81.009 112.761 80.709H107.566Z" fill="#ED7D2B"/>
<path d="M3.76953 26.127H59.6774C62.0511 26.127 64.3277 27.123 66.0062 28.8961C67.6847 30.6692 68.6276 33.0739 68.6276 35.5814V42.901C68.6276 45.4652 67.6633 47.9243 65.9469 49.7374C64.2305 51.5506 61.9025 52.5692 59.4751 52.5692H3.76953V26.127Z" fill="#FCECDB"/>
<path d="M68.6535 36.3874V42.0784C68.6396 44.5091 67.5732 46.6177 66.0066 47.7451C65.2392 48.3065 64.329 48.6096 63.3956 48.6147H2.05739C1.33886 48.6147 0.755859 49.3516 0.755859 50.2569V50.9328C0.755859 51.8392 1.33886 52.574 2.05739 52.574H108.013C111.054 52.574 113.741 50.6675 115.363 47.7494C116.441 45.7749 117.002 43.5325 116.987 41.253V36.7632C116.992 35.1795 116.708 33.6096 116.15 32.1396C114.788 28.5846 111.902 26.1328 108.561 26.1328H2.05739C1.33886 26.1328 0.755859 26.8697 0.755859 27.774V28.4446C0.755859 29.352 1.33886 30.0868 2.05739 30.0868H63.579C65.0499 30.0868 66.3803 30.8764 67.3101 32.1396C68.1866 33.3617 68.6586 34.8542 68.6535 36.3874Z" fill="#B2DAC8"/>
<path d="M0.761719 50.2556V50.9315C0.761719 51.8379 1.34472 52.5727 2.06325 52.5727H108.019C111.06 52.5727 113.746 50.6662 115.369 47.748H66.0085C65.241 48.3094 64.3309 48.6125 63.3975 48.6176H2.05727C1.34272 48.6155 0.761719 49.3524 0.761719 50.2556Z" fill="#62C1C6"/>
<path d="M3.76953 39.3496L11.6325 39.7939L3.76953 40.0623V39.3496Z" fill="#F4D2B8"/>
<path d="M3.76953 33.2637L22.4752 33.7079L3.76953 33.9753V33.2637Z" fill="#F4D2B8"/>
<path d="M22.2824 33.6191C22.2824 33.6191 21.0476 34.4613 20.639 35.8362C20.5634 36.0857 20.5202 36.3449 20.5105 36.6068C20.4427 38.4385 20.5105 42.582 20.5105 42.582L16.866 40.5102L13.2305 42.582V36.9657C13.2305 35.9035 13.5424 34.8698 14.1214 34.1939C14.4024 33.8655 14.7433 33.6191 15.1289 33.6191H22.2824Z" fill="#F99746"/>
<path d="M22.2812 33.6191C22.2812 33.6191 21.0465 34.4613 20.6379 35.8362L13.334 35.9183C13.334 35.9183 13.62 33.9444 15.1278 33.6191H22.2812Z" fill="#ED7D2B"/>
<path d="M66.647 47.9301C68.4767 51.3493 70.7978 52.6821 70.7978 52.6821L80.4914 52.7537C80.4914 52.7537 65.2508 45.3215 66.647 47.9301Z" fill="#233862"/>
<path d="M73.916 74.3371C74.1661 74.6445 74.196 74.9867 74.0685 75.3509C73.8323 76.0236 73.0639 76.7721 72.175 77.5174C72.0614 77.6132 71.9597 77.7006 71.876 77.7816L71.8072 77.8448L71.7544 77.8943C70.9223 78.6943 71.2322 78.8807 69.7354 80.505C68.0272 82.3547 66.8602 82.3799 66.5294 82.2073C66.2503 82.0609 66.8284 81.0766 67.4672 79.9713C67.4981 79.9176 67.528 79.866 67.5598 79.8102C67.6456 79.6629 67.7293 79.5134 67.814 79.366C68.5644 78.0353 68.378 77.4069 68.2126 75.4162C68.0811 73.7992 65.8926 66.3702 65.8926 66.3702L69.1444 65.8027C69.1444 65.8027 70.0832 71.7127 71.1545 72.6307C71.7275 73.1191 72.3733 73.1297 72.9244 73.4929C72.9633 73.5181 73.0011 73.5444 73.039 73.5708C73.3623 73.7839 73.6572 74.0416 73.916 74.3371Z" fill="#FFB27D"/>
<path d="M73.9168 74.3365C74.1669 74.6439 74.1968 74.986 74.0693 75.3502C73.7813 76.0219 73.0318 76.7661 72.1688 77.5104C72.0562 77.6073 71.9565 77.6968 71.8698 77.781L71.8011 77.8441L71.7482 77.8936C70.9161 78.6937 71.226 78.88 69.7292 80.5044C68.0211 82.354 66.8541 82.3792 66.5232 82.2066C66.2442 82.0603 66.8222 81.076 67.461 79.9706C68.6496 79.4904 69.6972 78.6872 70.4975 77.642C71.527 76.2735 72.2196 74.5112 72.9212 73.4922C72.9601 73.5175 72.9979 73.5438 73.0358 73.5701C73.3605 73.7829 73.6568 74.0406 73.9168 74.3365Z" fill="#233862"/>
<path d="M47.7408 71.9978C47.5335 73.0558 46.1054 72.8684 44.5119 72.4442C42.9184 72.0199 43.2941 72.5126 41.0239 72.2336C38.7537 71.9547 38.071 71.0504 38.0042 70.6935C37.9444 70.3777 39.0676 70.2724 40.2724 70.1356C40.4249 70.1187 40.5714 70.0998 40.7289 70.0808C42.0902 69.9113 43.0918 68.9913 44.3315 68.2396C45.5065 67.528 47.2724 64.6035 47.2724 64.6035L50.3867 64.8867C50.3867 64.8867 48.7334 67.4985 48.0946 68.6344C47.7179 69.3029 47.7318 70.1903 47.7737 70.8756C47.8103 71.2496 47.7992 71.627 47.7408 71.9978Z" fill="#FFB27D"/>
<path d="M44.5119 72.4453C42.9174 72.0242 43.2941 72.5138 41.0239 72.2348C38.7537 71.9558 38.071 71.0515 38.0042 70.6947C37.9444 70.3788 39.0676 70.2736 40.2724 70.1367L40.2844 70.1609C41.2534 70.8282 42.3754 71.2058 43.5313 71.2537C45.072 71.3052 46.7083 70.8505 47.7727 70.8768C47.8099 71.2517 47.7992 71.6302 47.7408 72.0021C47.5345 73.057 46.1064 72.8696 44.5119 72.4453Z" fill="#233862"/>
<path d="M59.8262 51.0375L62.6834 59.3393L66.4145 70.1823C67.0933 70.2406 67.7766 70.1797 68.4366 70.0023C69.3485 69.7317 70.3969 69.0127 70.3969 69.0127C70.3969 69.0127 69.4182 57.396 67.4928 50.7175C66.9946 49.0026 66.4434 47.6151 65.8236 46.8319C62.795 42.9958 59.8262 51.0375 59.8262 51.0375Z" fill="#233862"/>
<path d="M62.8751 37.9123C64.7876 37.2807 70.2249 38.1513 75.6851 39.323L76.8441 37.3376L88.6605 36.4512C88.6605 36.4512 92.4963 45.6098 90.3248 51.4103C90.0049 52.263 89.2286 52.6178 88.1642 52.6283C88.1642 52.6283 81.1154 52.7578 78.8323 52.741C72.9595 52.6967 66.4309 48.3837 65.5838 48.1974C64.1976 47.8942 63.6226 50.8229 62.2134 53.8926C60.8043 56.9624 49.0726 67.4338 49.0726 67.4338C49.0726 67.4338 47.2787 67.4401 46.5413 67.1411C45.744 66.819 45.459 66.4042 45.459 66.4042C45.459 66.4042 58.5639 39.3472 62.8751 37.9123Z" fill="#2B478B"/>
<path d="M77.0282 20.1557C81.2138 22.6327 89.7156 27.7668 89.7604 27.7353C89.7604 27.7353 92.8877 29.0069 94.6755 27.7721C97.6543 25.714 99.2817 20.1272 93.8912 15.2689C91.2005 12.8477 89.2851 12.2466 89.019 8.40732C88.8745 6.32504 86.2286 -0.565019 81.744 0.0371374C81.3704 0.0932242 80.9931 0.116819 80.6158 0.107674C79.8186 0.0752407 79.0292 0.28416 78.3407 0.709827C75.8054 2.28364 70.7298 19.1619 77.0282 20.1557Z" fill="#233862"/>
<path d="M80.5656 18.0987C80.5477 18.1113 82.6306 18.8798 84.0307 18.2366C85.3482 17.6334 86.3577 15.3584 86.3388 15.3574C85.7409 15.3237 85.0891 14.7668 84.6088 11.1465L84.3536 11.2412L80.0684 12.8351C80.0684 12.8351 80.3673 14.2878 80.5597 15.669C80.7171 16.8228 80.8008 17.9365 80.5656 18.0987Z" fill="#FFB27D"/>
<path d="M80.0664 12.8321C80.0664 12.8321 80.2488 13.8501 80.5029 15.3049C82.9624 14.8554 83.9989 12.6395 84.3547 11.2383L80.0664 12.8321Z" fill="#ED975D"/>
<path d="M79.4191 14.2674C79.4191 14.2674 85.277 13.481 84.7567 9.63539C84.2365 5.7898 84.6431 3.098 80.882 3.43697C77.121 3.77595 76.5968 5.35293 76.4702 6.68146C76.3436 8.00999 77.8814 14.3726 79.4191 14.2674Z" fill="#FFB27D"/>
<path d="M75.5785 27.1686C75.6711 39.6833 75.5605 37.0642 76.8481 38.2653C77.159 38.5538 78.035 38.7306 79.19 38.819C82.8206 39.1012 89.2106 38.5169 89.4548 37.8095C90.3098 35.3619 89.7228 34.5955 90.4513 30.8436C90.5261 30.4447 90.6198 30.013 90.7284 29.5435C91.3263 26.9675 91.9024 26.0938 89.8614 21.9334C88.0117 18.1647 86.0843 15.1033 85.9079 15.2118C80.94 18.2773 80.5583 15.6666 80.5583 15.6666C80.5583 15.6666 75.5316 21.0649 75.5785 27.1686Z" fill="#F9DDBF"/>
<path d="M62.6836 59.3425L66.4148 70.1855C67.0936 70.2438 67.7768 70.1829 68.4368 70.0055C69.3487 69.7349 70.3971 69.0159 70.3971 69.0159C70.3971 69.0159 69.4184 57.3992 67.4931 50.7207L62.6836 59.3425Z" fill="#2B478B"/>
<path d="M80.5569 15.666C80.5569 15.666 75.4604 16.5398 74.8465 18.8505C74.2326 21.1612 70.625 34.7466 70.625 34.7466C70.625 34.7466 73.2091 35.2571 74.412 34.0033C75.6149 32.7495 78.6504 22.3181 78.6504 22.3181L80.5569 15.666Z" fill="#F9DDBF"/>
<path d="M79.1934 38.8192C82.8239 39.1013 89.2139 38.5171 89.4581 37.8096C90.3131 35.3621 89.7262 34.5957 90.4547 30.8438L88.7376 25.6191C88.7376 25.6191 88.9877 31.4249 87.3573 32.9397C85.7269 34.4546 80.7042 35.8368 79.9089 37.1064C79.5202 37.7149 79.2661 38.3276 79.1934 38.8192Z" fill="#F2CCAA"/>
<path d="M83.369 36.4102C83.369 36.4102 79.7903 35.5407 79.2103 35.8723C78.6303 36.2039 77.2082 37.4166 77.0288 37.8419C76.8494 38.2672 78.3183 37.5261 78.7947 37.3966C79.1046 37.3114 79.9139 37.6156 80.3155 37.7598C82.0027 38.3683 83.0411 38.0693 83.0411 38.0693L83.369 36.4102Z" fill="#FFB27D"/>
<path d="M85.9106 15.209C85.9106 15.209 90.7201 15.5585 92.3694 18.025C94.6915 21.499 99.2458 36.255 96.566 38.1983C93.5494 40.3879 82.898 38.6752 82.898 38.6752C82.898 38.6752 82.5552 36.9213 83.0545 36.0771C83.5537 35.2328 91.5851 33.9242 91.9579 33.5358C92.3306 33.1473 87.3806 25.8751 87.3886 24.7024C87.3965 23.5297 85.9106 15.209 85.9106 15.209Z" fill="#F9DDBF"/>
<path d="M79.0303 36.9238C79.0303 36.9238 78.2719 37.9408 78.0258 38.0618C77.901 38.1318 77.7599 38.1624 77.6191 38.1502L78.1324 37.1923L79.0303 36.9238Z" fill="#FFB27D"/>
<path d="M79.21 35.873L77.0176 36.9774C77.0176 36.9774 77.1093 37.1384 77.3783 37.1268C77.6474 37.1153 78.3271 36.8595 78.3271 36.8595L79.21 35.873Z" fill="#FFB27D"/>
<path d="M78.4932 39.7131L61.2246 39.5847L56.1211 25.9004L73.3628 26.0288L78.4932 39.7131Z" fill="#F99746"/>
<path d="M61.0254 39.0527L83.83 39.2222L83.826 39.7538L61.2247 39.5854L61.0254 39.0527Z" fill="#ED7D2B"/>
<path d="M65.6257 32.7959C65.4981 32.3148 65.7642 31.9285 66.2177 31.9317C66.6711 31.9348 67.1435 32.3275 67.27 32.8075C67.3966 33.2876 67.1315 33.676 66.6781 33.6718C66.2246 33.6676 65.7523 33.276 65.6257 32.7959Z" fill="white"/>
</svg>
