<svg width="67" height="64" viewBox="0 0 67 64" fill="none" xmlns="http://www.w3.org/2000/svg">
<g style="mix-blend-mode:multiply" opacity="0.25">
<path d="M43.4963 10.8657C43.393 9.78896 42.4458 9.0006 41.3811 9.10498L5.75034 12.6C4.68557 12.7044 3.90596 13.6622 4.00917 14.7389L8.52499 61.8147C8.6282 62.8914 9.57516 63.6797 10.6402 63.5753L46.2709 60.0803C47.3357 59.976 48.1153 59.0181 48.0121 57.9414L43.4963 10.8657Z" fill="#3A7EC1"/>
</g>
<path d="M46.4243 59.7424L10.6487 61.0215C9.57949 61.0597 8.68206 60.2142 8.64427 59.133L6.99147 11.8659C6.95367 10.7847 7.78985 9.87719 8.85905 9.83897L44.6347 8.55984C45.7039 8.52162 46.6013 9.36717 46.6391 10.4484L48.2919 57.7155C48.3297 58.7967 47.4935 59.7041 46.4243 59.7424Z" fill="#157A7F"/>
<path d="M36.5936 16.8731L17.4607 17.557C16.96 17.575 16.5398 17.1791 16.5221 16.6728C16.5043 16.1664 16.8958 15.7415 17.3966 15.7236L36.5295 15.0396C37.0302 15.0217 37.4504 15.4176 37.4681 15.9239C37.4859 16.4303 37.0944 16.8552 36.5936 16.8731Z" fill="#E4ECF9"/>
<path d="M40.8554 26.2578L20.2575 26.9943C19.7568 27.0122 19.3367 26.6163 19.3189 26.11C19.3012 25.6036 19.6927 25.1788 20.1934 25.1608L40.7913 24.4244C41.292 24.4065 41.7122 24.8024 41.7299 25.3087C41.7476 25.815 41.3561 26.2399 40.8554 26.2578Z" fill="#E4ECF9"/>
<path d="M41.0839 32.8203L20.4861 33.5568C19.9854 33.5747 19.5652 33.1788 19.5475 32.6725C19.5297 32.1661 19.9212 31.7413 20.4219 31.7233L41.0198 30.9869C41.5205 30.969 41.9407 31.3649 41.9584 31.8712C41.9761 32.3775 41.5846 32.8024 41.0839 32.8203Z" fill="#E4ECF9"/>
<path d="M41.3339 39.9551L20.7361 40.6915C20.2354 40.7095 19.8152 40.3136 19.7975 39.8072C19.7797 39.3009 20.1712 38.876 20.6719 38.8581L41.2698 38.1217C41.7705 38.1038 42.1907 38.4996 42.2084 39.006C42.2261 39.5123 41.8346 39.9372 41.3339 39.9551Z" fill="#E4ECF9"/>
<path d="M41.6034 47.6641L21.0056 48.4005C20.5049 48.4184 20.0847 48.0225 20.067 47.5162C20.0493 47.0099 20.4408 46.585 20.9415 46.5671L41.5393 45.8307C42.04 45.8127 42.4602 46.2086 42.4779 46.715C42.4956 47.2213 42.1041 47.6462 41.6034 47.6641Z" fill="#E4ECF9"/>
<path d="M14.783 28.4994C14.1997 28.5173 13.6438 28.3059 13.2163 27.9032C12.7863 27.4979 12.5379 26.9475 12.517 26.3535C12.4962 25.7594 12.7055 25.1925 13.1063 24.7576C13.5072 24.3225 14.0514 24.0716 14.6389 24.0505C14.9342 24.0389 15.2259 24.0884 15.5014 24.1949L15.2991 24.7305C15.095 24.6517 14.8787 24.6148 14.659 24.6235C14.2227 24.639 13.8187 24.8256 13.521 25.1485C13.2234 25.4713 13.068 25.8922 13.0837 26.3332C13.0991 26.7744 13.2836 27.1829 13.6029 27.4839C13.9221 27.7849 14.3405 27.9435 14.7744 27.9261C15.2107 27.9106 15.6147 27.724 15.9124 27.4011C16.21 27.0783 16.3654 26.6574 16.35 26.2162C16.3469 26.1297 16.3372 26.0433 16.3213 25.9592L16.8781 25.8506C16.8997 25.9637 16.9125 26.0796 16.9166 26.1959C16.9375 26.7899 16.7282 27.3568 16.3273 27.7917C15.9265 28.2266 15.3822 28.4778 14.7948 28.4989C14.7909 28.4989 14.7872 28.4989 14.7833 28.4991L14.783 28.4994Z" fill="#E4ECF9"/>
<path d="M14.8063 26.9874C14.7338 26.99 14.6603 26.9647 14.603 26.9107L13.7622 26.1185C13.6475 26.0107 13.6412 25.8291 13.7481 25.7134C13.855 25.5974 14.0343 25.5911 14.1487 25.6991L14.782 26.2958L17.3947 23.4604C17.5016 23.3445 17.6809 23.3382 17.7953 23.4462C17.91 23.554 17.9162 23.7356 17.8094 23.8513L15.0036 26.8965C14.9502 26.9545 14.8787 26.985 14.8063 26.9877V26.9874Z" fill="#E4ECF9"/>
<path d="M15.2635 42.1959C14.6802 42.2138 14.1242 42.0025 13.6968 41.5997C13.2667 41.1944 13.0183 40.6441 12.9975 40.05C12.9547 38.8234 13.9066 37.7902 15.1193 37.747C15.4152 37.7388 15.7063 37.785 15.9818 37.8914L15.7795 38.427C15.5755 38.3482 15.3607 38.3155 15.1394 38.32C14.2389 38.3521 13.5323 39.1191 13.5641 40.0297C13.5795 40.4709 13.764 40.8794 14.0833 41.1804C14.4026 41.4814 14.8201 41.6374 15.2549 41.6229C15.6912 41.6074 16.0952 41.4208 16.3928 41.0979C16.6905 40.7751 16.8458 40.3542 16.8302 39.913C16.827 39.8265 16.8174 39.7403 16.8015 39.656L17.3582 39.5474C17.3799 39.6607 17.3929 39.7767 17.3968 39.8927C17.4177 40.4867 17.2084 41.0536 16.8075 41.4885C16.4066 41.9234 15.8624 42.1746 15.2747 42.1957C15.2708 42.1957 15.2671 42.1957 15.2632 42.1959H15.2635Z" fill="#E4ECF9"/>
<path d="M15.2868 40.6847C15.2143 40.6873 15.1408 40.662 15.0835 40.608L14.2426 39.8157C14.128 39.7079 14.1217 39.5263 14.2286 39.4106C14.3354 39.2947 14.5147 39.2883 14.6292 39.3964L15.2625 39.9931L17.8752 37.1577C17.982 37.0417 18.1613 37.0354 18.2758 37.1435C18.3904 37.2513 18.3967 37.4329 18.2898 37.5486L15.4841 40.5937C15.4306 40.6517 15.3592 40.6823 15.2868 40.6849V40.6847Z" fill="#E4ECF9"/>
<path d="M15.533 49.9054C14.9497 49.9233 14.3938 49.7119 13.9663 49.3092C13.5363 48.9039 13.2879 48.3536 13.267 47.7595C13.2462 47.1654 13.4555 46.5985 13.8564 46.1636C14.2572 45.7285 14.8014 45.4776 15.3889 45.4565C15.6855 45.4459 15.9759 45.4944 16.2514 45.6009L16.0491 46.1365C15.845 46.0577 15.6287 46.0213 15.409 46.0295C14.9727 46.045 14.5687 46.2316 14.271 46.5545C13.9734 46.8773 13.818 47.2983 13.8337 47.7392C13.8491 48.1804 14.0336 48.5889 14.3529 48.8899C14.6722 49.1909 15.0894 49.3495 15.5244 49.3322C15.9607 49.3166 16.3647 49.13 16.6624 48.8071C16.96 48.4843 17.1154 48.0634 17.1 47.6222C17.0969 47.5357 17.0872 47.4493 17.0713 47.3652L17.6281 47.2566C17.6497 47.3697 17.6627 47.4856 17.6666 47.6019C17.6875 48.1959 17.4782 48.7629 17.0773 49.1977C16.6765 49.6326 16.1322 49.8838 15.5448 49.9049C15.5409 49.9049 15.5372 49.9049 15.5333 49.9051L15.533 49.9054Z" fill="#E4ECF9"/>
<path d="M15.5563 48.3937C15.4838 48.3963 15.4103 48.371 15.353 48.317L14.5122 47.5247C14.3975 47.4169 14.3912 47.2353 14.4981 47.1196C14.605 47.0036 14.7843 46.9973 14.8987 47.1054L15.532 47.7021L18.1447 44.8667C18.2516 44.7507 18.4309 44.7444 18.5453 44.8525C18.66 44.9603 18.6662 45.1419 18.5594 45.2576L15.7536 48.3027C15.7002 48.3607 15.6287 48.3913 15.5563 48.3939V48.3937Z" fill="#E4ECF9"/>
<path d="M15.0135 35.0615C14.4302 35.0794 13.8742 34.8681 13.4468 34.4653C13.0167 34.06 12.7683 33.5097 12.7475 32.9156C12.7045 31.689 13.6566 30.6558 14.8694 30.6126C16.0808 30.5712 17.1041 31.5319 17.1468 32.7583C17.1677 33.3523 16.9584 33.9192 16.5575 34.3541C16.1567 34.789 15.6124 35.0402 15.0247 35.0613C15.0208 35.0613 15.0171 35.0613 15.0132 35.0615H15.0135ZM14.8978 31.1851C14.8949 31.1851 14.8923 31.1851 14.8894 31.1851C13.9889 31.2172 13.2823 31.9842 13.3141 32.8948C13.3295 33.336 13.514 33.7445 13.8333 34.0455C14.1526 34.3465 14.572 34.508 15.0049 34.4877C15.4412 34.4722 15.8452 34.2856 16.1428 33.9627C16.4405 33.6399 16.5958 33.219 16.5802 32.7778C16.5484 31.8701 15.7944 31.1571 14.8978 31.1845V31.1851Z" fill="#E4ECF9"/>
<g style="mix-blend-mode:multiply" opacity="0.25">
<path d="M53.5805 6.73175L17.7881 6.08625C16.7184 6.06701 15.8359 6.92811 15.8168 8.00982L14.9827 55.2988C14.9637 56.3805 15.8153 57.273 16.885 57.2922L52.6773 57.9377C53.747 57.957 54.6296 57.0959 54.6486 56.0142L55.4827 8.72517C55.5018 7.64345 54.6502 6.75099 53.5805 6.73175Z" fill="#3A7EC1"/>
</g>
<path d="M52.6266 57.4759L16.9347 54.6933C16.148 54.6319 15.5503 53.9349 15.6118 53.1262C15.6118 53.1262 15.6118 53.1262 15.6118 53.1261L19.2072 5.96957C19.2689 5.16121 19.9643 4.56627 20.7501 4.62741C20.7501 4.62741 20.7501 4.62741 20.7501 4.62741L56.442 7.40996C57.2288 7.47139 57.8266 8.16836 57.765 8.97711L54.1695 56.1337C54.1695 56.1337 54.1695 56.1337 54.1695 56.1337C54.1078 56.9421 53.4124 57.537 52.6266 57.4759Z" fill="#F5FFFF" stroke="#CEDFEF"/>
<path d="M47.5702 14.2618L28.4821 12.7736C27.9824 12.7346 27.6089 12.2936 27.6472 11.7884C27.6858 11.2831 28.1219 10.9054 28.6216 10.9441L47.7097 12.4323C48.2094 12.4713 48.5829 12.9123 48.5446 13.4175C48.506 13.9228 48.0699 14.3005 47.5702 14.2618Z" fill="#157A7F"/>
<path d="M50.7641 24.069L30.2145 22.467C29.7149 22.428 29.3413 21.987 29.3797 21.4817C29.4182 20.9765 29.8543 20.5988 30.354 20.6375L50.9036 22.2395C51.4033 22.2785 51.7768 22.7195 51.7385 23.2247C51.6999 23.73 51.2638 24.1077 50.7641 24.069Z" fill="#E4ECF9"/>
<path d="M50.2661 30.6159L29.7165 29.0138C29.2168 28.9748 28.8433 28.5339 28.8816 28.0286C28.9202 27.5233 29.3563 27.1456 29.8559 27.1844L50.4055 28.7864C50.9052 28.8254 51.2787 29.2664 51.2404 29.7716C51.2018 30.2769 50.7658 30.6546 50.2661 30.6159Z" fill="#E4ECF9"/>
<path d="M49.7231 37.735L29.1735 36.133C28.6738 36.094 28.3003 35.653 28.3386 35.1477C28.3772 34.6425 28.8133 34.2648 29.313 34.3035L49.8626 35.9055C50.3622 35.9445 50.7358 36.3855 50.6974 36.8908C50.6589 37.396 50.2228 37.7737 49.7231 37.735Z" fill="#E4ECF9"/>
<path d="M49.1352 45.4264L28.5856 43.8244C28.086 43.7854 27.7124 43.3444 27.7507 42.8392C27.7893 42.3339 28.2254 41.9562 28.7251 41.9949L49.2747 43.5969C49.7744 43.6359 50.1479 44.0769 50.1096 44.5822C50.071 45.0874 49.6349 45.4651 49.1352 45.4264Z" fill="#E4ECF9"/>
<path d="M24.7907 23.3501C24.7342 23.3501 24.6774 23.348 24.62 23.3435C24.0338 23.2979 23.5003 23.0241 23.1177 22.5726C22.7351 22.1211 22.5492 21.546 22.5946 20.9533C22.6879 19.7296 23.7484 18.8105 24.9583 18.9051C25.2544 18.9283 25.5375 19.0092 25.7994 19.1463L25.539 19.6555C25.3449 19.554 25.1348 19.4939 24.9148 19.4768C24.0164 19.407 23.2293 20.0888 23.1599 20.9973C23.1263 21.4374 23.2642 21.8644 23.5483 22.1994C23.8324 22.5346 24.2283 22.7378 24.6635 22.7718C24.706 22.7753 24.7485 22.7768 24.7902 22.7768C25.6347 22.7768 26.3522 22.1169 26.4184 21.2514C26.4249 21.1652 26.4249 21.0782 26.4184 20.9928L26.9838 20.948C26.9926 21.0629 26.9926 21.1797 26.9838 21.2954C26.8949 22.4611 25.9282 23.3501 24.7907 23.3501Z" fill="#52D1BD"/>
<path d="M24.8004 21.843C24.728 21.8375 24.6579 21.8037 24.607 21.7436L23.8593 20.8612C23.7574 20.7411 23.7712 20.56 23.89 20.4572C24.0089 20.3541 24.1879 20.3681 24.2898 20.4883L24.8531 21.153L27.7634 18.6315C27.8822 18.5285 28.0613 18.5424 28.1632 18.6626C28.2651 18.7828 28.2513 18.9639 28.1324 19.0667L25.0069 21.7747C24.9474 21.8261 24.8729 21.8485 24.8007 21.843H24.8004Z" fill="#F9C067"/>
<path d="M23.7496 37.016C23.6931 37.016 23.6362 37.0139 23.5789 37.0094C22.3687 36.9151 21.4602 35.8429 21.5535 34.6192C21.6468 33.3955 22.7073 32.477 23.9172 32.5711C24.2133 32.5943 24.4963 32.6752 24.7583 32.8122L24.4979 33.3214C24.3037 33.22 24.0937 33.1599 23.8737 33.1427C22.9753 33.0724 22.1881 33.7547 22.1188 34.6632C22.0495 35.5717 22.724 36.3677 23.6224 36.4378C23.6649 36.4412 23.7071 36.4428 23.7491 36.4428C24.5936 36.4428 25.3111 35.7828 25.3773 34.9173C25.3838 34.8311 25.3838 34.7441 25.3773 34.6587L25.9426 34.6139C25.9515 34.7289 25.9515 34.8456 25.9426 34.9613C25.8537 36.127 24.887 37.016 23.7496 37.016Z" fill="#52D1BD"/>
<path d="M23.7575 35.509C23.685 35.5035 23.6149 35.4697 23.5641 35.4097L22.8163 34.5273C22.7144 34.4071 22.7282 34.226 22.8471 34.1232C22.9659 34.0202 23.145 34.0341 23.2469 34.1543L23.8101 34.819L26.7204 32.2975C26.8393 32.1945 27.0183 32.2084 27.1202 32.3286C27.2221 32.4488 27.2083 32.6299 27.0895 32.7327L23.9639 35.4408C23.9045 35.4921 23.8299 35.5146 23.7577 35.509H23.7575Z" fill="#F9C067"/>
<path d="M23.1637 44.7055C23.1071 44.7055 23.0503 44.7033 22.993 44.6989C21.7828 44.6045 20.8742 43.5323 20.9675 42.3086C21.0608 41.0849 22.1214 40.1667 23.3313 40.2605C23.6273 40.2837 23.9104 40.3649 24.1723 40.5017L23.912 41.0109C23.7178 40.9094 23.5077 40.8493 23.2877 40.8322C22.3896 40.7621 21.6022 41.4442 21.5329 42.3526C21.4635 43.2611 22.1381 44.0571 23.0365 44.1272C23.079 44.1306 23.1212 44.1322 23.1631 44.1322C24.0076 44.1322 24.7252 43.4723 24.7914 42.6067C24.7979 42.5205 24.7979 42.4336 24.7914 42.3482L25.3567 42.3034C25.3655 42.4183 25.3655 42.535 25.3567 42.6507C25.2678 43.8165 24.3011 44.7055 23.1637 44.7055Z" fill="#52D1BD"/>
<path d="M23.1715 43.2004C23.0991 43.1949 23.029 43.1612 22.9781 43.1011L22.2304 42.2187C22.1284 42.0985 22.1423 41.9174 22.2611 41.8146C22.38 41.7116 22.559 41.7255 22.6609 41.8457L23.2242 42.5104L26.1345 39.9889C26.2533 39.8859 26.4324 39.8999 26.5343 40.02C26.6362 40.1402 26.6224 40.3213 26.5035 40.4241L23.378 43.1322C23.3185 43.1836 23.244 43.206 23.1718 43.2004H23.1715Z" fill="#F9C067"/>
<path d="M24.2928 29.8972C24.2355 29.8972 24.1779 29.8951 24.12 29.8904C23.5338 29.8448 23.0003 29.5709 22.6177 29.1195C22.2351 28.668 22.0492 28.0929 22.0946 27.5001C22.1879 26.2764 23.2484 25.3574 24.4583 25.452C25.0445 25.4976 25.578 25.7714 25.9607 26.2229C26.3433 26.6744 26.5291 27.2495 26.4838 27.8422C26.4387 28.435 26.1679 28.9745 25.7214 29.3614C25.319 29.7101 24.8172 29.8972 24.2928 29.8972ZM24.2881 26.0187C23.4437 26.0187 22.7261 26.6786 22.6599 27.5442C22.6263 27.9843 22.7642 28.4113 23.0483 28.7463C23.3324 29.0815 23.7283 29.2847 24.1635 29.3187C24.5986 29.3527 25.021 29.2133 25.3523 28.926C25.6839 28.6387 25.8848 28.2384 25.9184 27.7982C25.9521 27.3581 25.8142 26.9311 25.5301 26.5961C25.246 26.2609 24.8501 26.0577 24.4148 26.0237C24.3723 26.0202 24.3298 26.0187 24.2881 26.0187Z" fill="#52D1BD"/>
<g style="mix-blend-mode:multiply" opacity="0.25">
<path d="M64.798 58.056L59.4314 46.3793L58.7123 46.7172L57.7205 44.5596C58.4391 44.091 59.0801 43.5369 59.6316 42.9141C60.3051 42.1553 60.8489 41.2976 61.249 40.3775C62.3135 37.9391 62.3721 35.0688 61.1739 32.4634C60.9336 31.9412 60.6528 31.4507 60.3377 30.9953C59.6342 29.9776 58.7558 29.1313 57.7653 28.4781C55.1142 26.7264 51.6561 26.3569 48.5726 27.8058C48.1243 28.0169 47.7002 28.2583 47.3017 28.5266C46.2802 29.2159 45.4234 30.083 44.7556 31.0675C42.9368 33.7465 42.5114 37.2913 43.9307 40.4576C43.9434 40.4879 43.9562 40.5172 43.9703 40.5475C44.3891 41.4602 44.9323 42.2742 45.5696 42.9792C48.0021 45.6724 51.8076 46.7736 55.3392 45.6793L56.3307 47.8366L55.6116 48.1745L60.9781 59.8512C61.2398 60.4208 61.9089 60.668 62.4722 60.4034L64.2525 59.5668C64.8157 59.3021 65.0602 58.6255 64.7985 58.056H64.798Z" fill="#3A7EC1"/>
</g>
<path d="M52.5311 43.9363C57.1304 43.9363 60.859 40.166 60.859 35.515C60.859 30.8641 57.1304 27.0938 52.5311 27.0938C47.9317 27.0938 44.2031 30.8641 44.2031 35.515C44.2031 40.166 47.9317 43.9363 52.5311 43.9363Z" fill="#F5FFFF"/>
<path d="M58.1091 42.4603L55.8477 43.8105L57.6316 46.8658L59.893 45.5155L58.1091 42.4603Z" fill="#4C4C4C"/>
<path d="M60.7001 30.6395C60.4103 30.1437 60.0834 29.6835 59.7255 29.2615C58.9266 28.3187 57.9703 27.5635 56.9209 27.0119C54.1126 25.5319 50.6353 25.5077 47.7074 27.2557C47.2817 27.5103 46.8832 27.7928 46.5125 28.0991C45.563 28.8864 44.7946 29.8348 44.2256 30.8806C42.6757 33.7272 42.5967 37.2974 44.3165 40.3071C44.3322 40.3361 44.3478 40.3638 44.3647 40.3925C44.8701 41.2591 45.4897 42.0153 46.1927 42.6537C49.1899 45.3788 53.7005 45.9574 57.3552 43.7752C58.4958 43.0947 59.4446 42.2088 60.1804 41.1925C60.777 40.3704 61.2347 39.4629 61.5436 38.5074C62.3662 35.9753 62.1457 33.1128 60.7001 30.6392V30.6395ZM59.6325 38.7075C59.1763 39.7452 58.496 40.6911 57.6119 41.461C57.2655 41.7639 56.8881 42.038 56.4809 42.2815C54.0214 43.7505 51.0888 43.6917 48.7593 42.3859C47.7827 41.8398 46.9111 41.0736 46.2261 40.1081C46.0905 39.9178 45.962 39.7188 45.8413 39.513C44.1633 36.6384 44.5011 33.1247 46.4283 30.6508C47.0062 29.908 47.7274 29.2596 48.58 28.7502C51.4926 27.0108 55.069 27.4133 57.5215 29.4918C58.1812 30.0501 58.7596 30.7306 59.2225 31.5219C60.5497 33.7931 60.6159 36.465 59.6325 38.7072V38.7075Z" fill="#5B5B5B"/>
<path d="M66.3963 57.3045L64.7061 58.3139C64.1712 58.6333 63.4816 58.4539 63.1657 57.9128L56.6914 46.8261L60.3187 44.6602L66.793 55.7468C67.1089 56.2877 66.9314 56.985 66.3963 57.3045Z" fill="#5B5B5B"/>
<g style="mix-blend-mode:multiply" opacity="0.25">
<path d="M25.0441 5.61475C25.0379 5.49271 24.7483 5.30309 24.2902 5.08206C24.2724 4.01609 24.0825 2.80894 24.819 2.24096C24.819 2.24096 24.727 0.89205 24.633 0.418883C24.5389 -0.0542841 24.1248 -0.0246738 23.459 0.0288641C22.7935 0.0824019 19.2111 0.56514 17.4432 0.92495C15.6756 1.28476 14.5114 1.72652 12.1934 2.27237C9.84701 2.67585 8.60474 2.724 6.83717 3.08381C5.0696 3.44362 1.58118 4.39983 0.947033 4.61099C0.312884 4.82215 -0.0802073 4.95674 0.0138503 5.42991C0.107908 5.90307 0.539449 7.1829 0.539449 7.1829C1.43595 7.41828 1.72286 8.60599 2.11417 9.59599C1.7764 9.97883 1.58177 10.2672 1.62259 10.382C1.78113 10.8277 2.61167 11.1363 2.96335 11.1082C3.28605 11.4791 3.68979 11.7052 4.39345 11.8688C5.58455 12.1461 7.80466 11.6122 8.75588 11.3639C9.70711 11.1157 10.5128 10.6781 10.9745 9.73626C11.4362 8.79441 11.8965 6.75878 11.9686 6.16957C12.1 5.09671 12.1908 4.8389 12.6844 4.7384C13.1784 4.6379 13.3606 4.84039 13.8921 5.77805C14.184 6.29309 15.3872 7.99015 16.1734 8.67807C16.9596 9.36598 17.8697 9.45422 18.8419 9.31095C19.8142 9.16768 22.0656 8.79172 23.058 8.07001C23.6442 7.6438 23.9299 7.27741 24.0855 6.80903C24.4203 6.69747 25.0684 6.08791 25.0441 5.61505V5.61475ZM23.0716 2.11116C23.1402 2.34684 23.1937 2.6262 23.2473 2.94384C23.32 3.37483 23.3789 4.04779 23.4067 4.69772C21.9 4.09296 19.7352 3.4161 18.6166 3.21093C20.4116 2.76557 22.034 2.36628 23.0716 2.11116ZM18.6068 1.50848C19.7887 1.29672 20.6246 1.21088 21.2292 1.19623C19.3028 1.74537 16.6446 2.50656 14.1462 3.23336C14.6298 2.43597 17.6233 1.68465 18.6068 1.50818V1.50848ZM10.7613 3.92247C8.17911 4.22964 5.43695 4.56762 3.4505 4.81497C4.01337 4.59184 4.817 4.34389 5.98799 4.0768C6.96228 3.85458 10.0106 3.37633 10.7613 3.92247ZM2.25792 7.2155C2.18605 6.90175 2.12837 6.62329 2.10145 6.37893C3.1562 6.20785 4.80487 5.94166 6.63071 5.65004C5.67771 6.27664 3.94031 7.74759 2.78204 8.89521C2.55902 8.28506 2.35582 7.64171 2.25792 7.2155ZM10.8296 8.56172C10.4253 9.65611 10.1035 10.0772 9.04811 10.4834C7.99307 10.8896 6.60469 11.1175 5.5387 11.1976C4.54548 11.2724 3.90423 10.9904 3.54308 10.5435C4.20178 9.72699 5.34378 8.22404 5.65021 7.82355C6.06459 7.28219 7.07468 6.30625 8.5027 5.81544C8.8319 5.70238 9.8479 5.42871 11.2147 5.07488C11.3777 6.23118 11.1286 7.75147 10.8293 8.56172H10.8296ZM21.745 7.89923C20.7314 8.24229 19.364 8.57518 18.2356 8.61346C17.1072 8.65175 16.6493 8.38914 15.8578 7.53852C15.2719 6.90863 14.4606 5.60398 14.1686 4.474C15.5644 4.26553 16.6056 4.12017 16.9525 4.09595C18.4571 3.99007 19.7621 4.49464 20.351 4.83172C20.787 5.08116 22.4152 6.02032 23.3348 6.51532C23.1727 7.06864 22.6894 7.57949 21.745 7.89923Z" fill="#3A7EC1"/>
</g>
<path d="M1.25653 8.3319C1.25653 8.3319 15.5852 4.87078 17.078 4.65184C18.5705 4.43291 19.9092 4.83788 20.5215 5.1295C21.1337 5.42111 24.0108 6.80532 24.2669 6.8445C24.5231 6.88368 25.327 6.09677 25.259 5.5569C25.1912 5.01704 19.4333 3.56254 18.1819 3.61877C16.9304 3.6753 0.835938 6.95965 0.835938 6.95965L1.25683 8.3313L1.25653 8.3319Z" fill="#5B5B5B"/>
<path d="M24.1865 1.83429C24.1865 1.83429 10.1655 6.40564 8.77737 7.00263C7.38957 7.59963 6.45402 8.64915 6.08075 9.22012C5.70748 9.79109 3.96061 12.4853 3.76185 12.6534C3.56308 12.8215 2.47195 12.5715 2.25249 12.0747C2.03302 11.5776 6.20527 7.3098 7.3035 6.70055C8.40172 6.09129 23.8411 0.441406 23.8411 0.441406L24.1862 1.83459L24.1865 1.83429Z" fill="#5B5B5B"/>
<path d="M23.2667 0.104213C22.6069 0.2077 19.0699 0.959024 17.3337 1.45103C15.5975 1.94304 14.4694 2.47124 12.1978 3.18997C9.8878 3.76931 8.65233 3.91048 6.91611 4.40249C5.17989 4.8945 1.77163 6.11062 1.15494 6.36904C0.537942 6.62746 0.155795 6.79136 0.284755 7.25615C0.413418 7.72094 0.937832 8.96458 0.937832 8.96458C2.01121 9.16168 2.33834 10.7397 2.94528 11.7375C3.55222 12.735 3.9178 13.1606 5.12606 13.3472C6.33431 13.5338 8.50888 12.8343 9.4391 12.5151C10.3696 12.1957 11.1407 11.6989 11.5317 10.7247C11.9228 9.7506 12.2318 7.68595 12.2605 7.09315C12.3123 6.01342 12.3839 5.74932 12.8689 5.61203C13.354 5.47445 13.5507 5.66258 14.15 6.55777C14.4789 7.04948 15.804 8.65113 16.6386 9.27773C17.4733 9.90463 18.3873 9.92407 19.3465 9.70783C20.3054 9.49188 22.5229 8.94723 23.4593 8.15284C24.3957 7.35844 24.4898 6.80272 24.4957 5.63147C24.5016 4.46022 23.9704 2.93992 24.7862 2.20774C24.7862 2.20774 24.5951 0.869595 24.4664 0.404803C24.3378 -0.0599896 23.9269 0.000726525 23.267 0.104213H23.2667ZM11.301 9.56486C10.9783 10.6865 10.6885 11.1306 9.66626 11.6154C8.64405 12.1 7.27637 12.4317 6.21926 12.592C5.16214 12.7523 4.47889 12.4724 4.09882 11.9953C3.71874 11.5182 2.9228 9.73863 2.65394 8.86827C2.38508 7.99761 2.24606 7.39643 2.64152 7.03392C3.03668 6.67142 3.88556 6.15399 6.14265 5.4571C7.15865 5.14335 10.4936 4.36361 11.0147 5.05153C11.7604 6.03585 11.624 8.44326 11.3013 9.56486H11.301ZM23.2703 3.02696C23.488 3.91198 23.7222 5.85071 23.6427 6.45787C23.5631 7.06533 23.123 7.66322 22.1375 8.08165C21.1519 8.50008 19.8129 8.93527 18.6905 9.05819C17.568 9.18142 17.0921 8.95411 16.2399 8.1651C15.3881 7.37609 14.0346 5.3907 14.1659 4.15813C14.2576 3.29674 17.5076 2.21073 18.537 1.94514C20.8236 1.35473 21.8145 1.35084 22.3383 1.45283C22.8624 1.55512 23.0523 2.14164 23.27 3.02666L23.2703 3.02696Z" fill="#5B5B5B"/>
</svg>
