<svg width="70" height="70" viewBox="0 0 70 70" fill="none" xmlns="http://www.w3.org/2000/svg">
<path d="M64.5312 15.3125H51.4062V5.46875C51.4062 4.59851 51.0605 3.76391 50.4452 3.14856C49.8298 2.5332 48.9952 2.1875 48.125 2.1875H21.875C21.0048 2.1875 20.1702 2.5332 19.5548 3.14856C18.9395 3.76391 18.5938 4.59851 18.5938 5.46875V15.3125H5.46875C4.59851 15.3125 3.76391 15.6582 3.14856 16.2736C2.5332 16.8889 2.1875 17.7235 2.1875 18.5938V60.1562C2.1875 61.0265 2.5332 61.8611 3.14856 62.4764C3.76391 63.0918 4.59851 63.4375 5.46875 63.4375H35V66.7188C35 67.0088 35.1152 67.287 35.3204 67.4921C35.5255 67.6973 35.8037 67.8125 36.0938 67.8125H66.7188C67.0088 67.8125 67.287 67.6973 67.4921 67.4921C67.6973 67.287 67.8125 67.0088 67.8125 66.7188V18.5938C67.8125 17.7235 67.4668 16.8889 66.8514 16.2736C66.2361 15.6582 65.4015 15.3125 64.5312 15.3125ZM20.7812 5.46875C20.7812 5.17867 20.8965 4.90047 21.1016 4.69535C21.3067 4.49023 21.5849 4.375 21.875 4.375H48.125C48.4151 4.375 48.6933 4.49023 48.8984 4.69535C49.1035 4.90047 49.2188 5.17867 49.2188 5.46875V15.3125H47.0312V7.65625C47.0312 7.36617 46.916 7.08797 46.7109 6.88285C46.5058 6.67773 46.2276 6.5625 45.9375 6.5625H24.0625C23.7724 6.5625 23.4942 6.67773 23.2891 6.88285C23.084 7.08797 22.9688 7.36617 22.9688 7.65625V15.3125H20.7812V5.46875ZM44.8438 15.3125H25.1562V8.75H44.8438V15.3125ZM5.46875 17.5H64.5312C64.8213 17.5 65.0995 17.6152 65.3046 17.8204C65.5098 18.0255 65.625 18.3037 65.625 18.5938V19.6875H44.8438V19.6973C44.7007 19.6955 44.5588 19.7221 44.4261 19.7754C44.2933 19.8287 44.1725 19.9077 44.0705 20.008L35.3205 28.758C35.1189 28.9646 35.0073 29.2426 35.0098 29.5312H35V32.8125H21.875V31.7188C21.875 31.4287 21.7598 31.1505 21.5546 30.9454C21.3495 30.7402 21.0713 30.625 20.7812 30.625V25.1562C20.7812 24.8662 20.666 24.588 20.4609 24.3829C20.2558 24.1777 19.9776 24.0625 19.6875 24.0625H13.125C12.8349 24.0625 12.5567 24.1777 12.3516 24.3829C12.1465 24.588 12.0312 24.8662 12.0312 25.1562V30.625C11.7412 30.625 11.463 30.7402 11.2579 30.9454C11.0527 31.1505 10.9375 31.4287 10.9375 31.7188V32.8125H4.375V18.5938C4.375 18.3037 4.49023 18.0255 4.69535 17.8204C4.90047 17.6152 5.17867 17.5 5.46875 17.5ZM43.75 23.4216V28.4375H38.7341L43.75 23.4216ZM19.6875 35H13.125V32.8125H19.6875V35ZM18.5938 30.625H14.2188V26.25H18.5938V30.625ZM14.2188 37.1875H18.5938V42.0711L16.4062 43.5312L14.2188 42.0733V37.1875ZM5.46875 61.25C5.17867 61.25 4.90047 61.1348 4.69535 60.9296C4.49023 60.7245 4.375 60.4463 4.375 60.1562V35H10.9375V36.0938C10.9375 36.3838 11.0527 36.662 11.2579 36.8671C11.463 37.0723 11.7412 37.1875 12.0312 37.1875V42.6562C12.0312 42.8363 12.0756 43.0135 12.1605 43.1723C12.2454 43.331 12.3682 43.4663 12.518 43.5662L15.7992 45.7537C15.979 45.8737 16.1902 45.9377 16.4062 45.9377C16.6223 45.9377 16.8335 45.8737 17.0133 45.7537L20.2945 43.5662C20.4443 43.4663 20.5671 43.331 20.652 43.1723C20.7369 43.0135 20.7813 42.8363 20.7812 42.6562V37.1875C21.0713 37.1875 21.3495 37.0723 21.5546 36.8671C21.7598 36.662 21.875 36.3838 21.875 36.0938V35H35V61.25H5.46875ZM65.625 65.625H37.1875V30.625H44.8438C45.1338 30.625 45.412 30.5098 45.6171 30.3046C45.8223 30.0995 45.9375 29.8213 45.9375 29.5312V21.875H65.625V65.625Z" fill="#1B8B8C"/>
<path fill-rule="evenodd" clip-rule="evenodd" d="M48.125 26.25H52.5V28.4375H48.125V26.25ZM54.6875 26.25H63.4375V28.4375H54.6875V26.25ZM52.5 32.8125H39.375V35H52.5V32.8125ZM54.6875 32.8125H63.4375V35H54.6875V32.8125ZM63.4375 39.375H39.375V41.5625H63.4375V39.375ZM39.375 45.9375H63.4375V48.125H39.375V45.9375ZM63.4375 52.5H39.375V54.6875H63.4375V52.5ZM39.375 59.0625H43.75V61.25H39.375V59.0625ZM50.3125 61.25V59.0625H45.9375V61.25H50.3125ZM56.875 59.0625V61.25H52.5V59.0625H56.875ZM63.4375 59.0625H59.0625V61.25H63.4375V59.0625Z" fill="#1B8B8C"/>
</svg>
