<svg width="67" height="64" viewBox="0 0 67 64" fill="none" xmlns="http://www.w3.org/2000/svg">
<path fill-rule="evenodd" clip-rule="evenodd" d="M31.3149 4.95168H27.7911C27.0738 4.95168 26.4923 5.53318 26.4923 6.2505V26.5354H16.3105V22.4579C16.3105 21.7406 15.729 21.1591 15.0117 21.1591H6.06172C5.3444 21.1591 4.76289 21.7406 4.76289 22.4579V27.8342V27.8342V27.8342V61.0158H1.29883C0.581505 61.0158 0 61.5973 0 62.3147C0 63.032 0.581505 63.6135 1.29883 63.6135H6.04647L6.06172 63.6136H27.7907L27.803 63.6135H59.8906L59.8996 63.6135H65.2012C65.9185 63.6135 66.5 63.032 66.5 62.3147C66.5 61.5973 65.9185 61.0158 65.2012 61.0158H61.1894V40.0595C61.1894 39.3422 60.6079 38.7607 59.8906 38.7607C59.1733 38.7607 58.5918 39.3422 58.5918 40.0595V61.0158H29.0899V7.54933H58.5918V28.5918C58.5918 29.3091 59.1733 29.8906 59.8906 29.8906C60.6079 29.8906 61.1894 29.3091 61.1894 28.5918V6.2505C61.1894 5.53318 60.6079 4.95168 59.8906 4.95168H56.6959V1.29883C56.6959 0.581505 56.1144 0 55.397 0H32.6138C31.8965 0 31.3149 0.581505 31.3149 1.29883V4.95168ZM33.9126 2.59766V4.95165H42.0005V2.59766H33.9126ZM54.0982 4.95165H47.0005V2.59766H54.0982V4.95165ZM26.4919 61.0158H7.36055V29.1331H26.4919V61.0158ZM7.36055 26.5354V23.7568H13.7129V26.5354H7.36055ZM46.9878 20.3052C46.2705 20.3052 45.689 19.7237 45.689 19.0064V13.5008C45.689 12.7835 46.2705 12.202 46.9878 12.202H52.4934C53.2107 12.202 53.7922 12.7835 53.7922 13.5008V19.0064C53.7922 19.7237 53.2107 20.3052 52.4934 20.3052H46.9878ZM48.2866 14.7996V17.7076H51.1946V14.7996H48.2866ZM33.5189 30.3635C33.5189 31.0809 34.1005 31.6624 34.8178 31.6624H40.3234C41.0407 31.6624 41.6222 31.0809 41.6222 30.3635V24.8579C41.6222 24.1406 41.0407 23.5591 40.3234 23.5591H34.8178C34.1005 23.5591 33.5189 24.1406 33.5189 24.8579V30.3635ZM36.1166 29.0647V26.1568H39.0245V29.0647H36.1166ZM34.8178 43.0191C34.1005 43.0191 33.5189 42.4376 33.5189 41.7203V36.2147C33.5189 35.4974 34.1005 34.9158 34.8178 34.9158H40.3234C41.0407 34.9158 41.6222 35.4974 41.6222 36.2147V41.7203C41.6222 42.4376 41.0407 43.0191 40.3234 43.0191H34.8178ZM36.1166 37.5135V40.4214H39.0245V37.5135H36.1166ZM45.689 41.7203C45.689 42.4376 46.2705 43.0191 46.9878 43.0191H52.4934C53.2107 43.0191 53.7922 42.4376 53.7922 41.7203V36.2147C53.7922 35.4974 53.2107 34.9158 52.4934 34.9158H46.9878C46.2705 34.9158 45.689 35.4974 45.689 36.2147V41.7203ZM48.2866 40.4214V37.5135H51.1946V40.4214H48.2866ZM12.8097 49.6967C12.8097 50.4141 12.2282 50.9956 11.5108 50.9956C10.7935 50.9956 10.212 50.4141 10.212 49.6967V33.4246C10.212 32.7073 10.7935 32.1258 11.5108 32.1258C12.2282 32.1258 12.8097 32.7073 12.8097 33.4246V49.6967ZM16.8317 50.9956C17.5491 50.9956 18.1306 50.4141 18.1306 49.6967V33.4246C18.1306 32.7073 17.5491 32.1258 16.8317 32.1258C16.1144 32.1258 15.5329 32.7073 15.5329 33.4246V49.6967C15.5329 50.4141 16.1144 50.9956 16.8317 50.9956ZM23.4478 49.6967C23.4478 50.4141 22.8663 50.9956 22.1489 50.9956C21.4316 50.9956 20.8501 50.4141 20.8501 49.6967V33.4246C20.8501 32.7073 21.4316 32.1258 22.1489 32.1258C22.8663 32.1258 23.4478 32.7073 23.4478 33.4246V49.6967Z" fill="#1B8B8C"/>
<path d="M40.324 19.0059H34.8184V13.5003H40.324V19.0059Z" stroke="#1B8B8C" stroke-width="2.59766" stroke-miterlimit="10" stroke-linecap="round" stroke-linejoin="round"/>
<path d="M19.7215 62.3145H13.9629V55.0791H19.7215V62.3145Z" stroke="#1B8B8C" stroke-width="2.59766" stroke-miterlimit="10" stroke-linecap="round" stroke-linejoin="round"/>
<path d="M52.4939 30.3633H46.9883V24.8577H52.4939V30.3633Z" stroke="#1B8B8C" stroke-width="2.59766" stroke-miterlimit="10" stroke-linecap="round" stroke-linejoin="round"/>
<path d="M47.9635 62.3145H39.4941V50.2165H47.9635V62.3145Z" stroke="#1B8B8C" stroke-width="2.59766" stroke-miterlimit="10" stroke-linecap="round" stroke-linejoin="round"/>
</svg>
