<svg width="66" height="66" viewBox="0 0 66 66" fill="none" xmlns="http://www.w3.org/2000/svg">
<g filter="url(#filter0_d_3366_35007)">
<rect x="13" y="10" width="46" height="46" rx="23" fill="#F3B84E"/>
</g>
<g clip-path="url(#clip0_3366_35007)">
<path d="M37.3506 22.7715C36.9716 22.7715 36.5963 22.8469 36.2461 22.9933C35.896 23.1397 35.5778 23.3544 35.3098 23.625C35.0419 23.8956 34.8293 24.2168 34.6843 24.5703C34.5393 24.9239 34.4648 25.3028 34.4648 25.6854C34.4648 26.458 34.7689 27.199 35.3101 27.7454C35.8512 28.2917 36.5852 28.5987 37.3506 28.5987C38.1159 28.5987 38.8499 28.2917 39.3911 27.7454C39.9323 27.199 40.2363 26.458 40.2363 25.6854C40.2364 25.3028 40.1618 24.9239 40.0168 24.5703C39.8719 24.2168 39.6593 23.8956 39.3913 23.625C39.1234 23.3544 38.8052 23.1397 38.4551 22.9933C38.1049 22.8469 37.7296 22.7715 37.3506 22.7715ZM38.7249 27.0728C38.3603 27.4408 37.8658 27.6476 37.3503 27.6476C36.8347 27.6476 36.3402 27.4408 35.9757 27.0728C35.6111 26.7047 35.4063 26.2056 35.4063 25.6851C35.4063 25.1646 35.6111 24.6654 35.9757 24.2974C36.3402 23.9293 36.8347 23.7226 37.3503 23.7226C37.8658 23.7226 38.3603 23.9293 38.7249 24.2974C38.9055 24.4796 39.0488 24.696 39.1465 24.9342C39.2443 25.1723 39.2946 25.4276 39.2946 25.6854C39.2952 25.9433 39.2452 26.1987 39.1474 26.437C39.0496 26.6752 38.906 26.8915 38.7249 27.0734V27.0728Z" fill="white"/>
<path d="M37.6978 31.0959C37.6576 31.051 37.6083 31.0153 37.5533 30.9913C37.4982 30.9673 37.4387 30.9555 37.3788 30.9567H37.315C37.2556 30.956 37.1967 30.968 37.1423 30.992C37.0878 31.016 37.039 31.0514 36.9992 31.0959L36.3612 31.8044C36.3103 31.8618 36.2448 31.9042 36.1719 31.9269C36.0989 31.9496 36.0212 31.9517 35.9471 31.9332L35.7831 31.8913C35.1922 31.7403 34.6261 31.5033 34.1026 31.188L33.9578 31.101C33.892 31.0615 33.8383 31.0046 33.8023 30.9365C33.7663 30.8684 33.7495 30.7916 33.7536 30.7145L33.8021 29.7587C33.8052 29.6993 33.7959 29.6399 33.7746 29.5844C33.7534 29.5289 33.7208 29.4785 33.6789 29.4366L33.6273 29.3845C33.5859 29.3421 33.536 29.3091 33.481 29.2878C33.426 29.2665 33.3671 29.2573 33.3083 29.2608L32.3614 29.3098C32.2849 29.3136 32.2088 29.2962 32.1413 29.2596C32.0739 29.2229 32.0176 29.1683 31.9786 29.1017L31.8919 28.9542C31.5799 28.426 31.3455 27.855 31.1958 27.2589L31.1543 27.0934C31.1357 27.0185 31.1378 26.9399 31.1603 26.8661C31.1828 26.7923 31.2248 26.7261 31.2819 26.6747L31.9837 26.0306C32.0281 25.99 32.0633 25.9402 32.0871 25.8846C32.1109 25.8291 32.1226 25.7691 32.1216 25.7086V25.6442C32.1226 25.5837 32.1109 25.5237 32.0871 25.4681C32.0634 25.4126 32.0281 25.3628 31.9837 25.3221L31.2819 24.678C31.2247 24.6267 31.1826 24.5606 31.1601 24.4867C31.1376 24.4129 31.1356 24.3343 31.1543 24.2594L31.1958 24.0938C31.3455 23.4975 31.5802 22.9262 31.8925 22.3979L31.9786 22.2511C32.018 22.1849 32.0743 22.1308 32.1418 22.0945C32.2092 22.0582 32.2851 22.0411 32.3614 22.045L33.3083 22.0939C33.3671 22.0973 33.4259 22.088 33.4809 22.0667C33.5359 22.0454 33.5858 22.0125 33.6273 21.9702L33.6789 21.9181C33.7208 21.8762 33.7534 21.8259 33.7745 21.7704C33.7956 21.7148 33.8048 21.6554 33.8014 21.596L33.7536 20.6402C33.7494 20.563 33.7663 20.4861 33.8024 20.418C33.8385 20.3498 33.8925 20.293 33.9584 20.2537L34.1051 20.1661C34.6283 19.851 35.1939 19.6141 35.7844 19.4628L35.9484 19.4209C36.0226 19.4021 36.1004 19.4042 36.1735 19.4269C36.2466 19.4496 36.3122 19.4921 36.3631 19.5497L37.0011 20.2582C37.0414 20.303 37.0907 20.3386 37.1457 20.3627C37.2007 20.3868 37.2602 20.3988 37.3201 20.398H37.3839C37.4438 20.3988 37.5033 20.3868 37.5583 20.3627C37.6133 20.3386 37.6626 20.303 37.7029 20.2582L38.3409 19.5497C38.3919 19.4921 38.4574 19.4497 38.5305 19.427C38.6036 19.4043 38.6814 19.4022 38.7556 19.4209L38.9196 19.4628C39.5087 19.6191 40.0724 19.8605 40.5931 20.1796L40.7386 20.2672C40.8041 20.3069 40.8578 20.3638 40.8938 20.4319C40.9297 20.5 40.9467 20.5766 40.9427 20.6537L40.8943 21.6095C40.8907 21.6689 40.8998 21.7284 40.9209 21.784C40.9421 21.8395 40.9747 21.8899 41.0168 21.9316L41.0684 21.9844C41.11 22.0265 41.16 22.0592 41.2149 22.0805C41.2699 22.1018 41.3287 22.1112 41.3874 22.1081L42.3343 22.0591C42.4107 22.055 42.4868 22.0721 42.5542 22.1086C42.6217 22.145 42.678 22.1994 42.7171 22.2659L42.8038 22.4134C43.1159 22.9415 43.3506 23.5126 43.5005 24.1087L43.542 24.2748C43.5605 24.3497 43.5583 24.4283 43.5358 24.5021C43.5134 24.5758 43.4714 24.642 43.4144 24.6935L42.7126 25.3376C42.6682 25.3783 42.6328 25.428 42.609 25.4835C42.5851 25.5391 42.5732 25.5991 42.5742 25.6596V25.7241C42.5732 25.7846 42.5851 25.8446 42.609 25.9002C42.6328 25.9557 42.6682 26.0054 42.7126 26.0461L43.4144 26.6902C43.4714 26.7415 43.5135 26.8076 43.536 26.8812C43.5585 26.9549 43.5606 27.0334 43.542 27.1082L43.5005 27.2738C43.3506 27.8703 43.116 28.4417 42.8038 28.9703L42.7171 29.1165C42.678 29.1829 42.6217 29.2372 42.5542 29.2736C42.4867 29.3099 42.4106 29.3269 42.3343 29.3226L41.3874 29.2737C41.3286 29.2704 41.2697 29.2798 41.2147 29.3012C41.1597 29.3227 41.1098 29.3556 41.0684 29.398L41.0161 29.4502C40.9743 29.492 40.9417 29.5424 40.9206 29.5979C40.8995 29.6534 40.8903 29.7129 40.8936 29.7722L40.9421 30.7281C40.946 30.8053 40.9289 30.8821 40.8927 30.9502C40.8565 31.0183 40.8025 31.0751 40.7367 31.1145L40.5899 31.2021C40.0668 31.5171 39.5011 31.7538 38.9107 31.9048L38.7467 31.9467C38.6725 31.9653 38.5947 31.9631 38.5216 31.9404C38.4486 31.9177 38.383 31.8753 38.332 31.8179L37.6978 31.0959ZM39.2392 30.2965H39.245C39.3243 30.2629 39.3914 30.2054 39.4371 30.1319C39.4827 30.0583 39.5048 29.9723 39.5002 29.8856L39.4632 29.1487C39.4597 29.0815 39.4722 29.0144 39.4996 28.953C39.527 28.8916 39.5686 28.8377 39.6208 28.7958L39.6967 28.7346C39.9464 28.5334 40.173 28.3046 40.3724 28.0525L40.433 27.9758C40.4747 27.9233 40.5281 27.8816 40.5889 27.8539C40.6496 27.8263 40.716 27.8135 40.7826 27.8167L41.5119 27.8547C41.5978 27.8596 41.683 27.8374 41.7559 27.7912C41.8289 27.7451 41.8858 27.6773 41.9189 27.5971V27.5907C41.9511 27.5105 41.9579 27.4222 41.9385 27.3379C41.9191 27.2536 41.8744 27.1775 41.8104 27.1198L41.2681 26.6252C41.2185 26.5801 41.1803 26.5238 41.1566 26.4608C41.133 26.3978 41.1246 26.3301 41.1322 26.2632L41.1482 26.1189C41.1807 25.8293 41.1807 25.537 41.1482 25.2474L41.1322 25.1019C41.125 25.0352 41.1335 24.9677 41.1572 24.905C41.1808 24.8423 41.2188 24.7861 41.2681 24.7412L41.8104 24.2471C41.8745 24.1894 41.9193 24.1132 41.9388 24.0288C41.9583 23.9444 41.9516 23.856 41.9195 23.7757V23.7699C41.8864 23.6897 41.8295 23.6219 41.7566 23.5757C41.6837 23.5296 41.5984 23.5074 41.5125 23.5122L40.7826 23.5496C40.7161 23.553 40.6497 23.5404 40.589 23.5127C40.5283 23.485 40.475 23.4431 40.4336 23.3905L40.3379 23.2816C40.1584 23.0539 39.954 22.8473 39.7286 22.6659L39.6163 22.5751C39.5641 22.5332 39.5225 22.4793 39.4951 22.4179C39.4677 22.3565 39.4552 22.2893 39.4587 22.2221L39.4957 21.4859C39.5005 21.3991 39.4785 21.3131 39.4328 21.2395C39.3871 21.1659 39.3199 21.1084 39.2405 21.0749H39.2341C39.1547 21.0425 39.0673 21.0355 38.9838 21.0551C38.9003 21.0747 38.8249 21.1199 38.7678 21.1844L38.2778 21.7319C38.2331 21.7818 38.1774 21.8202 38.1152 21.8439C38.0529 21.8677 37.9859 21.8761 37.9198 21.8685L37.7763 21.8524C37.6331 21.8362 37.4891 21.828 37.345 21.8279C37.2009 21.828 37.0569 21.8362 36.9137 21.8524L36.7701 21.8685C36.7039 21.8762 36.6367 21.8677 36.5743 21.8438C36.512 21.82 36.4561 21.7814 36.4116 21.7313L35.9222 21.1844C35.8652 21.1198 35.7898 21.0745 35.7063 21.0548C35.6228 21.0351 35.5353 21.0419 35.4558 21.0743H35.4494C35.3701 21.1078 35.3029 21.1653 35.2573 21.2389C35.2116 21.3125 35.1895 21.3985 35.1942 21.4852L35.2312 22.2214C35.2346 22.2888 35.2221 22.356 35.1947 22.4174C35.1673 22.4789 35.1258 22.5329 35.0736 22.5751L34.9614 22.6652C34.736 22.847 34.5314 23.0535 34.3514 23.281L34.2621 23.3943C34.2206 23.4471 34.1672 23.489 34.1064 23.5167C34.0456 23.5444 33.9791 23.557 33.9125 23.5534L33.1921 23.5161C33.1063 23.5114 33.0211 23.5337 32.9482 23.5798C32.8753 23.6259 32.8184 23.6937 32.7851 23.7737V23.7802C32.7531 23.8604 32.7464 23.9486 32.7658 24.0329C32.7852 24.1171 32.8298 24.1932 32.8935 24.251L33.4365 24.7463C33.4858 24.7914 33.5239 24.8477 33.5475 24.9105C33.5711 24.9733 33.5796 25.0409 33.5724 25.1077L33.5558 25.2526C33.5239 25.542 33.5239 25.834 33.5558 26.1234L33.5724 26.2683C33.5797 26.3352 33.5712 26.4029 33.5476 26.4658C33.5239 26.5287 33.4859 26.5851 33.4365 26.6303L32.8942 27.1243C32.8302 27.1819 32.7853 27.258 32.7658 27.3423C32.7462 27.4266 32.753 27.5149 32.7851 27.5952V27.601C32.8181 27.6811 32.8749 27.7489 32.9477 27.795C33.0205 27.8412 33.1057 27.8634 33.1915 27.8586L33.9214 27.8212C33.988 27.8177 34.0545 27.8303 34.1153 27.858C34.1761 27.8857 34.2295 27.9276 34.271 27.9803L34.361 28.0937C34.5405 28.3213 34.7449 28.5276 34.9703 28.7088L35.0832 28.7996C35.1352 28.8417 35.1766 28.8957 35.204 28.957C35.2314 29.0184 35.244 29.0854 35.2408 29.1526L35.2032 29.8895C35.1986 29.9761 35.2206 30.0622 35.2663 30.1357C35.312 30.2093 35.3791 30.2668 35.4584 30.3004H35.4647C35.5442 30.3327 35.6316 30.3395 35.7151 30.3199C35.7985 30.3003 35.8739 30.2553 35.9311 30.1909L36.4211 29.6434C36.4659 29.5936 36.5218 29.5551 36.5841 29.5313C36.6464 29.5074 36.7134 29.4988 36.7797 29.5062L36.9226 29.5223C37.066 29.539 37.2102 29.5474 37.3545 29.5474C37.4987 29.5473 37.6426 29.5392 37.7858 29.523L37.9288 29.5062C37.995 29.4988 38.0621 29.5074 38.1244 29.5313C38.1867 29.5551 38.2426 29.5936 38.2873 29.6434L38.7767 30.1909C38.8338 30.2541 38.9087 30.2983 38.9913 30.3175C39.074 30.3368 39.1605 30.3301 39.2392 30.2985V30.2965Z" fill="white"/>
<path d="M41.5931 31.0317C43.5008 30.9112 44.8655 29.8993 45.4563 29.3725L46.3993 29.6887C46.4668 29.7111 46.5374 29.7226 46.6085 29.7229C46.7483 29.7223 46.8842 29.6772 46.9971 29.594C47.0822 29.532 47.1515 29.4504 47.1993 29.356C47.2471 29.2616 47.2721 29.1571 47.2721 29.0511C47.2721 27.2862 46.7425 25.8647 45.7 24.8245C44.8667 23.9936 43.8498 23.562 43.0057 23.3379H42.4231L42.7288 24.0683V24.5134L43.0101 24.7356C43.0101 24.7356 43.696 24.8876 44.7755 25.7842C45.3657 26.3755 45.7325 27.1523 45.8774 28.0991L45.506 27.9761H45.499L43.2928 27.2315L42.9495 27.1857L42.6305 28.0108L42.4729 28.4237L43.0746 28.5706L43.9346 28.8604C43.5586 29.108 43.1533 29.3069 42.7281 29.4523C42.7281 29.4523 42.0767 29.7621 40.2335 29.8014V30.8623L40.1416 31.0317L40.4855 31.7717C41.1675 32.8506 42.635 35.5236 42.635 38.4227C42.635 40.7891 41.0514 42.6223 39.0985 43.9839C40.7573 41.6735 41.5688 39.1415 41.3009 37.0051C41.1522 35.8238 40.5506 34.7043 39.6076 33.8535C38.6486 32.9788 37.4037 32.4922 36.1113 32.4867C35.392 32.489 34.6805 32.6357 34.0179 32.9182V30.5808L34.3631 30.1589L34.4665 29.4987L34.0199 28.7355L32.6934 28.5963V32.7476C32.3668 33.0587 31.864 33.686 31.3159 34.9066C30.8101 35.4711 30.3555 36.0803 29.9576 36.7268C28.873 38.4768 28.1042 41.1627 27.6786 44.7136C27.5727 45.5974 27.5019 46.4199 27.4553 47.1245H20.0945C19.9187 47.1247 19.7501 47.1953 19.6258 47.3209C19.5015 47.4465 19.4316 47.6168 19.4316 47.7944C19.4318 47.9718 19.5017 48.1418 19.626 48.2672C19.7503 48.3925 19.9188 48.463 20.0945 48.463H27.3813C27.359 49.0774 27.3583 49.4549 27.3583 49.4935C27.3583 49.6028 27.3848 49.7105 27.4355 49.807C27.4862 49.9036 27.5596 49.9862 27.6493 50.0474C27.4834 51.0722 27.3941 51.6963 27.3941 51.7221C27.3808 51.8169 27.3878 51.9135 27.4145 52.0054C27.4413 52.0972 27.4872 52.1823 27.5491 52.2548C27.612 52.3261 27.6891 52.3831 27.7755 52.4219C27.8618 52.4608 27.9554 52.4807 28.0499 52.4802H29.3751C29.4843 52.48 29.5917 52.4527 29.6879 52.4007C29.7842 52.3487 29.8663 52.2736 29.927 52.182L31.6541 49.5663C32.3516 49.3359 33.0295 49.0488 33.6811 48.7077C33.8297 48.6304 33.9784 48.548 34.1245 48.4642H50.5853C50.6723 48.4643 50.7585 48.4471 50.8389 48.4135C50.9193 48.38 50.9924 48.3307 51.054 48.2686C51.1155 48.2066 51.1644 48.1328 51.1977 48.0517C51.231 47.9705 51.2482 47.8835 51.2482 47.7957C51.2482 47.6182 51.1783 47.448 51.054 47.3225C50.9297 47.197 50.7611 47.1264 50.5853 47.1264H39.3173V45.4441C40.4077 44.7446 41.3162 43.9865 42.0282 43.1813C43.3081 41.7347 43.9576 40.1347 43.9576 38.4259C43.9576 35.1513 42.3479 32.2271 41.5912 31.033M31.0773 37.4405C31.864 36.1735 32.7362 35.2209 33.6721 34.6064C34.4665 34.086 35.2863 33.8232 36.1094 33.8232C38.2422 33.8232 39.7811 35.5623 39.9834 37.1725C40.2501 39.2942 39.2076 41.9389 37.1921 44.2467C34.8678 46.9113 31.737 48.577 28.6982 48.7947C28.7626 46.7342 29.118 40.594 31.0773 37.4405ZM29.021 51.1385H28.8188C28.8615 50.8635 28.9157 50.5183 28.9808 50.117C29.2398 50.0942 29.4985 50.0629 29.7566 50.023L29.021 51.1385ZM36.1183 47.1116C36.7148 46.854 37.342 46.5648 37.9685 46.2292L37.9909 46.2176V47.1232H36.1036L36.1183 47.1116Z" fill="white"/>
</g>
<defs>
<filter id="filter0_d_3366_35007" x="0" y="0" width="66" height="66" filterUnits="userSpaceOnUse" color-interpolation-filters="sRGB">
<feFlood flood-opacity="0" result="BackgroundImageFix"/>
<feColorMatrix in="SourceAlpha" type="matrix" values="0 0 0 0 0 0 0 0 0 0 0 0 0 0 0 0 0 0 127 0" result="hardAlpha"/>
<feOffset dx="-3"/>
<feGaussianBlur stdDeviation="5"/>
<feComposite in2="hardAlpha" operator="out"/>
<feColorMatrix type="matrix" values="0 0 0 0 0.952941 0 0 0 0 0.721569 0 0 0 0 0.305882 0 0 0 0.5 0"/>
<feBlend mode="normal" in2="BackgroundImageFix" result="effect1_dropShadow_3366_35007"/>
<feBlend mode="normal" in="SourceGraphic" in2="effect1_dropShadow_3366_35007" result="shape"/>
</filter>
<clipPath id="clip0_3366_35007">
<rect width="32.4091" height="30.3182" fill="white" transform="translate(19.2725 19.4082)"/>
</clipPath>
</defs>
</svg>
