<svg width="76" height="76" viewBox="0 0 76 76" fill="none" xmlns="http://www.w3.org/2000/svg">
<path fill-rule="evenodd" clip-rule="evenodd" d="M74.4647 45.9647C74.242 46.1874 73.9399 46.3125 73.625 46.3125H72.4375V72.4375H73.625C73.9399 72.4375 74.242 72.5626 74.4647 72.7853C74.6874 73.008 74.8125 73.3101 74.8125 73.625C74.8125 73.9399 74.6874 74.242 74.4647 74.4647C74.242 74.6874 73.9399 74.8125 73.625 74.8125H2.375C2.06006 74.8125 1.75801 74.6874 1.53531 74.4647C1.31261 74.242 1.1875 73.9399 1.1875 73.625C1.1875 73.3101 1.31261 73.008 1.53531 72.7853C1.75801 72.5626 2.06006 72.4375 2.375 72.4375H3.5625V46.3125H2.375C2.06006 46.3125 1.75801 46.1874 1.53531 45.9647C1.31261 45.742 1.1875 45.4399 1.1875 45.125V40.375C1.1875 40.0601 1.31261 39.758 1.53531 39.5353C1.75801 39.3126 2.06006 39.1875 2.375 39.1875H20.1875V35.9338C19.3772 36.2226 18.4898 36.2084 17.6891 35.8939C16.8884 35.5795 16.2285 34.9859 15.8314 34.2228C15.4342 33.4597 15.3265 32.5787 15.5283 31.7425C15.7301 30.9063 16.2276 30.1713 16.929 29.6733L35.929 16.1013C36.2008 15.9097 36.4982 15.7574 36.8125 15.6489V2.375C36.8125 2.06006 36.9376 1.75801 37.1603 1.53531C37.383 1.31261 37.6851 1.1875 38 1.1875H47.5C47.8149 1.1875 48.117 1.31261 48.3397 1.53531C48.5624 1.75801 48.6875 2.06006 48.6875 2.375V9.5C48.6875 9.81494 48.5624 10.117 48.3397 10.3397C48.117 10.5624 47.8149 10.6875 47.5 10.6875H39.1875V15.6489C39.5018 15.7574 39.7992 15.9097 40.071 16.1013L59.071 29.6733C59.7724 30.1713 60.2699 30.9063 60.4717 31.7425C60.6735 32.5787 60.5658 33.4597 60.1686 34.2228C59.7715 34.9859 59.1116 35.5795 58.3109 35.8939C57.5102 36.2084 56.6228 36.2226 55.8125 35.9338V39.1875H73.625C73.9399 39.1875 74.242 39.3126 74.4647 39.5353C74.6874 39.758 74.8125 40.0601 74.8125 40.375V45.125C74.8125 45.4399 74.6874 45.742 74.4647 45.9647ZM46.3125 3.5625H39.1875V8.3125H46.3125V3.5625ZM5.9375 72.4375H20.1875V46.3125H5.9375V72.4375ZM3.5625 43.9375H20.1875V41.5625H3.5625V43.9375ZM19.0857 33.7565C19.3033 33.7407 19.5124 33.6653 19.6899 33.5386L37.3101 20.9511C37.5114 20.8073 37.7526 20.7301 38 20.7301C38.2474 20.7301 38.4886 20.8073 38.6899 20.9511L56.3101 33.5386C56.4876 33.6653 56.6967 33.7407 56.9143 33.7565C57.1319 33.7722 57.3496 33.7277 57.5436 33.6278C57.7376 33.528 57.9003 33.3766 58.0138 33.1903C58.1274 33.0041 58.1875 32.7901 58.1875 32.5719C58.1875 32.3828 58.1424 32.1965 58.0558 32.0283C57.9693 31.8602 57.8438 31.7152 57.6899 31.6053L38.6899 18.0334C38.4886 17.8896 38.2474 17.8124 38 17.8124C37.7526 17.8124 37.5114 17.8896 37.3101 18.0334L18.3101 31.6053C18.1562 31.7152 18.0307 31.8602 17.9442 32.0283C17.8576 32.1965 17.8125 32.3828 17.8125 32.5719C17.8125 32.7901 17.8726 33.0041 17.9862 33.1903C18.0997 33.3766 18.2624 33.528 18.4564 33.6278C18.6504 33.7277 18.8681 33.7722 19.0857 33.7565ZM32.0625 58.1875V72.4375H36.8125V58.1875H32.0625ZM39.1875 58.1875V72.4375H43.9375V58.1875H39.1875ZM46.3125 72.4375H53.4375V34.4054L38 23.3783L22.5625 34.4054V72.4375H29.6875V57C29.6875 56.6851 29.8126 56.383 30.0353 56.1603C30.258 55.9376 30.5601 55.8125 30.875 55.8125H45.125C45.4399 55.8125 45.742 55.9376 45.9647 56.1603C46.1874 56.383 46.3125 56.6851 46.3125 57V72.4375ZM55.8125 72.4375H70.0625V46.3125H55.8125V72.4375ZM55.8125 41.5625V43.9375H72.4375V41.5625H55.8125ZM32.0625 34.4375C32.0625 35.6118 32.4107 36.7598 33.0631 37.7362C33.7156 38.7126 34.6429 39.4736 35.7278 39.923C36.8128 40.3724 38.0066 40.49 39.1583 40.2609C40.3101 40.0318 41.3681 39.4663 42.1984 38.6359C43.0288 37.8056 43.5943 36.7476 43.8234 35.5958C44.0525 34.4441 43.9349 33.2503 43.4855 32.1653C43.0361 31.0804 42.2751 30.1531 41.2987 29.5006C40.3223 28.8482 39.1743 28.5 38 28.5C36.4259 28.5019 34.9167 29.128 33.8036 30.2411C32.6905 31.3542 32.0644 32.8634 32.0625 34.4375ZM41.5625 34.4375C41.5625 35.1421 41.3536 35.8309 40.9621 36.4167C40.5707 37.0026 40.0143 37.4592 39.3633 37.7288C38.7123 37.9985 37.996 38.069 37.305 37.9315C36.6139 37.7941 35.9792 37.4548 35.4809 36.9566C34.9827 36.4583 34.6434 35.8236 34.506 35.1325C34.3685 34.4415 34.439 33.7252 34.7087 33.0742C34.9783 32.4232 35.4349 31.8668 36.0208 31.4754C36.6066 31.0839 37.2954 30.875 38 30.875C38.9448 30.875 39.851 31.2503 40.5191 31.9184C41.1872 32.5865 41.5625 33.4927 41.5625 34.4375ZM26.125 43.9375H35.625C35.9399 43.9375 36.242 44.0626 36.4647 44.2853C36.6874 44.508 36.8125 44.8101 36.8125 45.125V52.25C36.8125 52.5649 36.6874 52.867 36.4647 53.0897C36.242 53.3124 35.9399 53.4375 35.625 53.4375H26.125C25.8101 53.4375 25.508 53.3124 25.2853 53.0897C25.0626 52.867 24.9375 52.5649 24.9375 52.25V45.125C24.9375 44.8101 25.0626 44.508 25.2853 44.2853C25.508 44.0626 25.8101 43.9375 26.125 43.9375ZM27.3125 51.0625H34.4375V46.3125H27.3125V51.0625ZM16.625 58.1875H9.5C9.18506 58.1875 8.88301 58.0624 8.66031 57.8397C8.43761 57.617 8.3125 57.3149 8.3125 57V49.875C8.3125 49.5601 8.43761 49.258 8.66031 49.0353C8.88301 48.8126 9.18506 48.6875 9.5 48.6875H16.625C16.9399 48.6875 17.242 48.8126 17.4647 49.0353C17.6874 49.258 17.8125 49.5601 17.8125 49.875V57C17.8125 57.3149 17.6874 57.617 17.4647 57.8397C17.242 58.0624 16.9399 58.1875 16.625 58.1875ZM15.4375 51.0625H10.6875V55.8125H15.4375V51.0625ZM9.5 70.0625H16.625C16.9399 70.0625 17.242 69.9374 17.4647 69.7147C17.6874 69.492 17.8125 69.1899 17.8125 68.875V61.75C17.8125 61.4351 17.6874 61.133 17.4647 60.9103C17.242 60.6876 16.9399 60.5625 16.625 60.5625H9.5C9.18506 60.5625 8.88301 60.6876 8.66031 60.9103C8.43761 61.133 8.3125 61.4351 8.3125 61.75V68.875C8.3125 69.1899 8.43761 69.492 8.66031 69.7147C8.88301 69.9374 9.18506 70.0625 9.5 70.0625ZM10.6875 62.9375H15.4375V67.6875H10.6875V62.9375ZM66.5 58.1875H59.375C59.0601 58.1875 58.758 58.0624 58.5353 57.8397C58.3126 57.617 58.1875 57.3149 58.1875 57V49.875C58.1875 49.5601 58.3126 49.258 58.5353 49.0353C58.758 48.8126 59.0601 48.6875 59.375 48.6875H66.5C66.8149 48.6875 67.117 48.8126 67.3397 49.0353C67.5624 49.258 67.6875 49.5601 67.6875 49.875V57C67.6875 57.3149 67.5624 57.617 67.3397 57.8397C67.117 58.0624 66.8149 58.1875 66.5 58.1875ZM65.3125 51.0625H60.5625V55.8125H65.3125V51.0625ZM59.375 70.0625H66.5C66.8149 70.0625 67.117 69.9374 67.3397 69.7147C67.5624 69.492 67.6875 69.1899 67.6875 68.875V61.75C67.6875 61.4351 67.5624 61.133 67.3397 60.9103C67.117 60.6876 66.8149 60.5625 66.5 60.5625H59.375C59.0601 60.5625 58.758 60.6876 58.5353 60.9103C58.3126 61.133 58.1875 61.4351 58.1875 61.75V68.875C58.1875 69.1899 58.3126 69.492 58.5353 69.7147C58.758 69.9374 59.0601 70.0625 59.375 70.0625ZM60.5625 62.9375H65.3125V67.6875H60.5625V62.9375ZM39.5353 53.0897C39.3126 52.867 39.1875 52.5649 39.1875 52.25V45.125C39.1875 44.8101 39.3126 44.508 39.5353 44.2853C39.758 44.0626 40.0601 43.9375 40.375 43.9375H49.875C50.1899 43.9375 50.492 44.0626 50.7147 44.2853C50.9374 44.508 51.0625 44.8101 51.0625 45.125V52.25C51.0625 52.5649 50.9374 52.867 50.7147 53.0897C50.492 53.3124 50.1899 53.4375 49.875 53.4375H40.375C40.0601 53.4375 39.758 53.3124 39.5353 53.0897ZM48.6875 46.3125H41.5625V51.0625H48.6875V46.3125Z" fill="#1B8B8C"/>
</svg>
