<svg width="75" height="62" viewBox="0 0 75 62" fill="none" xmlns="http://www.w3.org/2000/svg">
<path fill-rule="evenodd" clip-rule="evenodd" d="M37.4265 0.254883C36.6191 0.254883 35.9646 0.909439 35.9646 1.71688V5.31121V7.56485V12.0221H21.6365C20.8291 12.0221 20.1745 12.6767 20.1745 13.4841V19.3321C20.1745 20.1396 20.8291 20.7941 21.6365 20.7941H23.3919V32.6696H1.46199C0.654557 32.6696 0 33.3242 0 34.1316V59.8627C0 60.6702 0.654557 61.3247 1.46199 61.3247H73.3921C74.1995 61.3247 74.8541 60.6702 74.8541 59.8627V34.1316C74.8541 33.3242 74.1995 32.6696 73.3921 32.6696H51.4612V20.7941H53.2156C54.023 20.7941 54.6776 20.1396 54.6776 19.3321V13.4841C54.6776 12.6767 54.023 12.0221 53.2156 12.0221H38.8885V9.02685H47.7017C48.2548 9.02685 48.7606 8.7147 49.0086 8.22029C49.2565 7.72588 49.2043 7.13385 48.8735 6.69055L47.3441 4.64086L48.8735 2.59118C49.2043 2.14788 49.2565 1.55585 49.0086 1.06144C48.7606 0.567026 48.2548 0.254883 47.7017 0.254883H37.4265ZM38.8885 6.10286H44.7867L44.3482 5.51517C43.9613 4.99653 43.9613 4.2852 44.3482 3.76656L44.7867 3.17887H38.8885V5.31121V6.10286ZM48.5372 20.7941H44.005C43.1976 20.7941 42.543 20.1396 42.543 19.3321C42.543 18.5247 43.1976 17.8701 44.005 17.8701H51.7536V14.9461H23.0985V17.8701H30.8471C31.6545 17.8701 32.3091 18.5247 32.3091 19.3321C32.3091 20.1396 31.6545 20.7941 30.8471 20.7941H26.3159V58.4007H30.7544V48.9914C30.7544 45.3061 33.7419 42.3188 37.4269 42.3188C41.1122 42.3188 44.0995 45.3063 44.0995 48.9914V58.4007H48.5372V20.7941ZM51.4612 58.4007V35.5936H71.9301V58.4007H51.4612ZM23.3919 58.4007V35.5936H2.92399V58.4007H23.3919ZM41.1755 48.9914V58.4007H33.6784V48.9914C33.6784 46.921 35.3567 45.2428 37.4269 45.2428C39.4973 45.2428 41.1755 46.9211 41.1755 48.9914ZM7.31043 40.4643C8.11787 40.4643 8.77243 41.1189 8.77243 41.9263V43.6706C8.77243 44.4781 8.11787 45.1326 7.31043 45.1326C6.503 45.1326 5.84844 44.4781 5.84844 43.6706V41.9263C5.84844 41.1189 6.503 40.4643 7.31043 40.4643ZM14.6209 41.9263C14.6209 41.1189 13.9663 40.4643 13.1589 40.4643C12.3514 40.4643 11.6969 41.1189 11.6969 41.9263V43.6706C11.6969 44.4781 12.3514 45.1326 13.1589 45.1326C13.9663 45.1326 14.6209 44.4781 14.6209 43.6706V41.9263ZM19.0073 40.4643C19.8147 40.4643 20.4693 41.1189 20.4693 41.9263V43.6706C20.4693 44.4781 19.8147 45.1326 19.0073 45.1326C18.1999 45.1326 17.5453 44.4781 17.5453 43.6706V41.9263C17.5453 41.1189 18.1999 40.4643 19.0073 40.4643ZM8.77243 50.3237C8.77243 49.5163 8.11787 48.8617 7.31043 48.8617C6.503 48.8617 5.84844 49.5163 5.84844 50.3237V52.068C5.84844 52.8755 6.503 53.53 7.31043 53.53C8.11787 53.53 8.77243 52.8755 8.77243 52.068V50.3237ZM13.1589 48.8617C13.9663 48.8617 14.6209 49.5163 14.6209 50.3237V52.068C14.6209 52.8755 13.9663 53.53 13.1589 53.53C12.3514 53.53 11.6969 52.8755 11.6969 52.068V50.3237C11.6969 49.5163 12.3514 48.8617 13.1589 48.8617ZM20.4693 50.3237C20.4693 49.5163 19.8147 48.8617 19.0073 48.8617C18.1999 48.8617 17.5453 49.5163 17.5453 50.3237V52.068C17.5453 52.8755 18.1999 53.53 19.0073 53.53C19.8147 53.53 20.4693 52.8755 20.4693 52.068V50.3237ZM67.5781 40.4643C68.3855 40.4643 69.0401 41.1188 69.0401 41.9263V43.6706C69.0401 44.478 68.3855 45.1326 67.5781 45.1326C66.7707 45.1326 66.1161 44.478 66.1161 43.6706V41.9263C66.1161 41.1188 66.7707 40.4643 67.5781 40.4643ZM63.1935 41.9263C63.1935 41.1188 62.539 40.4643 61.7315 40.4643C60.9241 40.4643 60.2695 41.1188 60.2695 41.9263V43.6706C60.2695 44.478 60.9241 45.1326 61.7315 45.1326C62.539 45.1326 63.1935 44.478 63.1935 43.6706V41.9263ZM55.8829 40.4643C56.6903 40.4643 57.3449 41.1188 57.3449 41.9263V43.6706C57.3449 44.478 56.6903 45.1326 55.8829 45.1326C55.0755 45.1326 54.4209 44.478 54.4209 43.6706V41.9263C54.4209 41.1188 55.0755 40.4643 55.8829 40.4643ZM69.0403 50.3237C69.0403 49.5163 68.3857 48.8617 67.5783 48.8617C66.7709 48.8617 66.1163 49.5163 66.1163 50.3237V52.068C66.1163 52.8755 66.7709 53.53 67.5783 53.53C68.3857 53.53 69.0403 52.8755 69.0403 52.068V50.3237ZM61.7317 48.8617C62.5392 48.8617 63.1937 49.5163 63.1937 50.3237V52.068C63.1937 52.8755 62.5392 53.53 61.7317 53.53C60.9243 53.53 60.2697 52.8755 60.2697 52.068V50.3237C60.2697 49.5163 60.9243 48.8617 61.7317 48.8617ZM57.3451 50.3237C57.3451 49.5163 56.6905 48.8617 55.8831 48.8617C55.0756 48.8617 54.4211 49.5163 54.4211 50.3237V52.068C54.4211 52.8755 55.0756 53.53 55.8831 53.53C56.6905 53.53 57.3451 52.8755 57.3451 52.068V50.3237Z" fill="white"/>
<path d="M42.6379 59.717V48.9918C42.6379 46.1142 40.3051 43.7812 37.4273 43.7812C34.5497 43.7812 32.2168 46.114 32.2168 48.9918V59.717" stroke="white" stroke-width="2.92399" stroke-miterlimit="10" stroke-linecap="round" stroke-linejoin="round"/>
<path d="M37.426 35.7641C39.7064 35.7641 41.5551 33.9154 41.5551 31.635C41.5551 29.3545 39.7064 27.5059 37.426 27.5059C35.1455 27.5059 33.2969 29.3545 33.2969 31.635C33.2969 33.9154 35.1455 35.7641 37.426 35.7641Z" stroke="white" stroke-width="2.92399" stroke-miterlimit="10" stroke-linecap="round" stroke-linejoin="round"/>
</svg>
