<svg width="62" height="62" viewBox="0 0 62 62" fill="none" xmlns="http://www.w3.org/2000/svg">
<g clip-path="url(#clip0_3343_17752)">
<path d="M23.2358 23.3388C23.6827 23.111 23.8604 22.5642 23.6327 22.1172C23.4049 21.6702 22.8579 21.4925 22.4111 21.7204C21.3063 22.2833 19.987 22.2835 18.8823 21.7204C18.4354 21.4926 17.8885 21.6702 17.6607 22.1172C17.433 22.5642 17.6107 23.111 18.0575 23.3388C18.8681 23.7518 19.7574 23.9583 20.6466 23.9583C21.536 23.9584 22.4252 23.7518 23.2358 23.3388Z" fill="#1B8B8C"/>
<path d="M18.8457 18.6597V17.6182C18.8457 17.1166 18.4391 16.71 17.9375 16.71C17.4359 16.71 17.0293 17.1166 17.0293 17.6182V18.6597C17.0293 19.1613 17.4359 19.5679 17.9375 19.5679C18.4391 19.5679 18.8457 19.1613 18.8457 18.6597Z" fill="#1B8B8C"/>
<path d="M23.3564 19.5679C23.858 19.5679 24.2646 19.1613 24.2646 18.6597V17.6182C24.2646 17.1166 23.858 16.71 23.3564 16.71C22.8549 16.71 22.4482 17.1166 22.4482 17.6182V18.6597C22.4482 19.1613 22.8549 19.5679 23.3564 19.5679Z" fill="#1B8B8C"/>
<path d="M60.3942 44.9392C61.3842 43.9673 62 42.6153 62 41.1216V38.7195C62 35.8878 60.8166 33.329 58.9206 31.506V4.07359C58.9206 1.82743 57.0932 0 54.847 0H8.05758C5.81141 0 3.98398 1.82743 3.98398 4.07359V21.4748C3.98398 21.9763 4.39062 22.383 4.89219 22.383C5.39376 22.383 5.80039 21.9763 5.80039 21.4748V4.07359C5.80039 2.82899 6.81298 1.81641 8.05758 1.81641H54.847C56.0916 1.81641 57.1042 2.82899 57.1042 4.07359V30.1176C55.6058 29.2228 53.8561 28.7071 51.9876 28.7071C46.4667 28.7071 41.9752 33.1986 41.9752 38.7195V41.1216C41.9752 41.1474 41.9768 41.1728 41.9771 41.1985H41.0122V38.7197C41.0122 38.5577 41.008 38.3939 41 38.2327C40.9751 37.7317 40.5485 37.3465 40.048 37.3706C39.547 37.3954 39.161 37.8218 39.1859 38.3227C39.1925 38.4539 39.1957 38.5876 39.1957 38.7196V49.3698C39.1957 49.5935 39.0137 49.7755 38.7901 49.7755H23.21C22.9864 49.7755 22.8044 49.5936 22.8044 49.3698V38.7196C22.8044 34.1999 26.4809 30.5228 31 30.5228C33.1891 30.5228 35.2472 31.3753 36.7952 32.9232C37.3177 33.4457 37.7667 34.0349 38.1298 34.6742C38.3774 35.1105 38.9319 35.2633 39.3679 35.0156C39.8041 34.768 39.9569 34.2135 39.7093 33.7774C39.2657 32.9962 38.7174 32.2767 38.0796 31.6389C36.1885 29.7479 33.6742 28.7065 31 28.7065C29.6402 28.7065 28.3434 28.9802 27.1602 29.4734C26.35 28.5315 25.322 27.7873 24.1752 27.315V27.2018C25.6905 26.4747 26.925 25.2973 27.741 23.8734C30.2014 22.7479 31.7745 20.3142 31.7745 17.5871V13.7272C31.7745 7.40525 26.6313 2.26203 20.3094 2.26203C13.9874 2.26203 8.8442 7.40525 8.8442 13.7272V17.5871C8.8442 20.6531 10.8372 23.3183 13.7361 24.1999C14.0557 24.7019 14.4304 25.1737 14.8614 25.605C15.5246 26.2672 16.2808 26.8023 17.1159 27.2012V27.3155C16.1566 27.7099 15.2753 28.2957 14.5392 29.033C14.37 29.2021 14.209 29.3796 14.0561 29.563C12.8185 29.0143 11.451 28.707 10.0124 28.707C8.50829 28.707 7.08168 29.0425 5.80027 29.6393V25.713C5.80027 25.2115 5.39364 24.8048 4.89207 24.8048C4.3905 24.8048 3.98386 25.2115 3.98386 25.713V30.7315C1.56586 32.561 0 35.4605 0 38.7195V41.1216C0 42.6153 0.615762 43.9673 1.60582 44.9392C1.74545 47.2917 3.18586 49.2987 5.21648 50.2505C2.11079 51.9525 0 55.2525 0 59.037V60.0207C0 61.112 0.88798 62 1.97928 62H18.0455C19.1369 62 20.0248 61.112 20.0248 60.0207V59.037C20.0248 55.2527 17.914 51.9525 14.8083 50.2504C16.8383 49.2988 18.2784 47.2921 18.4182 44.9399C18.967 44.4016 19.4003 43.7464 19.6779 43.0149H20.988V49.3699C20.988 50.5951 21.9848 51.592 23.21 51.592H24.3035C22.2288 53.4594 20.9875 56.1471 20.9875 59.0365V60.0208C20.9875 61.1123 21.8753 62.0001 22.9668 62.0001H39.0331C40.1245 62.0001 41.0124 61.1123 41.0124 60.0208V59.0365C41.0124 56.3619 39.971 53.8475 38.0795 51.956C37.9541 51.8307 37.825 51.7099 37.6939 51.592H38.79C40.0152 51.592 41.012 50.5953 41.012 49.3699V43.0149H42.3221C42.5998 43.7464 43.0331 44.4016 43.5818 44.9399C43.7216 47.2921 45.1617 49.2988 47.1917 50.2504C44.086 51.9524 41.9752 55.2525 41.9752 59.037V60.0207C41.9752 61.1121 42.8632 62 43.9545 62H60.0207C61.1121 62 62 61.112 62 60.0207V59.037C62 55.2527 59.8892 51.9525 56.7835 50.2505C58.8141 49.2987 60.2546 47.2917 60.3942 44.9392ZM10.6607 17.5872V13.7273C10.6607 8.40693 14.9891 4.07856 20.3095 4.07856C25.6299 4.07856 29.9582 8.40693 29.9582 13.7273V17.5872C29.9582 18.8255 29.5185 19.9818 28.7571 20.8814C28.8037 20.5317 28.8288 20.177 28.8288 19.8188V16.4913C28.8288 16.1143 28.803 15.7363 28.752 15.3676C28.6877 14.9014 28.4166 14.4993 28.0084 14.2641C27.5976 14.0275 27.1101 13.9948 26.6709 14.1746C26.0825 14.4154 25.4587 14.5374 24.8171 14.5374C23.6584 14.5374 22.5336 14.1245 21.6497 13.3746C21.0685 12.8812 20.2248 12.8816 19.6439 13.3749C18.7609 14.1245 17.6365 14.5374 16.4778 14.5374C15.8351 14.5374 15.2111 14.4154 14.6232 14.1746C14.1837 13.9947 13.6958 14.0273 13.2848 14.2642C12.8764 14.4995 12.6055 14.9022 12.5414 15.3685C12.4908 15.7375 12.465 16.1153 12.465 16.4914V19.8189C12.465 20.443 12.5368 21.0558 12.672 21.6499C11.4332 20.7098 10.6607 19.2263 10.6607 17.5872ZM16.1457 24.3205C14.9435 23.1172 14.2813 21.5185 14.2813 19.8188V16.4913C14.2813 16.3249 14.2877 16.1584 14.3004 15.993C14.9988 16.2325 15.7295 16.3537 16.4777 16.3537C17.9921 16.3537 19.4639 15.8394 20.6471 14.9009C21.8309 15.8393 23.3029 16.3537 24.8171 16.3537C25.5643 16.3537 26.2947 16.2325 26.9931 15.993C27.0058 16.1581 27.0124 16.3248 27.0124 16.4913V19.8188C27.0124 22.4308 25.3758 24.8179 22.9399 25.7586C22.5898 25.8938 22.3589 26.2305 22.3589 26.6059V28.2247C22.3589 29.1708 21.6191 29.9671 20.7097 29.9999C20.2405 30.0171 19.7943 29.8468 19.4566 29.5208C19.1185 29.1947 18.9324 28.7569 18.9324 28.2877V26.6048C18.9324 26.2296 18.7017 25.8931 18.3519 25.7577C17.5212 25.4362 16.7786 24.9526 16.1457 24.3205ZM1.81641 38.7195C1.81641 34.2001 5.49318 30.5235 10.0125 30.5235C14.5319 30.5235 18.2085 34.2001 18.2085 38.7195V41.1216C18.2085 43.0714 16.6223 44.6576 14.6726 44.6576H5.35234C3.40261 44.6576 1.81641 43.0714 1.81641 41.1216V38.7195ZM18.2085 59.037V60.0207C18.2085 60.1106 18.1354 60.1836 18.0456 60.1836H1.97928C1.88943 60.1836 1.81641 60.1105 1.81641 60.0207V59.037C1.81641 54.5215 5.48688 50.8476 10.0008 50.8412H10.024C14.538 50.8475 18.2085 54.5215 18.2085 59.037ZM12.1542 49.0248H10.0241C10.0203 49.0248 10.0164 49.0246 10.0125 49.0246C10.0086 49.0246 10.0048 49.0248 10.0009 49.0248H7.87109C5.99729 49.0248 4.39074 47.8629 3.73102 46.2222C4.24276 46.3853 4.78732 46.474 5.35234 46.474H14.6726C15.2373 46.474 15.7815 46.3854 16.293 46.2226C15.6336 47.863 14.0274 49.0248 12.1542 49.0248ZM20.023 41.1985C20.0233 41.1728 20.0249 41.1474 20.0249 41.1216V38.7195C20.0249 35.3003 18.3011 32.2774 15.6781 30.4702C15.7263 30.4186 15.7743 30.3669 15.8243 30.3169C16.2455 29.895 16.7285 29.5386 17.2511 29.2584C17.419 29.8494 17.7396 30.3884 18.1955 30.828C18.8597 31.4689 19.7247 31.8173 20.6436 31.8173C20.6873 31.8173 20.7311 31.8165 20.7751 31.8148C22.3311 31.7588 23.6116 30.6979 24.0301 29.2526C24.5737 29.5429 25.0731 29.9145 25.5063 30.3545C22.7873 32.1466 20.988 35.2262 20.988 38.7196V41.1984H20.023V41.1985ZM36.7954 53.2408C38.3434 54.7887 39.1959 56.847 39.1959 59.0364V60.0207C39.1959 60.1106 39.1228 60.1836 39.033 60.1836H22.9668C22.8769 60.1836 22.8039 60.1106 22.8039 60.0207V59.0364C22.8039 55.8318 24.6689 52.9304 27.5697 51.5919H34.4283C35.3069 51.9969 36.1035 52.5498 36.7954 53.2408ZM43.7915 38.7195C43.7915 34.2001 47.4681 30.5235 51.9875 30.5235C56.5068 30.5235 60.1836 34.2001 60.1836 38.7195V41.1216C60.1836 43.0714 58.5974 44.6576 56.6477 44.6576H47.3274C45.3777 44.6576 43.7915 43.0714 43.7915 41.1216V38.7195ZM60.1836 59.037V60.0207C60.1836 60.1106 60.1105 60.1836 60.0207 60.1836H43.9545C43.8646 60.1836 43.7916 60.1105 43.7916 60.0207V59.037C43.7916 54.5215 47.462 50.8476 51.976 50.8412H51.9992C56.5131 50.8475 60.1836 54.5215 60.1836 59.037ZM54.1289 49.0248H51.9992C51.9954 49.0248 51.9915 49.0246 51.9876 49.0246C51.9837 49.0246 51.9799 49.0248 51.976 49.0248H49.8459C47.9727 49.0248 46.3667 47.863 45.7071 46.2225C46.2186 46.3853 46.7629 46.4738 47.3276 46.4738H56.6477C57.2127 46.4738 57.7572 46.3852 58.269 46.2221C57.6093 47.8629 56.0027 49.0248 54.1289 49.0248Z" fill="#1B8B8C"/>
<path d="M39.3703 3.92676H38.2114C35.5921 3.92676 33.4609 6.05789 33.4609 8.67727V15.2115C33.4609 17.8309 35.5921 19.962 38.2114 19.962H41.148V22.5788C41.148 23.5392 41.7348 24.3613 42.643 24.6733C42.8863 24.7568 43.1338 24.7974 43.3772 24.7974C44.0427 24.7974 44.6776 24.4944 45.1099 23.9396L48.206 19.962H50.5412C53.1606 19.962 55.2917 17.8309 55.2917 15.2115V8.67727C55.2917 6.05789 53.1606 3.92676 50.5412 3.92676H43.6086C43.107 3.92676 42.7004 4.33339 42.7004 4.83496C42.7004 5.33653 43.107 5.74316 43.6086 5.74316H50.5412C52.159 5.74316 53.4753 7.05945 53.4753 8.67727V15.2115C53.4753 16.8293 52.159 18.1456 50.5412 18.1456H47.7621C47.482 18.1456 47.2174 18.2748 47.0455 18.4959L43.6769 22.8236C43.5248 23.0186 43.3336 22.9901 43.2332 22.9554C43.1328 22.9209 42.9644 22.8262 42.9644 22.5788V19.0538C42.9644 18.5522 42.5577 18.1456 42.0562 18.1456H38.2114C36.5936 18.1456 35.2773 16.8293 35.2773 15.2115V8.67727C35.2773 7.05945 36.5936 5.74316 38.2114 5.74316H39.3703C39.8719 5.74316 40.2785 5.33653 40.2785 4.83496C40.2785 4.33339 39.8719 3.92676 39.3703 3.92676Z" fill="#1B8B8C"/>
<path d="M50.1885 8.81934H38.5635C38.0619 8.81934 37.6553 9.22597 37.6553 9.72754C37.6553 10.2291 38.0619 10.6357 38.5635 10.6357H50.1885C50.69 10.6357 51.0967 10.2291 51.0967 9.72754C51.0967 9.22597 50.69 8.81934 50.1885 8.81934Z" fill="#1B8B8C"/>
<path d="M50.1885 12.7246H38.5635C38.0619 12.7246 37.6553 13.1312 37.6553 13.6328C37.6553 14.1344 38.0619 14.541 38.5635 14.541H50.1885C50.69 14.541 51.0967 14.1344 51.0967 13.6328C51.0967 13.1312 50.69 12.7246 50.1885 12.7246Z" fill="#1B8B8C"/>
</g>
<defs>
<clipPath id="clip0_3343_17752">
<rect width="62" height="62" fill="white"/>
</clipPath>
</defs>
</svg>
