<svg width="62" height="62" viewBox="0 0 62 62" fill="none" xmlns="http://www.w3.org/2000/svg">
<g clip-path="url(#clip0_3343_17740)">
<path d="M31.8322 43.4658L29.9121 43.7225C29.9906 44.3164 30.0313 44.9257 30.0313 45.5312H31.9688C31.9688 44.8395 31.9232 44.1449 31.8322 43.4658Z" fill="#ffffff"/>
<path d="M58.125 6.78125H57.1562V3.875C57.1562 2.27269 55.8523 0.96875 54.25 0.96875H52.3125C50.7102 0.96875 49.4062 2.27269 49.4062 3.875V6.78125H22.2812V3.875C22.2812 2.27269 20.9773 0.96875 19.375 0.96875H17.4375C15.8352 0.96875 14.5312 2.27269 14.5312 3.875V6.78125H13.5625C11.9602 6.78125 10.6562 8.08519 10.6562 9.6875V31.1724C4.98325 33.4771 0.96875 39.0406 0.96875 45.5312C0.96875 54.0776 7.92244 61.0312 16.4688 61.0312C22.8809 61.0312 28.5035 57.0603 30.8266 51.3438H58.125C59.7273 51.3438 61.0312 50.0398 61.0312 48.4375V9.6875C61.0312 8.08519 59.7273 6.78125 58.125 6.78125ZM51.3438 3.875C51.3438 3.34122 51.7787 2.90625 52.3125 2.90625H54.25C54.7838 2.90625 55.2188 3.34122 55.2188 3.875V11.625C55.2188 12.1588 54.7838 12.5938 54.25 12.5938H52.3125C51.7787 12.5938 51.3438 12.1588 51.3438 11.625V3.875ZM16.4688 3.875C16.4688 3.34122 16.9037 2.90625 17.4375 2.90625H19.375C19.9088 2.90625 20.3438 3.34122 20.3438 3.875V11.625C20.3438 12.1588 19.9088 12.5938 19.375 12.5938H17.4375C16.9037 12.5938 16.4688 12.1588 16.4688 11.625V3.875ZM29.9111 47.3409C29.0189 54.0407 23.2403 59.0938 16.4688 59.0938C8.99 59.0938 2.90625 53.01 2.90625 45.5312C2.90625 38.0525 8.99 31.9688 16.4688 31.9688C22.5506 31.9688 27.9281 36.0588 29.544 41.9139L31.4117 41.3986C29.5643 34.7055 23.4195 30.0312 16.4688 30.0312C15.129 30.0312 13.8347 30.2202 12.5938 30.5418V9.6875C12.5938 9.15372 13.0287 8.71875 13.5625 8.71875H14.5312V11.625C14.5312 13.2273 15.8352 14.5312 17.4375 14.5312H19.375C20.9773 14.5312 22.2812 13.2273 22.2812 11.625V8.71875H49.4062V11.625C49.4062 13.2273 50.7102 14.5312 52.3125 14.5312H54.25C55.8523 14.5312 57.1562 13.2273 57.1562 11.625V8.71875H58.125C58.6588 8.71875 59.0938 9.15372 59.0938 9.6875V18.4062H18.4062V20.3438H59.0938V39.6015L56.0073 35.2809C55.8504 35.061 55.6092 34.9176 55.3418 34.8827C55.0763 34.8508 54.8051 34.9263 54.5978 35.0997L51.3428 37.8123V33.9062H57.1553V31.9688H50.374C49.8393 31.9688 49.4053 32.4028 49.4053 32.9375V39.4262L37.4306 49.4062H31.466C31.619 48.8143 31.7498 48.2147 31.8322 47.5966L29.9111 47.3409ZM55.0366 37.2562L58.5842 42.222L42.4196 49.4062H40.4569L55.0366 37.2562ZM58.125 49.4062H47.1898L59.0938 44.1159V48.4375C59.0938 48.9713 58.6588 49.4062 58.125 49.4062Z" fill="white"/>
<path d="M14.5312 18.4062H16.4688V20.3438H14.5312V18.4062Z" fill="#ffffff"/>
<path d="M22.2812 29.0625V23.25C22.2812 22.7153 21.8472 22.2812 21.3125 22.2812H15.5C14.9653 22.2812 14.5312 22.7153 14.5312 23.25V29.0625C14.5312 29.5972 14.9653 30.0312 15.5 30.0312H16.4688H21.3125C21.8472 30.0312 22.2812 29.5972 22.2812 29.0625ZM20.3438 28.0938H16.4688V24.2188H20.3438V28.0938Z" fill="white"/>
<path d="M32.9375 30.0312C33.4722 30.0312 33.9062 29.5972 33.9062 29.0625V23.25C33.9062 22.7153 33.4722 22.2812 32.9375 22.2812H27.125C26.5903 22.2812 26.1562 22.7153 26.1562 23.25V29.0625C26.1562 29.5972 26.5903 30.0312 27.125 30.0312H32.9375ZM28.0938 24.2188H31.9688V28.0938H28.0938V24.2188Z" fill="white"/>
<path d="M38.75 30.0312H44.5625C45.0972 30.0312 45.5312 29.5972 45.5312 29.0625V23.25C45.5312 22.7153 45.0972 22.2812 44.5625 22.2812H38.75C38.2153 22.2812 37.7812 22.7153 37.7812 23.25V29.0625C37.7812 29.5972 38.2153 30.0312 38.75 30.0312ZM39.7188 24.2188H43.5938V28.0938H39.7188V24.2188Z" fill="white"/>
<path d="M50.375 30.0312H56.1875C56.7222 30.0312 57.1562 29.5972 57.1562 29.0625V23.25C57.1562 22.7153 56.7222 22.2812 56.1875 22.2812H50.375C49.8403 22.2812 49.4062 22.7153 49.4062 23.25V29.0625C49.4062 29.5972 49.8403 30.0312 50.375 30.0312ZM51.3438 24.2188H55.2188V28.0938H51.3438V24.2188Z" fill="white"/>
<path d="M31.9688 39.7188H33.9062V32.9375C33.9062 32.4028 33.4722 31.9688 32.9375 31.9688H27.125V33.9062H31.9688V39.7188Z" fill="#ffffff"/>
<path d="M38.75 39.7188H44.5625C45.0972 39.7188 45.5312 39.2847 45.5312 38.75V32.9375C45.5312 32.4028 45.0972 31.9688 44.5625 31.9688H38.75C38.2153 31.9688 37.7812 32.4028 37.7812 32.9375V38.75C37.7812 39.2847 38.2153 39.7188 38.75 39.7188ZM39.7188 33.9062H43.5938V37.7812H39.7188V33.9062Z" fill="white"/>
<path d="M17.4375 35.9416V33.9062H15.5V35.9416C13.2922 36.3921 11.625 38.348 11.625 40.6875C11.625 43.3583 13.7979 45.5312 16.4688 45.5312C18.0711 45.5312 19.375 46.8352 19.375 48.4375C19.375 50.0398 18.0711 51.3438 16.4688 51.3438C14.8664 51.3438 13.5625 50.0398 13.5625 48.4375V47.4688H11.625V48.4375C11.625 50.7761 13.2922 52.7329 15.5 53.1834V55.2188H17.4375V53.1834C19.6453 52.7329 21.3125 50.777 21.3125 48.4375C21.3125 45.7667 19.1396 43.5938 16.4688 43.5938C14.8664 43.5938 13.5625 42.2898 13.5625 40.6875C13.5625 39.0852 14.8664 37.7812 16.4688 37.7812C18.0711 37.7812 19.375 39.0852 19.375 40.6875V41.6562H21.3125V40.6875C21.3125 38.3489 19.6453 36.3921 17.4375 35.9416Z" fill="white"/>
</g>
<defs>
<clipPath id="clip0_3343_17740">
<rect width="62" height="62" fill="white"/>
</clipPath>
</defs>
</svg>
