<svg width="131" height="76" viewBox="0 0 131 76" fill="none" xmlns="http://www.w3.org/2000/svg">
<path d="M21.2319 24.8379H53.9679V41.9473H21.2319C19.4346 41.9473 17.7109 41.2362 16.44 39.9704C15.1691 38.7046 14.4551 36.9878 14.4551 35.1976V31.5838C14.4561 29.7943 15.1705 28.0785 16.4413 26.8135C17.7121 25.5485 19.4352 24.8379 21.2319 24.8379Z" fill="#F9CE68"/>
<path d="M45.4102 24.8379H114.453C114.603 24.8378 114.752 24.8677 114.89 24.9257C115.028 24.9836 115.153 25.0686 115.258 25.1755C115.363 25.2824 115.445 25.4091 115.5 25.5481C115.555 25.6872 115.582 25.8358 115.578 25.9851V26.5855C115.578 26.8827 115.459 27.1677 115.248 27.3779C115.037 27.588 114.751 27.706 114.453 27.706H45.4102V24.8379Z" fill="#F9CE68"/>
<path d="M45.4102 39.1113H114.453C114.751 39.1113 115.037 39.2294 115.248 39.4395C115.459 39.6496 115.578 39.9346 115.578 40.2318V40.8322C115.578 41.1294 115.459 41.4144 115.248 41.6245C115.037 41.8347 114.751 41.9527 114.453 41.9527H45.4102V39.1113Z" fill="#F9CE68"/>
<path d="M113.487 39.116H53.2402C52.4866 39.116 51.7403 38.9681 51.0441 38.6808C50.3479 38.3934 49.7154 37.9722 49.1827 37.4413C48.65 36.9104 48.2275 36.2801 47.9395 35.5865C47.6514 34.8929 47.5034 34.1495 47.5039 33.3989C47.5039 31.8836 48.1083 30.4304 49.184 29.3589C50.2598 28.2875 51.7188 27.6855 53.2402 27.6855H113.487C112.688 29.486 112.276 31.4326 112.276 33.4008C112.276 35.369 112.688 37.3155 113.487 39.116Z" fill="#FCECDB"/>
<path opacity="0.3" d="M47.502 41.959H21.3624C19.5294 41.959 17.7715 41.2337 16.4754 39.9428C15.1793 38.6519 14.4512 36.901 14.4512 35.0754V31.6757C14.4512 29.8643 15.1737 28.127 16.4597 26.8462C17.7457 25.5653 19.4899 24.8457 21.3086 24.8457H48.1509C41.9347 28.6011 42.3993 37.5879 47.502 41.959Z" fill="#F7A705"/>
<path d="M106.165 33.9314C106.165 33.9887 93.7983 34.0346 78.5476 34.0346C63.2969 34.0346 50.9297 33.9887 50.9297 33.9314C50.9297 33.874 63.293 33.8281 78.5476 33.8281C93.8021 33.8281 106.165 33.874 106.165 33.9314Z" fill="#263238"/>
<path d="M111.849 36.4705C111.849 36.5279 99.4819 36.5738 84.2312 36.5738C68.9805 36.5738 56.6133 36.5279 56.6133 36.4705C56.6133 36.4132 68.9766 36.3711 84.2312 36.3711C99.4857 36.3711 111.849 36.417 111.849 36.4705Z" fill="#263238"/>
<path d="M110.177 30.3279C110.177 30.3852 97.8099 30.4311 82.5592 30.4311C67.3085 30.4311 54.9375 30.3852 54.9375 30.3279C54.9375 30.2705 67.3009 30.2246 82.5592 30.2246C97.8176 30.2246 110.177 30.2782 110.177 30.3279Z" fill="#263238"/>
<path d="M6.77681 53.9648H50.8894V75.9998H6.77681C4.97948 75.9998 3.25578 75.2887 1.98488 74.0229C0.713985 72.7571 0 71.0403 0 69.2501V60.7145C0 59.8282 0.175285 58.9505 0.515852 58.1315C0.856418 57.3126 1.3556 56.5686 1.98488 55.9418C2.61417 55.315 3.36124 54.8178 4.18344 54.4786C5.00564 54.1394 5.88686 53.9648 6.77681 53.9648Z" fill="#F9CE68"/>
<path d="M39.8652 53.9648H129.112C129.41 53.9648 129.696 54.0829 129.907 54.293C130.118 54.5032 130.237 54.7882 130.237 55.0853V56.5041C130.237 56.8013 130.118 57.0863 129.907 57.2964C129.696 57.5065 129.41 57.6246 129.112 57.6246H39.8652V53.9648Z" fill="#F9CE68"/>
<path d="M39.8652 72.3418H129.112C129.41 72.3418 129.696 72.4599 129.907 72.67C130.118 72.8801 130.237 73.1651 130.237 73.4623V74.8811C130.237 75.0282 130.208 75.1739 130.151 75.3099C130.095 75.4458 130.012 75.5693 129.907 75.6734C129.803 75.7774 129.679 75.8599 129.542 75.9163C129.406 75.9726 129.259 76.0016 129.112 76.0016H39.8652V72.3418Z" fill="#F9CE68"/>
<path d="M127.54 72.3443H49.9576C47.998 72.3433 46.119 71.5673 44.7338 70.1868C43.3485 68.8064 42.5703 66.9345 42.5703 64.9827C42.5703 64.0165 42.7614 63.0597 43.1326 62.1671C43.5039 61.2744 44.048 60.4633 44.734 59.78C45.42 59.0968 46.2343 58.5548 47.1306 58.1851C48.0269 57.8153 48.9875 57.625 49.9576 57.625H127.54C126.51 59.9432 125.979 62.45 125.979 64.9847C125.979 67.5194 126.51 70.0261 127.54 72.3443Z" fill="#FCECDB"/>
<path opacity="0.3" d="M42.5635 76.0003H6.69052C5.81236 76.0003 4.9428 75.828 4.13153 75.4932C3.32026 75.1583 2.58317 74.6676 1.96239 74.0489C1.34162 73.4303 0.849308 72.6959 0.513598 71.8876C0.177888 71.0794 0.00535608 70.2132 0.00586048 69.3386V60.8718C0.00586048 59.0462 0.734003 57.2953 2.0301 56.0044C3.3262 54.7135 5.08409 53.9883 6.91705 53.9883H43.3928C35.395 58.7991 35.994 70.3749 42.5635 76.0003Z" fill="#F7A705"/>
<path d="M118.11 65.6677C118.11 65.7251 102.184 65.771 82.5442 65.771C62.9049 65.771 46.9746 65.7251 46.9746 65.6677C46.9746 65.6104 62.8972 65.5645 82.5442 65.5645C102.191 65.5645 118.11 65.6104 118.11 65.6677Z" fill="#263238"/>
<path d="M125.438 68.9393C125.438 68.9966 109.512 69.0425 89.8684 69.0425C70.2253 69.0425 54.2988 68.9966 54.2988 68.9393C54.2988 68.8819 70.2215 68.8398 89.8684 68.8398C109.515 68.8398 125.438 68.9049 125.438 68.9393Z" fill="#263238"/>
<path d="M123.294 62.6306C123.294 62.688 107.371 62.7339 87.7278 62.7339C68.0847 62.7339 52.1582 62.688 52.1582 62.6306C52.1582 62.5732 68.0808 62.5273 87.7278 62.5273C107.375 62.5273 123.294 62.5732 123.294 62.6306Z" fill="#263238"/>
<path d="M27.757 41.4297H64.1022V54.0495H27.757C26.4332 54.0495 25.1636 53.5257 24.2276 52.5934C23.2915 51.6611 22.7656 50.3966 22.7656 49.0781V46.4011C22.7656 45.0826 23.2915 43.8181 24.2276 42.8858C25.1636 41.9535 26.4332 41.4297 27.757 41.4297Z" fill="#18898E"/>
<path d="M55.1484 41.4297H127.393C127.706 41.4297 128.006 41.5534 128.227 41.7736C128.448 41.9937 128.572 42.2923 128.572 42.6037V43.2309C128.572 43.5423 128.448 43.8409 128.227 44.061C128.006 44.2812 127.706 44.4049 127.393 44.4049H55.1484V41.4335V41.4297Z" fill="#18898E"/>
<path d="M55.1484 51.0742H127.393C127.706 51.0742 128.006 51.1979 128.227 51.4181C128.448 51.6383 128.572 51.9369 128.572 52.2482V52.8754C128.572 53.1868 128.448 53.4854 128.227 53.7056C128.006 53.9257 127.706 54.0494 127.393 54.0494H55.1484V51.078V51.0742Z" fill="#18898E"/>
<path d="M126.36 51.0756H60.7035C59.8152 51.0756 58.9632 50.7243 58.3347 50.0991C57.7062 49.4738 57.3526 48.6256 57.3516 47.7409C57.3516 46.8554 57.7047 46.0063 58.3333 45.3802C58.9619 44.7541 59.8145 44.4023 60.7035 44.4023H126.36C124.681 46.628 124.681 48.8524 126.36 51.0756Z" fill="#FCECDB"/>
<path opacity="0.3" d="M57.3347 54.0457H27.7701C27.1098 54.0457 26.4559 53.9161 25.8459 53.6643C25.2358 53.4125 24.6816 53.0434 24.2149 52.5782C23.7481 52.1129 23.378 51.5606 23.1256 50.9528C22.8733 50.3451 22.7436 49.6937 22.7441 49.036V46.5426C22.7436 45.8714 22.8759 45.2066 23.1335 44.5863C23.3911 43.966 23.7688 43.4023 24.2452 42.9275C24.7216 42.4526 25.2873 42.076 25.9099 41.819C26.5325 41.562 27.1998 41.4297 27.8738 41.4297H58.0181C51.5101 44.1984 51.9977 50.8257 57.3347 54.0457Z" fill="#163642"/>
<path d="M118.721 47.2127C118.721 47.2701 105.781 47.316 89.8242 47.316C73.867 47.316 60.9277 47.2701 60.9277 47.2127C60.9277 47.1554 73.8632 47.1133 89.8242 47.1133C105.785 47.1133 118.721 47.1592 118.721 47.2127Z" fill="#263238"/>
<path d="M124.666 49.0173C124.666 49.0747 111.727 49.1206 95.7695 49.1206C79.8123 49.1206 66.873 49.0747 66.873 49.0173C66.873 48.9599 79.8085 48.9141 95.7695 48.9141C111.731 48.9141 124.666 48.9523 124.666 49.0173Z" fill="#263238"/>
<path d="M54.1785 52.7927C54.1785 52.8501 48.1235 52.896 40.6517 52.896C33.18 52.896 27.125 52.8501 27.125 52.7927C27.125 52.7353 33.18 52.6895 40.6517 52.6895C48.1235 52.6895 54.1785 52.7353 54.1785 52.7927Z" fill="#263238"/>
<path d="M54.1785 42.9177C54.1785 42.9751 48.1235 43.0171 40.6517 43.0171C33.18 43.0171 27.125 42.9751 27.125 42.9177C27.125 42.8603 33.18 42.8145 40.6517 42.8145C48.1235 42.8145 54.1785 42.8603 54.1785 42.9177Z" fill="#263238"/>
<path d="M127.707 41.4294C127.707 41.4868 105.488 41.5327 78.089 41.5327C50.6899 41.5327 28.4551 41.4868 28.4551 41.4294C28.4551 41.3721 50.6669 41.3262 78.0774 41.3262C105.488 41.3262 127.707 41.3682 127.707 41.4294Z" fill="#263238"/>
<path d="M87.8672 30.1426V36.9955L90.2515 35.4735L92.9085 36.9955V30.1426H87.8672Z" fill="#FF725E"/>
<path d="M124.346 1.79592V33.1199C124.353 33.18 124.383 33.2353 124.428 33.2754C124.474 33.3155 124.533 33.3377 124.593 33.3377C124.654 33.3377 124.713 33.3155 124.759 33.2754C124.804 33.2353 124.833 33.18 124.841 33.1199V1.79592C124.833 1.73579 124.804 1.68047 124.759 1.64036C124.713 1.60026 124.654 1.57812 124.593 1.57812C124.533 1.57812 124.474 1.60026 124.428 1.64036C124.383 1.68047 124.353 1.73579 124.346 1.79592Z" fill="#FF725E"/>
<path d="M126.366 26.2199C126.366 26.5693 126.262 26.9109 126.067 27.2015C125.872 27.492 125.595 27.7185 125.271 27.8522C124.947 27.9859 124.59 28.0209 124.246 27.9527C123.902 27.8846 123.586 27.7163 123.338 27.4692C123.09 27.2221 122.921 26.9073 122.852 26.5646C122.784 26.2219 122.819 25.8666 122.953 25.5438C123.088 25.2209 123.315 24.945 123.607 24.7509C123.898 24.5567 124.241 24.4531 124.592 24.4531C125.063 24.4531 125.514 24.6393 125.847 24.9706C126.179 25.3019 126.366 25.7513 126.366 26.2199Z" fill="#FF725E"/>
<path d="M124.097 27.1312C124.097 27.1312 122.803 28.4199 122.416 32.1944C122.028 35.9689 121.943 37.8542 121.943 37.8542L125.43 38.0683V35.3685C125.43 35.4947 126.121 37.3838 126.121 37.3838L128.878 36.4813C128.878 36.4813 127.899 26.4466 124.097 27.1312Z" fill="#FF725E"/>
<path d="M105.964 4.35938H46.7578V25.6181H105.964V4.35938Z" fill="#263238"/>
<path d="M126.758 0.697266H25.4902V4.35702H126.758V0.697266Z" fill="#263238"/>
<path opacity="0.3" d="M46.7578 19.5856C46.7578 19.5856 64.7423 13.161 76.3607 10.79C87.9792 8.41896 105.964 9.20674 105.964 9.20674V4.36914H46.7578V19.5856Z" fill="black"/>
<path opacity="0.3" d="M62.1196 0.697266H25.4902V4.35702H62.1196V0.697266Z" fill="black"/>
<path d="M126.026 4.36896C126.026 4.42633 103.507 4.47221 75.7278 4.47221C47.9487 4.47221 25.4297 4.42633 25.4297 4.36896C25.4297 4.3116 47.941 4.26953 75.7278 4.26953C103.515 4.26953 126.026 4.30395 126.026 4.36896Z" fill="#455A64"/>
<path d="M62.0665 4.38899C61.9283 3.15377 61.9283 1.90709 62.0665 0.671875C62.1997 1.90737 62.1997 3.1535 62.0665 4.38899Z" fill="#455A64"/>
<path d="M70.5041 25.622C70.4504 25.622 70.4043 21.4727 70.4043 16.3559C70.4043 11.2392 70.4504 7.09375 70.5041 7.09375C70.5579 7.09375 70.6078 11.2392 70.6078 16.3559C70.6078 21.4727 70.5617 25.622 70.5041 25.622Z" fill="#455A64"/>
</svg>
